<?xml version="1.0" encoding="UTF-8"?>
<svg xmlns="http://www.w3.org/2000/svg" viewBox="0 0 362.44 102">
  <defs>
    <style>
      .cls-1, .cls-2 {
        font-family: Poppins-Bold, Poppins;
        font-size: 40px;
        font-weight: 700;
      }

      .cls-1, .cls-3 {
        fill: #ff8000;
      }

      .cls-2, .cls-4 {
        fill: #2490eb;
      }

      .cls-4, .cls-3 {
        stroke-width: 0px;
      }
    </style>
  </defs>
  <g id="Layer_7" data-name="Layer 7">
    <text class="cls-1" transform="translate(105.58 44.08)"><tspan x="0" y="0">Dutch</tspan></text>
  </g>
  <g id="Layer_8" data-name="Layer 8">
    <text class="cls-2" transform="translate(107.2 85.76)"><tspan x="0" y="0">Wave Power</tspan></text>
  </g>
  <g id="Layer_10" data-name="Layer 10">
    <g>
      <path class="cls-3" d="m4.09,62.35c.99.2,2.09.23,3.38.11-.96-3.66-1.48-7.5-1.48-11.46C6,26.15,26.15,6,51,6s45,20.15,45,45c0,3.96-.52,7.8-1.48,11.45,1.36.12,2.41.09,3.38-.11l1.87-.38c.79-3.53,1.22-7.19,1.22-10.96C101,23.39,78.61,1,51,1S1,23.39,1,51c0,3.77.43,7.44,1.22,10.97l1.87.38Z"/>
      <path class="cls-3" d="m79.49,91.12c-1.45-.99-2.6-1.77-4.15-2.28-7.02,4.52-15.37,7.16-24.34,7.16s-17.36-2.65-24.39-7.19c-1.51.52-2.68,1.31-4.14,2.3-.22.15-.45.3-.68.46,8.22,5.93,18.3,9.43,29.21,9.43s20.97-3.5,29.19-9.41c-.24-.16-.47-.31-.69-.47Z"/>
    </g>
  </g>
  <g id="Layer_15" data-name="Layer 15">
    <path class="cls-4" d="m8.8,70.63c5.8-.61,8.86-2.69,11.55-4.52,2.58-1.75,4.8-3.27,9.5-3.58,4.7-.22,6.9,1.02,9.45,2.46,2.69,1.53,5.74,3.25,11.42,3.25.08,0,.16,0,.25,0,5.91.05,8.97-1.7,11.7-3.25,2.55-1.44,4.74-2.7,9.41-2.47,4.74.31,6.96,1.82,9.54,3.58,2.69,1.83,5.75,3.92,11.51,4.52,1.37.17,2.59.22,3.69.18.76-1.64,1.43-3.33,2.01-5.07-1.37.28-2.99.36-5.16.1-4.6-.48-6.8-1.98-9.34-3.71-2.76-1.88-5.89-4.01-11.98-4.4-6.09-.29-9.26,1.5-12.05,3.08-2.53,1.43-4.67,2.67-9.33,2.63-4.56.05-6.76-1.19-9.29-2.63-2.79-1.58-5.96-3.37-12.09-3.08-6.05.39-9.18,2.52-11.94,4.41-2.55,1.73-4.75,3.23-9.38,3.72-2.13.26-3.73.18-5.09-.1.58,1.73,1.25,3.42,2.01,5.06,1.08.04,2.28-.01,3.63-.18Z"/>
  </g>
  <g id="Layer_3" data-name="Layer 3">
    <polygon class="cls-3" points="66 8 33 55 50 55 66 8"/>
    <polygon class="cls-3" points="35.64 94 68.64 47 51.64 47 35.64 94"/>
  </g>
  <g id="Layer_14" data-name="Layer 14">
    <path class="cls-4" d="m72.35,79.9c-6.09-.29-9.26,1.5-12.05,3.08-2.53,1.43-4.67,2.67-9.33,2.63-4.56.05-6.76-1.2-9.29-2.62-2.79-1.58-5.96-3.37-12.09-3.08-6.05.39-9.18,2.52-11.94,4.4-.77.52-1.5,1.02-2.28,1.48,1.18,1.18,2.43,2.3,3.72,3.36.44-.29.86-.57,1.27-.85,2.58-1.75,4.8-3.27,9.5-3.58,4.7-.22,6.9,1.02,9.45,2.46,2.69,1.53,5.74,3.25,11.41,3.25h.25c5.91.04,8.97-1.7,11.7-3.25,2.55-1.44,4.74-2.69,9.41-2.47,4.74.31,6.96,1.82,9.54,3.58.41.28.84.57,1.28.86,1.29-1.06,2.54-2.18,3.72-3.36-.78-.46-1.52-.96-2.29-1.48-2.76-1.88-5.89-4.01-11.98-4.41Z"/>
    <path class="cls-4" d="m72.35,69c-6.07-.29-9.26,1.5-12.05,3.08-2.49,1.41-4.64,2.63-9.12,2.63h-.43c-4.44,0-6.59-1.22-9.08-2.62-2.79-1.58-5.97-3.37-12.09-3.08-6.05.39-9.18,2.52-11.94,4.4-2.52,1.71-4.7,3.2-9.24,3.7.96,1.51,2.01,2.97,3.12,4.37,4.1-.88,6.59-2.57,8.82-4.09,2.58-1.75,4.8-3.27,9.5-3.58,4.7-.22,6.9,1.02,9.45,2.46,2.73,1.55,5.81,3.31,11.66,3.25,5.86.06,8.97-1.7,11.7-3.25,2.55-1.44,4.75-2.7,9.41-2.47,4.74.31,6.96,1.82,9.54,3.58,2.24,1.53,4.74,3.22,8.84,4.09,1.12-1.4,2.16-2.86,3.12-4.38-4.53-.49-6.72-1.98-9.25-3.7-2.76-1.88-5.89-4.01-11.98-4.41Z"/>
  </g>
</svg>