<?xml version="1.0" encoding="utf-8"?>
<!-- Generator: Adobe Illustrator 28.0.0, SVG Export Plug-In . SVG Version: 6.00 Build 0)  -->
<svg version="1.1" xmlns="http://www.w3.org/2000/svg" xmlns:xlink="http://www.w3.org/1999/xlink" x="0px" y="0px"
	 viewBox="0 0 362.44 102" style="enable-background:new 0 0 362.44 102;" xml:space="preserve">
<style type="text/css">
	.st0{fill:#FF8000;}
	.st1{font-family:'Poppins-Bold';}
	.st2{font-size:40px;}
	.st3{fill:#2490EB;}
</style>
<g id="Layer_7">
	<text transform="matrix(1 0 0 1 105.5835 44.0835)" class="st0 st1 st2">Dutch</text>
</g>
<g id="Layer_8">
	<g>
		<text transform="matrix(1 0 0 1 107.2046 85.7593)" class="st3 st1 st2">Wave Power</text>
	</g>
</g>
<g id="Layer_5">
</g>
<g id="Layer_10">
	<g>
		<path class="st0" d="M4.09,62.35c0.99,0.2,2.09,0.23,3.38,0.11C6.52,58.8,6,54.96,6,51C6,26.15,26.15,6,51,6
			c24.85,0,45,20.15,45,45c0,3.96-0.52,7.8-1.48,11.45c1.36,0.12,2.41,0.09,3.38-0.11l1.88-0.38C100.57,58.43,101,54.77,101,51
			c0-27.61-22.39-50-50-50C23.39,1,1,23.39,1,51c0,3.77,0.43,7.44,1.22,10.97L4.09,62.35z"/>
		<path class="st0" d="M79.49,91.12c-1.45-0.99-2.6-1.77-4.15-2.28C68.32,93.36,59.97,96,51,96c-8.99,0-17.36-2.65-24.39-7.19
			c-1.51,0.52-2.68,1.31-4.14,2.3c-0.22,0.15-0.45,0.3-0.68,0.46C30.01,97.5,40.09,101,51,101c10.9,0,20.97-3.5,29.19-9.41
			C79.95,91.43,79.72,91.28,79.49,91.12z"/>
	</g>
</g>
<g id="Layer_15">
	<path class="st3" d="M8.8,70.63c5.8-0.61,8.86-2.69,11.55-4.52c2.58-1.75,4.8-3.27,9.5-3.58c4.7-0.22,6.9,1.02,9.45,2.46
		c2.69,1.53,5.74,3.25,11.42,3.25c0.08,0,0.16,0,0.25,0c5.91,0.05,8.97-1.7,11.7-3.25c2.55-1.44,4.74-2.7,9.41-2.47
		c4.74,0.31,6.96,1.82,9.54,3.58c2.69,1.83,5.75,3.92,11.51,4.52c1.37,0.17,2.59,0.22,3.69,0.18c0.76-1.64,1.43-3.33,2.01-5.07
		c-1.37,0.28-2.99,0.36-5.16,0.1c-4.6-0.48-6.8-1.98-9.34-3.71c-2.76-1.88-5.89-4.01-11.98-4.4c-6.09-0.29-9.26,1.5-12.05,3.08
		c-2.53,1.43-4.67,2.67-9.33,2.63c-4.56,0.05-6.76-1.19-9.29-2.63c-2.79-1.58-5.96-3.37-12.09-3.08c-6.05,0.39-9.18,2.52-11.94,4.41
		c-2.55,1.73-4.75,3.23-9.38,3.72c-2.13,0.26-3.73,0.18-5.09-0.1c0.58,1.73,1.25,3.42,2.01,5.06C6.26,70.84,7.46,70.79,8.8,70.63z"
		/>
</g>
<g id="Layer_3">
	<polygon class="st0" points="66,8 33,55 50,55 	"/>
	<polygon class="st0" points="35.64,94 68.64,47 51.64,47 	"/>
</g>
<g id="Layer_14">
	<path class="st3" d="M72.35,79.9c-6.09-0.29-9.26,1.5-12.05,3.08c-2.53,1.43-4.67,2.67-9.33,2.63c-4.56,0.05-6.76-1.2-9.29-2.62
		c-2.79-1.58-5.96-3.37-12.09-3.08c-6.05,0.39-9.18,2.52-11.94,4.4c-0.77,0.52-1.5,1.02-2.28,1.48c1.18,1.18,2.43,2.3,3.72,3.36
		c0.44-0.29,0.86-0.57,1.27-0.85c2.58-1.75,4.8-3.27,9.5-3.58c4.7-0.22,6.9,1.02,9.45,2.46c2.69,1.53,5.74,3.25,11.41,3.25
		c0.08,0,0.16,0,0.25,0c5.91,0.04,8.97-1.7,11.7-3.25c2.55-1.44,4.74-2.69,9.41-2.47c4.74,0.31,6.96,1.82,9.54,3.58
		c0.41,0.28,0.84,0.57,1.28,0.86c1.29-1.06,2.54-2.18,3.72-3.36c-0.78-0.46-1.52-0.96-2.29-1.48C81.57,82.43,78.44,80.29,72.35,79.9
		z"/>
	<path class="st3" d="M72.35,69c-6.07-0.29-9.26,1.5-12.05,3.08c-2.49,1.41-4.64,2.63-9.12,2.63c-0.14,0-0.28,0-0.43,0
		c-4.44,0-6.59-1.22-9.08-2.62c-2.79-1.58-5.97-3.37-12.09-3.08c-6.05,0.39-9.18,2.52-11.94,4.4c-2.52,1.71-4.7,3.2-9.24,3.7
		c0.96,1.51,2.01,2.97,3.12,4.37c4.1-0.88,6.59-2.57,8.82-4.09c2.58-1.75,4.8-3.27,9.5-3.58c4.7-0.22,6.9,1.02,9.45,2.46
		c2.73,1.55,5.81,3.31,11.66,3.25c5.86,0.06,8.97-1.7,11.7-3.25c2.55-1.44,4.75-2.7,9.41-2.47c4.74,0.31,6.96,1.82,9.54,3.58
		c2.24,1.53,4.74,3.22,8.84,4.09c1.12-1.4,2.16-2.86,3.12-4.38c-4.53-0.49-6.72-1.98-9.25-3.7C81.57,71.52,78.44,69.39,72.35,69z"/>
</g>
</svg>
