<svg width="180" height="49" viewBox="0 0 180 49" fill="none" xmlns="http://www.w3.org/2000/svg">
<path d="M86.2035 11.2668C87.338 10.8179 88.5452 10.5867 89.7633 10.585C92.438 10.585 94.2371 12.1142 94.2371 14.7245C94.2371 17.5977 92.5438 19.2048 89.7152 19.2048C89.2767 19.2119 88.8394 19.1562 88.4164 19.0392V22.3508H86.2035V11.2668ZM88.4164 17.1107C88.7823 17.2328 89.1666 17.2888 89.5517 17.2763C89.8805 17.3124 90.2131 17.274 90.5255 17.164C90.8379 17.054 91.1222 16.875 91.3579 16.6402C91.5936 16.4053 91.7748 16.1203 91.8884 15.8058C92.002 15.4914 92.0451 15.1553 92.0146 14.8219C92.0328 14.5178 91.9856 14.2134 91.8762 13.9297C91.7668 13.646 91.5979 13.3897 91.3811 13.1785C91.1642 12.9674 90.9047 12.8064 90.6204 12.7067C90.3361 12.607 90.0338 12.571 89.7345 12.6012C89.2864 12.5868 88.8396 12.6561 88.4164 12.8057V17.1107Z" fill="#281F6B"/>
<path d="M98.3165 19.0198H96.1517V11.3934C97.1612 10.8836 98.2756 10.6233 99.4037 10.6337C99.9759 10.6241 100.546 10.6996 101.097 10.8577V13.0005C100.57 12.8061 100.012 12.7135 99.4518 12.7278C99.0759 12.733 98.7029 12.7954 98.3453 12.9129L98.3165 19.0198Z" fill="#281F6B"/>
<path d="M106.215 10.585C106.792 10.5573 107.367 10.6482 107.908 10.8523C108.448 11.0564 108.942 11.3694 109.359 11.7723C109.777 12.1752 110.109 12.6597 110.336 13.1965C110.563 13.7332 110.68 14.311 110.68 14.8949C110.68 15.4788 110.563 16.0566 110.336 16.5933C110.109 17.1301 109.777 17.6146 109.359 18.0175C108.942 18.4205 108.448 18.7335 107.908 18.9375C107.367 19.1416 106.792 19.2325 106.215 19.2048C105.647 19.2323 105.079 19.1398 104.548 18.9331C104.017 18.7264 103.535 18.41 103.131 18.0042C102.728 17.5983 102.412 17.1118 102.204 16.5757C101.996 16.0395 101.901 15.4655 101.924 14.89C101.901 14.315 101.996 13.7414 102.204 13.2057C102.412 12.6701 102.728 12.1842 103.132 11.779C103.535 11.3739 104.018 11.0585 104.549 10.8529C105.08 10.6473 105.648 10.5561 106.215 10.585ZM106.215 12.533C105.921 12.5374 105.631 12.6047 105.364 12.7306C105.097 12.8564 104.86 13.038 104.667 13.2633C104.475 13.4887 104.331 13.7527 104.247 14.0381C104.162 14.3235 104.138 14.6238 104.176 14.9193C104.13 15.2177 104.149 15.5225 104.231 15.8128C104.313 16.1031 104.456 16.372 104.65 16.6012C104.844 16.8303 105.085 17.0143 105.356 17.1404C105.627 17.2665 105.922 17.3318 106.22 17.3318C106.518 17.3318 106.813 17.2665 107.084 17.1404C107.355 17.0143 107.596 16.8303 107.79 16.6012C107.984 16.372 108.127 16.1031 108.209 15.8128C108.291 15.5225 108.31 15.2177 108.265 14.9193C108.307 14.6207 108.286 14.3164 108.203 14.0268C108.12 13.7372 107.976 13.469 107.782 13.2402C107.588 13.0114 107.348 12.8273 107.078 12.7002C106.807 12.5732 106.513 12.5062 106.215 12.5038V12.533Z" fill="#281F6B"/>
<path d="M114.018 19.0198L110.872 10.7701H113.248L115.336 16.8185L117.414 10.7701H119.714L116.597 19.0198H114.018Z" fill="#281F6B"/>
<path d="M120.83 8.26693C120.826 8.0014 120.901 7.74076 121.044 7.51836C121.187 7.29597 121.393 7.12193 121.635 7.01853C121.876 6.91513 122.143 6.88707 122.4 6.93793C122.658 6.9888 122.894 7.11628 123.08 7.30405C123.265 7.49183 123.391 7.73137 123.441 7.99201C123.492 8.25266 123.464 8.52255 123.362 8.76715C123.26 9.01175 123.088 9.21994 122.868 9.36507C122.648 9.51019 122.391 9.58566 122.129 9.58181C121.786 9.57678 121.458 9.43663 121.216 9.19113C120.973 8.94562 120.835 8.61409 120.83 8.26693ZM123.235 18.9808H121.051V10.7701H123.235V18.9808Z" fill="#281F6B"/>
<path d="M125.554 11.3058C126.803 10.8445 128.121 10.6008 129.45 10.585C131.567 10.585 132.933 11.374 132.933 13.8381V19.0198H130.73V13.9842C130.751 13.7896 130.728 13.5926 130.662 13.4085C130.597 13.2244 130.49 13.0581 130.35 12.9225C130.211 12.7869 130.042 12.6856 129.858 12.6265C129.673 12.5674 129.478 12.5521 129.287 12.5817C128.765 12.5827 128.246 12.6614 127.747 12.8155V19.0198H125.554V11.3058Z" fill="#281F6B"/>
<path d="M141.246 13.3024C140.665 12.7994 139.922 12.5291 139.158 12.5427C138.849 12.5198 138.539 12.5641 138.249 12.6727C137.959 12.7813 137.695 12.9517 137.475 13.1723C137.255 13.3929 137.085 13.6586 136.975 13.9516C136.866 14.2446 136.819 14.5579 136.839 14.8706C136.823 15.1928 136.875 15.5148 136.992 15.8151C137.109 16.1154 137.287 16.387 137.516 16.6119C137.744 16.8368 138.017 17.0098 138.317 17.1194C138.617 17.2289 138.936 17.2724 139.254 17.2471C140.004 17.2442 140.73 16.9831 141.313 16.5069V18.5912C140.596 19.015 139.776 19.2276 138.946 19.2048C138.375 19.249 137.801 19.1688 137.263 18.9695C136.724 18.7702 136.235 18.4565 135.826 18.0495C135.418 17.6426 135.1 17.1517 134.895 16.6101C134.69 16.0685 134.601 15.4886 134.636 14.9095C134.61 14.3329 134.703 13.7571 134.91 13.2191C135.116 12.6811 135.432 12.1928 135.836 11.7856C136.24 11.3783 136.724 11.0612 137.256 10.8544C137.788 10.6476 138.358 10.5559 138.927 10.585C139.741 10.5557 140.547 10.7654 141.246 11.1889V13.3024Z" fill="#281F6B"/>
<path d="M143.055 8.26693C143.051 8.09054 143.082 7.91514 143.146 7.75104C143.21 7.58694 143.306 7.43745 143.427 7.31134C143.549 7.18522 143.695 7.08503 143.856 7.01664C144.016 6.94825 144.189 6.91305 144.363 6.91309C144.713 6.91309 145.048 7.05367 145.295 7.30392C145.542 7.55416 145.681 7.89356 145.681 8.24745C145.681 8.60135 145.542 8.94075 145.295 9.19099C145.048 9.44123 144.713 9.58181 144.363 9.58181C144.192 9.5831 144.022 9.55004 143.863 9.48453C143.704 9.41903 143.56 9.32238 143.438 9.20015C143.317 9.07793 143.22 8.93254 143.154 8.77238C143.088 8.61221 143.055 8.44043 143.055 8.26693ZM145.46 18.9808H143.295V10.7701H145.489L145.46 18.9808Z" fill="#281F6B"/>
<path d="M149.337 15.5037C149.458 16.0385 149.767 16.5109 150.205 16.8332C150.644 17.1555 151.183 17.306 151.723 17.2568C152.682 17.2805 153.628 17.0235 154.446 16.5166V18.4061C153.56 18.948 152.536 19.2123 151.502 19.1658C150.935 19.2187 150.364 19.147 149.827 18.9559C149.29 18.7647 148.8 18.4584 148.391 18.058C147.982 17.6576 147.663 17.1725 147.456 16.6359C147.249 16.0992 147.159 15.5237 147.192 14.9485C147.192 12.2213 148.895 10.5461 151.175 10.5461C153.715 10.5461 154.706 12.2408 154.706 14.442V15.4744L149.337 15.5037ZM152.656 14.1693C152.656 13.1953 152.166 12.4161 151.127 12.4161C150.668 12.4302 150.232 12.6182 149.904 12.943C149.576 13.2678 149.38 13.7055 149.356 14.1693H152.656Z" fill="#281F6B"/>
<path d="M85.7128 26.5292H93.6021V28.5843L88.2528 35.4704H93.7272V37.5255H85.6166V35.4704L90.8794 28.5843H85.7128V26.5292Z" fill="#281F6B"/>
<path d="M102.492 37.282C101.394 37.5592 100.266 37.7031 99.1343 37.7106C96.7771 37.7106 95.2858 36.9703 95.2858 34.5256V29.2758H97.4987V34.3406C97.4987 35.3925 97.9605 35.8795 99.1054 35.8795C99.5011 35.8912 99.897 35.8684 100.289 35.8113V29.2758H102.492V37.282Z" fill="#281F6B"/>
<path d="M104.503 26.7727C104.499 26.508 104.573 26.2481 104.716 26.0261C104.858 25.8041 105.063 25.6301 105.303 25.5261C105.544 25.4221 105.809 25.3929 106.066 25.4422C106.323 25.4914 106.56 25.6169 106.746 25.8028C106.932 25.9886 107.06 26.2263 107.112 26.4856C107.165 26.745 107.14 27.0143 107.04 27.2592C106.941 27.5042 106.772 27.7138 106.555 27.8613C106.338 28.0088 106.082 28.0875 105.821 28.0876C105.475 28.0876 105.142 27.9497 104.896 27.7037C104.649 27.4576 104.508 27.1232 104.503 26.7727ZM106.908 37.4866H104.724V29.2758H106.908V37.4866Z" fill="#281F6B"/>
<path d="M116.683 37.321C115.593 37.5874 114.475 37.7182 113.354 37.7106C110.583 37.7593 108.659 36.1912 108.659 33.4153C108.625 32.8376 108.713 32.2593 108.916 31.7185C109.12 31.1777 109.434 30.6867 109.839 30.278C110.243 29.8693 110.729 29.5521 111.264 29.3475C111.799 29.1428 112.37 29.0553 112.941 29.0908C113.462 29.0693 113.983 29.1554 114.47 29.344V24.9416H116.664L116.683 37.321ZM114.49 31.3115C114.066 31.1207 113.606 31.0308 113.143 31.0485C112.84 31.0243 112.536 31.0675 112.252 31.1751C111.967 31.2826 111.71 31.4519 111.497 31.6709C111.284 31.89 111.122 32.1536 111.02 32.4432C110.919 32.7328 110.881 33.0413 110.91 33.3471C110.883 33.6888 110.932 34.0323 111.053 34.3526C111.173 34.6728 111.363 34.9616 111.609 35.1979C111.854 35.4341 112.149 35.6118 112.471 35.718C112.793 35.8241 113.134 35.856 113.47 35.8113C113.824 35.8122 114.178 35.7829 114.528 35.7236L114.49 31.3115Z" fill="#281F6B"/>
<path d="M131.75 26.5292H134.049V37.5255H131.75V33.0647H126.795V37.5255H124.476V26.5292H126.795V30.9901H131.75V26.5292Z" fill="#281F6B"/>
<path d="M139.908 29.0908C140.752 29.0889 141.578 29.3405 142.28 29.8139C142.982 30.2873 143.53 30.961 143.854 31.7499C144.178 32.5387 144.263 33.407 144.099 34.2449C143.935 35.0828 143.529 35.8525 142.932 36.4565C142.335 37.0606 141.575 37.4717 140.747 37.6379C139.92 37.804 139.062 37.7178 138.283 37.39C137.503 37.0622 136.838 36.5077 136.37 35.7966C135.903 35.0856 135.654 34.25 135.656 33.3958C135.634 32.8246 135.73 32.255 135.936 31.7228C136.142 31.1906 136.454 30.7072 136.853 30.303C137.253 29.8988 137.73 29.5825 138.256 29.3739C138.782 29.1653 139.344 29.0689 139.908 29.0908ZM139.908 31.0388C139.614 31.0433 139.323 31.1106 139.056 31.2364C138.789 31.3622 138.551 31.5436 138.358 31.7687C138.164 31.9939 138.02 32.2577 137.934 32.5431C137.848 32.8285 137.823 33.129 137.859 33.425C137.819 33.7213 137.842 34.0229 137.926 34.3094C138.011 34.596 138.155 34.8609 138.349 35.0863C138.544 35.3117 138.783 35.4924 139.052 35.6162C139.321 35.74 139.613 35.8041 139.908 35.8041C140.204 35.8041 140.496 35.74 140.765 35.6162C141.034 35.4924 141.273 35.3117 141.467 35.0863C141.662 34.8609 141.806 34.596 141.89 34.3094C141.975 34.0229 141.998 33.7213 141.958 33.425C141.999 33.1268 141.977 32.8231 141.893 32.5342C141.809 32.2452 141.665 31.9777 141.471 31.7492C141.278 31.5208 141.038 31.3367 140.769 31.2091C140.499 31.0816 140.206 31.0136 139.908 31.0095V31.0388Z" fill="#281F6B"/>
<path d="M148.106 37.5255H145.912V24.9416H148.106V37.5255Z" fill="#281F6B"/>
<path d="M152.551 37.5255H150.357V24.9416H152.551V37.5255Z" fill="#281F6B"/>
<path d="M158.737 32.1199C158.737 31.3212 158.083 30.9901 157.275 30.9901C156.44 30.9926 155.624 31.2322 154.917 31.6816V29.7336C155.76 29.2781 156.704 29.05 157.659 29.0713C159.526 29.0713 160.911 29.8115 160.911 31.9933V37.321C159.902 37.5362 158.874 37.6472 157.842 37.6521C155.774 37.6521 154.186 37.019 154.186 35.1198C154.186 33.3958 155.562 32.5777 157.842 32.5777H158.737V32.1199ZM158.737 34.0679H158.006C156.986 34.0679 156.38 34.3601 156.38 35.0418C156.38 35.7236 156.947 36.0158 157.823 36.0158C158.146 36.0234 158.47 35.9907 158.785 35.9184L158.737 34.0679Z" fill="#281F6B"/>
<path d="M162.932 29.8115C164.181 29.3494 165.498 29.1056 166.828 29.0908C168.945 29.0908 170.311 29.8797 170.311 32.3439V37.5255H168.108V32.49C168.129 32.2954 168.106 32.0984 168.04 31.9143C167.974 31.7302 167.868 31.5639 167.728 31.4283C167.589 31.2927 167.42 31.1914 167.236 31.1323C167.051 31.0732 166.856 31.0579 166.665 31.0875C166.143 31.0884 165.624 31.1672 165.125 31.3212V37.5255H162.932V29.8115Z" fill="#281F6B"/>
<path d="M179.971 37.321C178.884 37.5879 177.769 37.7188 176.651 37.7106C173.842 37.7106 171.976 36.1912 171.976 33.4153C171.94 32.8381 172.027 32.26 172.229 31.7192C172.431 31.1784 172.745 30.6872 173.149 30.2783C173.553 29.8694 174.038 29.5521 174.572 29.3474C175.106 29.1426 175.677 29.0552 176.247 29.0908C176.769 29.0662 177.29 29.1525 177.777 29.344V24.9416H179.971V37.321ZM177.777 31.3115C177.354 31.1207 176.893 31.0308 176.43 31.0485C176.128 31.0243 175.824 31.0675 175.539 31.1751C175.255 31.2826 174.997 31.4519 174.785 31.6709C174.572 31.89 174.409 32.1536 174.308 32.4432C174.206 32.7328 174.169 33.0413 174.198 33.3471C174.172 33.6851 174.22 34.0248 174.338 34.3419C174.457 34.6589 174.643 34.9455 174.884 35.181C175.125 35.4165 175.415 35.5952 175.732 35.7041C176.049 35.8131 176.386 35.8497 176.719 35.8113C177.073 35.8129 177.427 35.7836 177.777 35.7236V31.3115Z" fill="#281F6B"/>
<path d="M118.425 33.3763V35.9866L122.61 33.1231V30.5225L118.425 33.3763Z" fill="#281F6B"/>
<path d="M63.719 48.8432H78.6413L75.9474 46.5252L78.3719 44.3045H63.7767L63.363 48.4731C63.363 48.5696 63.4002 48.6623 63.4667 48.7315C63.5332 48.8006 63.6237 48.8407 63.719 48.8432Z" fill="#EFCC36"/>
<path d="M13.6027 46.8563H65.9607V44.285H64.0365C63.99 44.2864 63.9443 44.273 63.9058 44.2466C63.8673 44.2202 63.838 44.1822 63.822 44.138C63.806 44.0938 63.8042 44.0457 63.8168 44.0004C63.8294 43.9551 63.8558 43.9149 63.8922 43.8857L65.547 42.6779C65.5843 42.6482 65.6112 42.6071 65.6236 42.5608C65.6361 42.5144 65.6335 42.4652 65.6162 42.4205C65.599 42.3757 65.568 42.3378 65.5278 42.3122C65.4876 42.2867 65.4404 42.2749 65.3931 42.2786H14.2089C14.1624 42.2771 14.1167 42.2906 14.0782 42.317C14.0396 42.3433 14.0103 42.3813 13.9944 42.4255C13.9784 42.4697 13.9766 42.5179 13.9892 42.5632C14.0018 42.6085 14.0281 42.6486 14.0645 42.6779L15.7098 43.8857C15.7462 43.9149 15.7725 43.9551 15.7851 44.0004C15.7977 44.0457 15.7959 44.0938 15.7799 44.138C15.764 44.1822 15.7346 44.2202 15.6961 44.2466C15.6576 44.273 15.6119 44.2864 15.5654 44.285H13.6412L13.6027 46.8563Z" fill="#EFCC36"/>
<path d="M0.902886 48.8432H15.8444C15.892 48.8433 15.9391 48.8336 15.9829 48.8149C16.0268 48.7962 16.0664 48.7688 16.0996 48.7343C16.1328 48.6998 16.1588 48.6589 16.1761 48.614C16.1935 48.5692 16.2017 48.5213 16.2004 48.4731L15.7867 44.3239H1.23L3.6449 46.5252L0.902886 48.8432Z" fill="#EFCC36"/>
<path d="M39.7817 41.1C46.4395 41.1 52.7895 37.3112 52.7895 27.3376V10.7798H26.8125V27.3376C26.774 37.3112 33.1239 41.1 39.7817 41.1Z" fill="#EFCC36"/>
<path d="M49.2296 6.04624C49.2296 6.46506 49.4028 6.84491 49.7973 6.84491C50.1918 6.84491 50.3746 6.46506 50.3746 6.04624C50.3746 5.62743 50.2014 5.36445 49.7973 5.36445C49.3932 5.36445 49.2296 5.69561 49.2296 6.04624Z" fill="#EFCC36"/>
<path d="M36.5009 6.75725C36.8954 6.75725 37.0686 6.3774 37.0686 5.95858C37.0686 5.53977 36.8954 5.26705 36.5009 5.26705C36.1065 5.26705 35.9237 5.60795 35.9237 5.95858C35.9237 6.30922 36.0487 6.75725 36.5009 6.75725Z" fill="#EFCC36"/>
<path d="M42.543 5.95858C42.543 6.3774 42.7162 6.75725 43.1202 6.75725C43.5243 6.75725 43.6879 6.3774 43.6879 5.95858C43.6879 5.53977 43.5147 5.26705 43.1202 5.26705C42.7258 5.26705 42.543 5.61769 42.543 5.95858Z" fill="#EFCC36"/>
<path d="M53.8189 2.42301L52.3854 3.1048C52.2879 3.31854 52.2374 3.55116 52.2374 3.78659C52.2374 4.02202 52.2879 4.25463 52.3854 4.46838L51.8658 3.98139C51.6985 3.79286 51.4696 3.6718 51.2212 3.64049C50.9903 3.64049 50.846 3.77685 50.7209 4.04957L50.49 4.58526L51.3559 6.2313L49.9224 7.965L48.3349 6.19234L49.5568 4.45864L49.4702 3.86451C49.4652 3.7293 49.4079 3.6015 49.3107 3.5086C49.2136 3.41569 49.0843 3.36513 48.9506 3.36778C48.4681 3.4314 48.0069 3.60816 47.6037 3.88399C47.8533 3.67345 48.0517 3.40756 48.1835 3.10691C48.3153 2.80627 48.377 2.47894 48.3637 2.15029L47.0841 0.387373H46.122L44.852 2.15029C44.8396 2.47512 44.8978 2.79875 45.0225 3.09832C45.1472 3.39788 45.3353 3.66609 45.5736 3.88399C45.1523 3.61752 44.6858 3.43257 44.1978 3.33856C44.0054 3.33856 43.7937 3.52361 43.7264 3.85477L43.6205 4.40994L44.8039 6.1339L43.0914 7.965L41.4077 6.01702L42.7643 4.3515L42.6969 3.92295C42.6392 3.54309 42.4853 3.2509 42.0812 3.2509C41.5884 3.30926 41.1149 3.47903 40.6957 3.74763C40.9328 3.53391 41.1191 3.26873 41.2407 2.9719C41.3623 2.67506 41.4161 2.35425 41.3981 2.03341L40.1858 0.358154H39.3873L38.175 2.03341C38.157 2.35425 38.2108 2.67506 38.3324 2.9719C38.454 3.26873 38.6403 3.53391 38.8773 3.74763C38.4471 3.48515 37.9634 3.32527 37.463 3.28012C37.059 3.28012 36.905 3.57231 36.8473 3.95217L36.7799 4.38072L38.1365 6.04624L36.4528 7.99422L34.7691 6.1339L35.9429 4.40994L35.8371 3.85477C35.7697 3.52361 35.5581 3.33856 35.3656 3.33856C34.8676 3.42907 34.391 3.61413 33.961 3.88399C34.1993 3.66609 34.3874 3.39788 34.5121 3.09832C34.6368 2.79875 34.695 2.47512 34.6826 2.15029L33.4126 0.387373H32.5659L31.2959 2.15029C31.283 2.47796 31.3438 2.80433 31.4738 3.10469C31.6038 3.40505 31.7996 3.67154 32.0464 3.88399C31.6432 3.60816 31.182 3.4314 30.6994 3.36778C30.5665 3.36757 30.4385 3.41895 30.3419 3.51135C30.2452 3.60375 30.1873 3.73014 30.1799 3.86451L30.0933 4.45864L31.3152 6.19234L29.7662 7.965L28.3326 6.2313L29.1985 4.58526L28.9676 4.04957C28.8425 3.77685 28.6982 3.64049 28.4673 3.64049C28.2189 3.6718 27.99 3.79286 27.8227 3.98139L27.3032 4.46838C27.4007 4.25463 27.4511 4.02202 27.4511 3.78659C27.4511 3.55116 27.4007 3.31854 27.3032 3.1048L25.8792 2.42301L25.504 2.6178L27.7169 9.43572H51.8947L54.1075 2.6178L53.8189 2.42301Z" fill="#EFCC36"/>
<path d="M29.7662 6.84491C30.1606 6.84491 30.3338 6.46506 30.3338 6.04624C30.3338 5.62743 30.1606 5.36445 29.7662 5.36445C29.3717 5.36445 29.1889 5.69561 29.1889 6.04624C29.1889 6.39688 29.3621 6.84491 29.7662 6.84491Z" fill="#EFCC36"/>
<path d="M27.1492 38.4508C26.7963 38.4682 26.4585 38.6016 26.1871 38.8307L25.6002 39.269H24.7055L20.1451 34.623C21.1911 34.5979 22.202 34.2363 23.0314 33.5906C19.183 31.9153 18.9328 27.9415 15.9407 26.237C14.9579 26.4494 14.0699 26.9792 13.4103 27.7467C13.5394 27.8243 13.6468 27.9338 13.7226 28.065C13.7983 28.1962 13.8398 28.3447 13.8433 28.4967C13.8391 28.6386 13.8043 28.7779 13.7413 28.9049C13.6784 29.0318 13.5888 29.1432 13.4788 29.2314C13.3688 29.3195 13.2411 29.3823 13.1046 29.4152C12.9681 29.4481 12.8262 29.4504 12.6887 29.4219C12.5778 29.1093 12.5193 28.7801 12.5155 28.448C12.5096 28.1076 12.5885 27.7713 12.7449 27.47C12.9013 27.1687 13.1301 26.9121 13.4103 26.724C14.5648 25.8766 16.6045 25.3896 17.9803 23.4027C17.3228 23.1228 16.7402 22.6891 16.2803 22.1372C15.8204 21.5852 15.4963 20.9308 15.3345 20.2275C14.7127 20.5275 14.0318 20.6807 13.343 20.6755C12.5512 20.6675 11.7716 20.4776 11.0628 20.1204C10.8585 21.6808 10.3482 23.1842 9.56187 24.5423C8.11871 27.0941 6.18487 28.0291 4.5589 28.0291C2.93294 28.0291 1.67257 27.2207 1.67257 26.0812C1.67257 24.9416 2.53847 23.9384 4.75133 23.1495C7.5222 22.1755 8.59976 21.3573 8.59976 19.8282C8.60438 19.2499 8.38305 18.6933 7.98401 18.2795C8.15071 17.9819 8.24318 17.6475 8.2534 17.3055C8.23655 16.6868 7.98098 16.0994 7.54144 15.6692L5.33821 13.4875C5.18267 13.6581 4.99362 13.7938 4.7832 13.8861C4.57278 13.9783 4.34563 14.025 4.11633 14.0232C3.89359 14.0219 3.67331 13.976 3.46824 13.8879C3.26318 13.7998 3.07741 13.6715 2.9217 13.5102C2.766 13.349 2.64345 13.158 2.56115 12.9485C2.47885 12.739 2.43844 12.515 2.44226 12.2895C2.00675 12.4338 1.62771 12.7143 1.35972 13.0906C1.09173 13.467 0.948619 13.9197 0.950992 14.3836C0.948006 14.6717 1.00273 14.9575 1.11187 15.2237C1.22101 15.4899 1.38229 15.7309 1.58598 15.9322L2.40378 16.7211V18.2795C2.60901 18.184 2.83212 18.1342 3.05801 18.1334C3.60663 18.1713 4.11831 18.4268 4.48194 18.8444C4.68386 19.064 4.92798 19.2395 5.19931 19.3601C5.47065 19.4807 5.76347 19.5438 6.05979 19.5457C6.34539 19.5436 6.62733 19.4806 6.88721 19.3606C7.05333 19.5403 7.14614 19.7769 7.14698 20.023C7.14698 20.7535 5.87699 21.4158 4.03936 21.9709C1.46091 22.7696 0.0369873 24.1234 0.0369873 26.0714C0.0369873 28.2824 1.87462 29.5486 4.36648 29.5486C4.88053 29.5542 5.39361 29.502 5.89623 29.3927L6.52161 32.7238H1.4128C1.63652 33.0968 1.75622 33.5243 1.75916 33.9607C1.62908 34.9267 1.12776 35.8017 0.364105 36.3957L4.84753 43.2136H8.09947C8.41394 43.2316 8.72427 43.1341 8.97347 42.9391C9.22266 42.7441 9.39401 42.4646 9.45604 42.152H9.79278L10.245 41.3728C10.0848 40.9957 9.81474 40.677 9.47089 40.4595C9.12704 40.2419 8.72578 40.1358 8.32075 40.1553C7.81083 40.1553 7.35864 40.9053 7.04115 41.4507C5.71344 40.2916 4.63587 39.1229 4.63587 37.6521C4.6191 37.3152 4.67426 36.9786 4.79761 36.6652C4.92095 36.3518 5.10957 36.069 5.35062 35.8361C5.59167 35.6031 5.87949 35.4255 6.19446 35.3154C6.50944 35.2052 6.84416 35.1651 7.17584 35.1977C8.23576 35.2449 9.25051 35.6456 10.0622 36.3372L13.4103 33.1718L12.7946 30.1914C15.0363 30.6005 16.643 31.4673 16.643 33.0354C16.6341 33.429 16.5271 33.8139 16.332 34.1544C16.1369 34.495 15.86 34.7801 15.527 34.9834L23.3008 41.1487H28.881L29.0061 39.7072L28.044 38.8599C27.8072 38.6144 27.4877 38.4683 27.1492 38.4508Z" fill="#D32939"/>
<path d="M77.8139 33.9218C77.8135 33.4862 77.9299 33.0587 78.1507 32.6848H73.0611L73.6961 29.3538C74.1953 29.4639 74.7053 29.5162 75.2162 29.5096C77.7081 29.5096 79.5457 28.2434 79.5457 26.0325C79.5457 24.0845 78.1314 22.7696 75.553 21.9709C73.7057 21.406 72.4454 20.7437 72.4454 20.023C72.4462 19.7769 72.539 19.5403 72.7051 19.3606C72.9647 19.4814 73.2468 19.5445 73.5325 19.5457C73.8272 19.5425 74.1182 19.4787 74.3878 19.3581C74.6574 19.2376 74.9 19.0628 75.1008 18.8444C75.4644 18.4268 75.9761 18.1713 76.5247 18.1334C76.7537 18.134 76.98 18.1838 77.1885 18.2795V16.7211L77.9967 15.9322C78.2004 15.7309 78.3617 15.4899 78.4708 15.2237C78.58 14.9575 78.6347 14.6717 78.6317 14.3836C78.6341 13.9197 78.491 13.467 78.223 13.0906C77.955 12.7143 77.576 12.4338 77.1404 12.2895C77.1443 12.515 77.1039 12.739 77.0216 12.9485C76.9393 13.158 76.8167 13.349 76.661 13.5102C76.5053 13.6715 76.3195 13.7998 76.1145 13.8879C75.9094 13.976 75.6891 14.0219 75.4664 14.0232C75.2371 14.025 75.0099 13.9783 74.7995 13.8861C74.5891 13.7938 74.4 13.6581 74.2445 13.4875L72.0413 15.6692C71.6044 16.1004 71.3522 16.688 71.3389 17.3055C71.3458 17.6468 71.435 17.9811 71.5987 18.2795C71.195 18.6989 70.9704 19.2621 70.9733 19.8476C70.9733 21.3768 72.0798 22.2047 74.8218 23.1689C77.0154 23.9384 77.9679 24.7273 77.9679 26.0325C77.9679 27.3376 76.7941 27.9804 75.0815 27.9804C73.369 27.9804 71.5313 27.0064 70.0786 24.4936C69.2921 23.141 68.7756 21.6452 68.5584 20.0911C67.8496 20.4484 67.07 20.6382 66.2782 20.6463C65.5924 20.6527 64.9143 20.4994 64.2963 20.1983C64.1248 20.902 63.7914 21.5548 63.3232 22.1032C62.855 22.6516 62.2654 23.0802 61.6024 23.354C62.9782 25.302 65.0275 25.8279 66.1724 26.6753C66.4603 26.8534 66.6994 27.1019 66.8675 27.3981C67.0357 27.6943 67.1275 28.0285 67.1345 28.37C67.1275 28.7027 67.0658 29.0319 66.9517 29.344C66.8143 29.3725 66.6723 29.3702 66.5359 29.3373C66.3994 29.3043 66.2717 29.2416 66.1617 29.1534C66.0517 29.0653 65.9621 28.9539 65.8991 28.8269C65.8361 28.7 65.8013 28.5607 65.7972 28.4187C65.8006 28.2668 65.8421 28.1183 65.9179 27.9871C65.9936 27.8559 66.1011 27.7463 66.2301 27.6688C65.568 26.8995 64.6764 26.3695 63.6902 26.1591C60.7076 27.8636 60.4286 31.8179 56.6283 33.5127C57.4583 34.1572 58.4688 34.5187 59.5146 34.5451L54.9253 39.191H54.0306L53.4437 38.7527C53.1723 38.5236 52.8345 38.3903 52.4816 38.3729C52.301 38.3754 52.1228 38.4146 51.9575 38.4882C51.7922 38.5618 51.6433 38.6684 51.5195 38.8014L50.5574 39.6488L50.6921 41.1H56.2723L64.0461 34.9347C63.7149 34.7294 63.4394 34.4438 63.2446 34.1037C63.0497 33.7636 62.9417 33.3797 62.9301 32.9867C62.9301 31.4186 64.5272 30.5518 66.7785 30.1427L66.1724 33.1231L69.482 36.2886C70.2937 35.5969 71.3085 35.1962 72.3684 35.149C72.71 35.1049 73.057 35.1381 73.3844 35.2462C73.7118 35.3542 74.0114 35.5344 74.2618 35.7739C74.5121 36.0133 74.7068 36.3059 74.8319 36.6307C74.957 36.9555 75.0094 37.3044 74.9853 37.6521C74.9853 39.1229 73.9462 40.2916 72.5416 41.3825C72.2625 40.8371 71.7622 40.0871 71.2619 40.0871C70.8569 40.0676 70.4557 40.1737 70.1118 40.3913C69.768 40.6088 69.4979 40.9275 69.3377 41.3046L69.7899 42.0838H70.1267C70.1887 42.3964 70.36 42.6759 70.6092 42.8709C70.8584 43.0659 71.1688 43.1634 71.4832 43.1454H74.7352L79.2282 36.3275C78.4607 35.7469 77.952 34.8816 77.8139 33.9218Z" fill="#D32939"/>
<path d="M56.1761 22.1755C55.9259 22.737 55.7512 23.3299 55.6565 23.9384C55.5141 24.8111 55.1858 25.642 54.6944 26.3734L54.3481 26.8993L53.8189 26.5974C53.5717 26.5899 53.3281 26.6585 53.1202 26.7941C52.9124 26.9298 52.7501 27.1261 52.6548 27.3571C52.5673 27.5999 52.5408 27.861 52.5778 28.1168V28.4479C52.3833 28.5172 52.2114 28.6393 52.0808 28.8007C51.9501 28.9622 51.8658 29.1568 51.837 29.3635C51.8266 29.4769 51.8266 29.591 51.837 29.7044L52.1256 30.3959L52.1833 30.5323H52.8568C52.837 30.7123 52.8534 30.8945 52.9049 31.068C52.9517 31.2965 53.078 31.5004 53.2609 31.6426L53.4341 31.779L53.6169 31.8666C53.7499 31.9295 53.8936 31.9659 54.0402 31.9738C54.4341 31.9196 54.8081 31.7655 55.1274 31.5257C55.174 31.6061 55.2421 31.6716 55.3237 31.7146C55.4054 31.7577 55.4974 31.7766 55.5892 31.7692C55.7902 31.7612 55.9802 31.6738 56.1183 31.5257L56.2819 31.3699L56.4936 31.1654C56.5909 31.0765 56.6692 30.9685 56.7238 30.8479C56.7784 30.7273 56.8081 30.5967 56.8111 30.4641C56.7681 30.261 56.6833 30.0692 56.5623 29.9014C56.4413 29.7336 56.2868 29.5935 56.1087 29.4901L56.253 29.2661L57.1382 29.8992C57.5423 29.0129 57.1382 28.2434 57.1382 27.5324C57.1382 26.8214 57.677 26.2857 58.7257 25.3604C59.3393 24.8634 59.8274 24.2257 60.1496 23.5001C60.2022 22.6098 59.9803 21.7249 59.5146 20.9677C59.1121 21.4483 58.5915 21.8131 58.0054 22.0251C57.4193 22.2371 56.7883 22.289 56.1761 22.1755Z" fill="#D32939"/>
<path d="M46.3241 28.9934C47.7384 28.9934 48.8833 28.2337 48.8833 26.8993C48.8833 25.7208 48.0751 24.9513 46.5165 24.4546C45.4101 24.1137 44.5923 23.7339 44.5923 23.2371C44.6018 23.0988 44.6638 22.9697 44.7655 22.8767C44.9239 22.9447 45.0937 22.9811 45.2658 22.9839C45.4463 22.9873 45.6255 22.9518 45.7914 22.8795C45.9573 22.8073 46.1061 22.7001 46.2279 22.5651C46.3336 22.4441 46.4621 22.3456 46.6058 22.2754C46.7495 22.2051 46.9056 22.1646 47.0649 22.156C47.2005 22.1611 47.3341 22.1908 47.4594 22.2437V21.2697L47.9597 20.7632C48.1143 20.6018 48.2261 20.4035 48.2847 20.1866C48.3434 19.9698 48.347 19.7415 48.2951 19.5228C48.2433 19.3042 48.1378 19.1024 47.9883 18.9361C47.8388 18.7698 47.6503 18.6445 47.4401 18.5717C47.4454 18.8381 47.3479 19.096 47.1682 19.2906C46.9885 19.4853 46.7409 19.6013 46.478 19.6139C46.2 19.6135 45.9336 19.5014 45.7372 19.3022L44.3806 20.7048C44.2517 20.8305 44.15 20.982 44.0821 21.1497C44.0142 21.3174 43.9815 21.4976 43.9861 21.6787C43.9919 21.8795 44.0518 22.0749 44.1593 22.2437C43.9226 22.5113 43.7923 22.8584 43.7937 23.2176C43.7937 24.1332 44.448 24.5715 46.122 25.1656C47.4401 25.6234 47.9885 26.0325 47.9885 26.8798C47.9885 27.7272 47.2862 28.0194 46.2375 28.0194C45.5986 27.9856 44.981 27.7753 44.4518 27.4113C43.9226 27.0473 43.502 26.5435 43.2357 25.9545C42.7481 25.1945 42.4388 24.3316 42.3313 23.4319C41.9436 23.6278 41.5191 23.7378 41.0861 23.7546C40.6531 23.7714 40.2216 23.6946 39.8202 23.5293C39.4577 24.273 38.867 24.8779 38.1365 25.2533C38.4348 25.9351 40.0607 26.7824 40.6284 27.1038C40.8552 27.2034 41.0505 27.3642 41.1931 27.5686C41.3356 27.773 41.4199 28.0132 41.4366 28.2629C41.4351 28.484 41.3717 28.7001 41.2538 28.8862C40.7823 28.8862 40.5707 28.6233 40.5707 28.3506C40.5736 28.2597 40.5978 28.1708 40.6413 28.0912C40.6848 28.0116 40.7463 27.9436 40.8208 27.8928C40.4952 27.5273 40.0754 27.2608 39.6086 27.1233C37.8479 28.0973 37.1455 30.4446 35.1155 31.4089C35.5973 31.8012 36.1909 32.0266 36.8088 32.0517L34.0668 34.8373H33.528L33.1817 34.5743C33.0298 34.4487 32.8467 34.3678 32.6525 34.3406C32.4674 34.3455 32.2886 34.4103 32.1426 34.5256L31.4883 35.11L31.2286 35.9866H34.9327L39.6086 32.2757C39.4113 32.1651 39.2456 32.0047 39.1276 31.8102C39.0096 31.6156 38.9433 31.3935 38.9351 31.1654C38.9351 30.2693 40.0126 29.5875 41.2634 29.2758L40.8785 31.1654L42.8028 33.016C43.3392 32.5495 44.0199 32.2876 44.727 32.2757C44.915 32.27 45.1021 32.3039 45.2765 32.3754C45.4509 32.4468 45.6087 32.5542 45.7399 32.6906C45.8711 32.8271 45.9728 32.9897 46.0386 33.1681C46.1044 33.3465 46.1328 33.5368 46.122 33.727C46.1061 34.226 45.9719 34.7139 45.7308 35.1495C45.4897 35.5851 45.1487 35.9557 44.7366 36.2301C44.5249 35.7723 44.2844 35.4412 43.9284 35.4412C43.5724 35.4412 42.9663 35.6944 42.8316 36.1717L43.101 36.6489H43.3031C43.3399 36.8379 43.4429 37.007 43.5932 37.1251C43.7435 37.2433 43.9309 37.3024 44.1208 37.2918H46.0451L48.7101 33.0939C48.4743 32.9147 48.2792 32.6863 48.1381 32.4241C47.997 32.162 47.9132 31.8722 47.8923 31.5745C47.8928 31.3138 47.9626 31.0581 48.0944 30.8342H45.0156L45.3812 28.8181C45.688 28.9121 46.0043 28.9709 46.3241 28.9934Z" fill="#D32939"/>
<path d="M23.118 18.9516C23.118 18.0555 23.9165 17.4224 23.9165 16.3997C23.9393 16.0016 23.8408 15.6059 23.6343 15.2663C23.4278 14.9266 23.1234 14.6593 22.762 14.5005C23.955 14.5005 24.8402 13.6823 24.8402 13.1661C23.0699 13.1661 22.2136 11.2181 20.0296 11.2181C18.394 11.2181 18.2305 12.046 17.1433 12.046C16.2582 12.046 16.2582 11.6077 14.9978 11.6174V11.3058C15.3539 11.1835 15.7334 11.1471 16.1059 11.1995C16.4783 11.252 16.8336 11.3917 17.1433 11.6077C17.2855 11.5224 17.4036 11.4013 17.4862 11.2563C17.5688 11.1113 17.613 10.9472 17.6147 10.7798C17.6082 10.5673 17.5333 10.3628 17.4012 10.1975C17.2692 10.0322 17.0874 9.91519 16.8835 9.86427C16.8823 9.67584 16.8271 9.4918 16.7247 9.33449C16.6222 9.17717 16.4769 9.05331 16.3063 8.97794L16.1138 9.73765C14.9497 9.78635 14.7092 10.2052 14.0068 10.2052C13.4488 10.2052 13.1986 9.80583 13.0928 9.23118C13.0443 8.94164 13.0218 8.64824 13.0255 8.35459C13.0255 8.24745 13.0255 8.16953 13.0255 8.07213C13.0255 6.24104 13.5835 5.62743 14.2954 5.62743C15.0074 5.62743 15.2576 6.09494 16.3255 6.34818L16.4217 7.16633C16.5898 7.13103 16.7466 7.05372 16.8776 6.94145C17.0087 6.82917 17.1099 6.6855 17.1722 6.52349C18.0573 6.65985 18.4614 6.3774 18.4614 5.36445V4.39046L18.673 4.12748V3.01714L16.9124 2.46197L16.5757 2.58858L16.2966 2.11133L14.1511 1.8094L13.6797 2.19899H10.6106C10.1007 2.19899 9.86975 2.37431 9.86975 2.65676C9.94186 3.04529 10.1546 3.3926 10.4663 3.63075C8.32075 4.02035 7.63765 5.26705 7.63765 6.19234C7.63765 7.68254 8.05136 7.66306 8.05136 9.46494C8.06444 9.89999 7.98534 10.3328 7.81938 10.7344C7.65343 11.1359 7.40447 11.4968 7.08925 11.7928L9.75429 14.481C10.1095 14.7747 10.402 15.1387 10.6137 15.5506C10.8254 15.9626 10.952 16.4139 10.9858 16.877C10.9748 17.2076 10.8935 17.5318 10.7474 17.8277C10.6012 18.1235 10.3938 18.384 10.1391 18.5912C10.5409 19.0422 11.0323 19.4021 11.5811 19.6472C12.13 19.8922 12.7239 20.017 13.3237 20.0132C14.2319 20.0237 15.1133 19.7021 15.806 19.1074C16.0272 21.4255 17.0182 22.2242 18.7981 23.0034C18.7917 22.4169 18.9085 21.8358 19.1407 21.2984C19.3729 20.7611 19.7153 20.2799 20.1451 19.8866C20.3999 20.3715 20.7793 20.7777 21.2433 21.0623C21.7074 21.3469 22.2387 21.4993 22.7813 21.5034C23.1704 21.5474 23.5629 21.4581 23.896 21.2498C24.2291 21.0415 24.4836 20.7261 24.6189 20.3541C24.4265 20.375 24.232 20.354 24.0483 20.2926C23.8647 20.2311 23.6961 20.1306 23.5539 19.9978C23.4118 19.8649 23.2994 19.7029 23.2242 19.5224C23.149 19.342 23.1128 19.1473 23.118 18.9516ZM15.8541 3.28986C15.8195 3.36198 15.7644 3.42192 15.6957 3.46187C15.6271 3.50182 15.5482 3.51994 15.4692 3.51387C15.3953 3.65411 15.284 3.77049 15.1479 3.84971C15.0118 3.92894 14.8564 3.96782 14.6995 3.96191C14.5271 3.95833 14.3584 3.91098 14.2088 3.82419C14.0592 3.73739 13.9335 3.61395 13.8433 3.46517C14.4674 3.15102 15.1861 3.08836 15.8541 3.28986Z" fill="#D32939"/>
<path d="M25.9177 6.66959V6.01702C25.9313 5.84453 25.8992 5.6715 25.8248 5.51572C25.7504 5.35995 25.6364 5.22705 25.4944 5.13069C25.3956 5.07112 25.2823 5.04075 25.1673 5.04303H24.9556C24.9749 4.9297 24.9583 4.8131 24.9082 4.7099C24.8581 4.60669 24.777 4.52216 24.6766 4.46838C24.5359 4.37642 24.3727 4.32584 24.2052 4.32228C23.9657 4.30938 23.728 4.3717 23.5248 4.50071C23.3216 4.62972 23.1627 4.81913 23.0699 5.04303C22.685 5.04303 22.2521 5.53977 22.2521 6.3287C22.2521 7.30268 23.5221 7.60462 23.0988 8.34485L21.6075 10.9941C22.9833 11.4421 23.3585 12.1337 24.4938 12.4551L25.3212 9.10456C25.5233 8.28641 26.5431 8.19875 26.5527 7.40982C26.552 7.26533 26.512 7.12383 26.4373 7.00075C26.4184 6.95976 26.3959 6.92064 26.3699 6.88387L25.9177 6.66959Z" fill="#D32939"/>
<path d="M36.7415 23.9773C36.4459 24.2789 36.0668 24.4823 35.6544 24.5605C35.242 24.6388 34.8158 24.5883 34.4324 24.4156L33.3645 26.6656L33.047 26.4026C32.9477 26.3915 32.8472 26.4019 32.7522 26.4333C32.6572 26.4646 32.5699 26.5161 32.4961 26.5844C32.4224 26.6526 32.3638 26.7359 32.3244 26.8289C32.285 26.9218 32.2657 27.0222 32.2677 27.1233V27.3084C32.1611 27.3375 32.0632 27.3928 31.9827 27.4692C31.9022 27.5456 31.8414 27.6409 31.8058 27.7467C31.8006 27.805 31.8006 27.8637 31.8058 27.922L31.8924 28.2726V28.3895H32.2388C32.199 28.4773 32.1833 28.5743 32.1935 28.6703C32.2036 28.7663 32.2392 28.8577 32.2965 28.9349L32.6429 29.3051C32.7696 29.3581 32.9109 29.3637 33.0414 29.3208C33.1718 29.278 33.2829 29.1895 33.3548 29.0713C33.4607 29.2856 33.5857 29.3148 33.7108 29.2661L34.163 29.0518C34.2282 28.9536 34.2648 28.8389 34.2688 28.7207C34.2325 28.5084 34.1193 28.3174 33.9513 28.185L34.0476 28.0778L34.2977 28.3116C34.5382 27.9025 34.2977 27.3376 34.6152 27.1038L37.0974 25.0974C37.0468 24.7053 36.9262 24.3258 36.7415 23.9773Z" fill="#D32939"/>
<path d="M32.0175 17.4127L31.9309 17.5296L31.8347 17.6659C31.7957 17.7728 31.7957 17.8902 31.8347 17.9971C31.9037 18.1082 32.0094 18.1911 32.133 18.2308C32.3542 18.3087 32.6236 18.3282 32.8257 18.4061C32.9101 18.4406 32.9857 18.4939 33.047 18.562L34.086 19.984C34.137 19.6093 34.2718 19.2512 34.4802 18.9373C34.6887 18.6233 34.9652 18.3617 35.2887 18.1724L34.1341 17.7731C33.993 17.7259 33.8747 17.6263 33.8033 17.4943C33.7319 17.3624 33.7126 17.2079 33.7493 17.062C33.8186 16.9248 33.8547 16.773 33.8547 16.6189C33.8547 16.4648 33.8186 16.3129 33.7493 16.1757C33.6571 15.9906 33.4989 15.8479 33.3067 15.7764C33.2549 15.7544 33.1993 15.7431 33.1432 15.7431C33.087 15.7431 33.0314 15.7544 32.9796 15.7764C32.9208 15.7125 32.8491 15.6621 32.7695 15.6285C32.6898 15.5949 32.604 15.5789 32.5178 15.5816C32.3916 15.5783 32.2664 15.605 32.1522 15.6595C32.0504 15.7108 31.9664 15.7923 31.9117 15.8933C31.8878 15.9434 31.8754 15.9983 31.8754 16.054C31.8754 16.1096 31.8878 16.1645 31.9117 16.2147L31.7289 16.3121V16.39C31.6767 16.4871 31.6493 16.5959 31.6493 16.7065C31.6493 16.8171 31.6767 16.9259 31.7289 17.0231L32.0175 17.4127Z" fill="#D32939"/>
<path d="M27.688 29.383C27.6573 29.1756 27.5712 28.9806 27.4389 28.8193C27.3066 28.6579 27.1333 28.5362 26.9376 28.4674V28.1363C26.9794 27.8806 26.9528 27.6183 26.8606 27.3766C26.7653 27.1455 26.603 26.9492 26.3951 26.8136C26.1873 26.6779 25.9436 26.6093 25.6964 26.6169L25.225 26.9188L24.9556 26.3734C24.441 25.6486 24.0926 24.8167 23.9358 23.9384C23.835 23.329 23.6538 22.736 23.397 22.1755C22.7966 22.2688 22.1825 22.205 21.6133 21.9902C21.0441 21.7754 20.5386 21.4167 20.1451 20.9482C19.684 21.7074 19.4625 22.5908 19.5101 23.4806C19.8323 24.2063 20.3203 24.8439 20.934 25.3409C21.9827 26.3149 22.5215 26.7922 22.5215 27.5129C22.5215 28.2337 22.0789 28.9934 22.5215 29.8797L23.4066 29.2466L23.5509 29.4706C23.3751 29.5755 23.2227 29.7162 23.1034 29.8839C22.9842 30.0516 22.9007 30.2425 22.8582 30.4446C22.86 30.5765 22.8881 30.7067 22.9411 30.8272C22.994 30.9478 23.0705 31.0562 23.1661 31.1459L23.3874 31.3504L23.5413 31.5063C23.6109 31.5807 23.6943 31.6406 23.7868 31.6824C23.8792 31.7241 23.9789 31.7471 24.0801 31.7498C24.1705 31.7564 24.2609 31.7371 24.3409 31.694C24.4209 31.6509 24.4872 31.5859 24.5323 31.5063C24.8524 31.7446 25.226 31.8985 25.6195 31.9543C25.8322 31.9304 26.0382 31.8642 26.2256 31.7595L26.4084 31.6231C26.5877 31.4794 26.7105 31.2756 26.7548 31.0485C26.8052 30.8748 26.8247 30.6934 26.8125 30.5128H27.4571L27.5148 30.3764L27.7938 29.6849C27.7671 29.5814 27.7317 29.4804 27.688 29.383Z" fill="#D32939"/>
<path d="M44.6885 18.2795C44.4828 18.0915 44.3215 17.8591 44.2166 17.5995C44.1117 17.3398 44.0658 17.0596 44.0824 16.7796C44.0824 16.127 44.3518 15.5329 44.3518 14.8316C44.3518 14.1303 43.938 13.6044 42.6488 13.3706C42.8356 13.2236 42.9623 13.0121 43.0048 12.7765C43.0048 12.5914 42.8605 12.5233 42.543 12.5233H40.7438L40.4648 12.2895L39.1756 12.4356L39.012 12.7181L38.81 12.6401L37.7517 12.981V13.6628L37.8768 13.8187V14.3836C37.8768 14.9582 38.1269 15.1628 38.6561 15.0751C38.7619 15.2894 38.9255 15.4647 39.1083 15.4647L39.1756 14.968C39.522 14.8998 40.1377 14.5394 40.3782 14.5394C40.8208 14.5394 41.1383 14.8706 41.1575 16.1075V16.2049C41.1577 16.3934 41.1285 16.5808 41.071 16.7601C41.0511 16.8842 40.9895 16.9976 40.8966 17.081C40.8037 17.1644 40.6851 17.2128 40.561 17.2179C40.0319 17.2179 39.926 16.9354 39.3007 16.9354L39.1852 16.4776C39.0815 16.5221 38.9932 16.5967 38.9315 16.6921C38.8698 16.7875 38.8376 16.8993 38.8389 17.0133C38.7172 17.0375 38.6073 17.1026 38.5269 17.1981C38.4465 17.2936 38.4005 17.4139 38.3963 17.5393C38.3978 17.6553 38.4298 17.7687 38.4889 17.868C38.5481 17.9673 38.6324 18.0488 38.733 18.1042C38.9887 17.9709 39.2696 17.895 39.5569 17.8815C39.8441 17.8681 40.1308 17.9175 40.3975 18.0263V18.4159C39.8528 18.3725 39.3047 18.4119 38.7715 18.5328C38.1846 18.5328 37.8768 18.2503 36.982 18.2503C36.4238 18.2043 35.8703 18.3831 35.4416 18.7478C35.0128 19.1125 34.7435 19.6337 34.6922 20.1983C34.6922 21.0456 35.077 21.2697 35.077 22.3021C35.077 22.5604 34.9756 22.8081 34.7952 22.9908C34.6148 23.1735 34.3701 23.2761 34.1149 23.2761C34.2146 23.4991 34.3755 23.6884 34.5785 23.8214C34.7815 23.9543 35.018 24.0254 35.2598 24.026C35.5808 24.0092 35.8924 23.9112 36.1664 23.7411C36.4403 23.571 36.6678 23.3341 36.8281 23.0521C37.2802 23.5446 37.5694 24.1677 37.6555 24.8345C38.1229 24.668 38.5402 24.3826 38.8671 24.0056C39.194 23.6286 39.4195 23.1728 39.522 22.6819C39.9368 23.0103 40.4482 23.1886 40.9747 23.1884C41.6927 23.1514 42.3744 22.8581 42.899 22.3605C42.7214 22.2737 42.5744 22.1336 42.4781 21.9594C42.3817 21.7852 42.3405 21.5852 42.3602 21.3865C42.3791 21.0921 42.4572 20.8046 42.5895 20.5417C42.7218 20.2788 42.9057 20.046 43.1299 19.8574L44.6885 18.2795ZM40.0992 13.6044C39.9981 13.6174 39.8957 13.5931 39.8108 13.5359C39.726 13.4786 39.6644 13.3923 39.6374 13.2927C39.5909 13.2965 39.5444 13.2866 39.5034 13.2641C39.4624 13.2416 39.4287 13.2076 39.4065 13.1661C39.8089 13.0491 40.2396 13.0837 40.6188 13.2635C40.5713 13.363 40.4977 13.4474 40.4061 13.5075C40.3145 13.5676 40.2083 13.6011 40.0992 13.6044Z" fill="#D32939"/>
<path d="M72.4935 11.7733C72.1772 11.4781 71.9276 11.1173 71.7616 10.7156C71.5955 10.3139 71.517 9.88067 71.5313 9.44546C71.5313 7.64358 71.945 7.66306 71.945 6.17286C71.945 5.24757 71.262 4.00087 69.1164 3.61127C69.4281 3.37312 69.6408 3.02581 69.713 2.63728C69.713 2.35483 69.482 2.17951 68.9721 2.17951H65.9415L65.4604 1.78992L63.3149 2.09185L63.0648 2.56911L62.7184 2.44249L60.9578 2.99766V4.1567L61.1694 4.41968V5.39367C61.1694 6.36766 61.5735 6.68907 62.4587 6.55271C62.5209 6.71472 62.6221 6.85839 62.7532 6.97067C62.8843 7.08294 63.041 7.16025 63.2091 7.19555L63.3149 6.3774C64.3733 6.12416 64.6811 5.65665 65.3354 5.65665C65.9896 5.65665 66.5572 6.27026 66.6053 8.11109C66.6103 8.20193 66.6103 8.29297 66.6053 8.38381C66.6095 8.67748 66.587 8.97092 66.538 9.2604C66.4322 9.85453 66.182 10.2344 65.5759 10.2344C64.8735 10.2344 64.6138 9.81557 63.4785 9.76687L63.2764 9.00716C63.1058 9.08253 62.9605 9.20639 62.858 9.36371C62.7556 9.52103 62.7004 9.70506 62.6992 9.89349C62.4971 9.94622 62.3174 10.064 62.1873 10.2292C62.0571 10.3943 61.9835 10.5979 61.9776 10.809C61.9793 10.9764 62.0236 11.1405 62.1061 11.2855C62.1887 11.4305 62.3068 11.5516 62.449 11.6369C62.7584 11.4202 63.1137 11.2801 63.4863 11.2276C63.8589 11.1752 64.2385 11.212 64.5945 11.335V11.6467C63.3245 11.6467 63.3342 12.0752 62.449 12.0752C61.333 12.0752 61.1598 11.2473 59.5627 11.2473C57.3306 11.2473 56.4743 13.1953 54.7522 13.1953C54.7522 13.7115 55.6277 14.5102 56.8207 14.5297C56.4593 14.6885 56.1549 14.9558 55.9484 15.2955C55.7419 15.6352 55.6434 16.0308 55.6662 16.4289C55.6662 17.4029 56.4647 18.0847 56.4647 18.9808C56.4713 19.1774 56.4362 19.3731 56.3616 19.5547C56.287 19.7363 56.1748 19.8996 56.0325 20.0335C55.8902 20.1674 55.7211 20.2688 55.5368 20.3309C55.3524 20.3929 55.157 20.4141 54.9638 20.3931C55.1023 20.7648 55.3589 21.0795 55.6933 21.2875C56.0277 21.4956 56.4209 21.5852 56.8111 21.5424C57.3534 21.5372 57.8843 21.3844 58.3482 21.0999C58.812 20.8154 59.1916 20.4098 59.4472 19.9256C59.8739 20.3209 60.2134 20.8027 60.4439 21.3397C60.6743 21.8767 60.7904 22.4569 60.7846 23.0423C62.5645 22.2534 63.5651 21.4547 63.7767 19.1464C64.4694 19.741 65.3508 20.0627 66.259 20.0522C66.859 20.0572 67.4533 19.933 68.0023 19.6878C68.5513 19.4427 69.0426 19.0821 69.4436 18.6302C69.1902 18.4224 68.9842 18.1617 68.8397 17.8658C68.6953 17.5699 68.6157 17.2459 68.6065 16.9159C68.6374 16.4532 68.7618 16.0018 68.972 15.5896C69.1822 15.1775 69.4736 14.8134 69.8284 14.5199L72.4935 11.7733ZM64.8639 3.98139C64.707 3.9873 64.5517 3.94842 64.4156 3.86919C64.2795 3.78997 64.1681 3.67359 64.0942 3.53335C64.0153 3.53942 63.9364 3.5213 63.8677 3.48135C63.7991 3.4414 63.7439 3.38146 63.7094 3.30933C64.3808 3.10918 65.1019 3.17175 65.7298 3.48465C65.6352 3.62996 65.5067 3.74949 65.3557 3.83272C65.2047 3.91594 65.0358 3.9603 64.8639 3.96191V3.98139Z" fill="#D32939"/>
<path d="M56.4262 8.34485C56.0029 7.60462 57.2729 7.32216 57.2729 6.3287C57.2729 5.53977 56.8399 5.04303 56.4551 5.04303C56.3623 4.81913 56.2034 4.62972 56.0002 4.50071C55.7969 4.3717 55.5593 4.30938 55.3198 4.32228C55.148 4.32638 54.981 4.38049 54.8387 4.47812C54.7419 4.53277 54.664 4.61635 54.6158 4.71745C54.5676 4.81855 54.5514 4.93225 54.5694 5.04303H54.3673C54.25 5.04654 54.135 5.07649 54.0306 5.13069C53.8921 5.22937 53.7819 5.36329 53.7109 5.51891C53.64 5.67453 53.6109 5.84635 53.6265 6.01702V6.66959L53.1647 6.88387C53.1387 6.92064 53.1162 6.95976 53.0973 7.00075C53.0295 7.12683 52.9901 7.26652 52.9819 7.40982C52.9819 8.19875 54.0113 8.28641 54.2134 9.10456L55.0408 12.4551C56.1376 12.1337 56.5032 11.4811 57.9271 10.9941L56.4262 8.34485Z" fill="#D32939"/>
<path d="M19.0194 45.5512L18.3171 43.6032H18.75L19.2696 45.0934L19.7795 43.6032H20.2124L19.5005 45.5512H19.0194Z" fill="#D32939"/>
<path d="M21.0014 45.5512H20.5973V43.6032H21.0014V45.5512Z" fill="#D32939"/>
<path d="M23.0314 44.1389C22.8847 44.0028 22.6916 43.9294 22.4926 43.9343C22.4123 43.9313 22.3322 43.9456 22.2576 43.9762C22.1831 44.0069 22.1159 44.0532 22.0604 44.1121C22.0049 44.1711 21.9624 44.2413 21.9358 44.3181C21.9091 44.3949 21.8989 44.4766 21.9057 44.5577C21.899 44.6393 21.9092 44.7214 21.9358 44.7987C21.9624 44.876 22.0047 44.9467 22.06 45.0064C22.1154 45.0661 22.1825 45.1134 22.257 45.1451C22.3315 45.1769 22.4118 45.1924 22.4926 45.1908C22.5655 45.2072 22.641 45.2072 22.7139 45.1908V44.6648H23.1084V45.4343C22.9132 45.5282 22.6991 45.5748 22.483 45.5706C22.3545 45.5793 22.2256 45.56 22.105 45.5141C21.9844 45.4682 21.8749 45.3967 21.7838 45.3045C21.6927 45.2123 21.6221 45.1014 21.5768 44.9793C21.5314 44.8573 21.5124 44.7268 21.5209 44.5967C21.5209 44.3383 21.6223 44.0906 21.8027 43.9079C21.9831 43.7253 22.2278 43.6227 22.483 43.6227C22.6777 43.6167 22.8704 43.6638 23.041 43.759L23.0314 44.1389Z" fill="#D32939"/>
<path d="M24.0993 45.5512H23.6953V43.6032H24.0993V45.5512Z" fill="#D32939"/>
<path d="M24.7343 43.6032H25.1384V45.1518H25.9177V45.5512H24.7343V43.6032Z" fill="#D32939"/>
<path d="M26.7933 45.1031L26.6489 45.5025H26.2256L26.9568 43.5545H27.4379L28.1691 45.5025H27.7361L27.5918 45.1031H26.7933ZM27.1973 43.9928L26.9087 44.772H27.4667L27.1973 43.9928Z" fill="#D32939"/>
<path d="M29.2274 45.5512H28.8041V43.9538H28.2268V43.6032H29.7662V43.9538H29.1889L29.2274 45.5512Z" fill="#D32939"/>
<path d="M31.4691 45.1518V45.5512H30.2568V43.6032H31.4499V43.9538H30.6513V44.3726H31.3921V44.7233H30.6513V45.1518H31.4691Z" fill="#D32939"/>
<path d="M33.6146 43.6032C33.8036 43.5915 33.9932 43.5915 34.1823 43.6032C34.8653 43.6032 35.2598 43.9538 35.2598 44.5772C35.2608 44.7155 35.2327 44.8525 35.1773 44.979C35.1219 45.1055 35.0405 45.2186 34.9385 45.3108C34.8366 45.4029 34.7164 45.472 34.586 45.5135C34.4556 45.5549 34.3179 45.5678 34.1823 45.5512C33.9934 45.5681 33.8035 45.5681 33.6146 45.5512V43.6032ZM34.0187 45.1616H34.2207C34.302 45.1712 34.3844 45.1633 34.4624 45.1383C34.5404 45.1133 34.6123 45.0718 34.6732 45.0165C34.7342 44.9613 34.7828 44.8935 34.8159 44.8178C34.8491 44.742 34.8659 44.66 34.8654 44.5772C34.8654 44.1876 34.6152 43.9928 34.2304 43.9928H34.0379L34.0187 45.1616Z" fill="#D32939"/>
<path d="M36.9435 45.1518V45.5512H35.7312V43.6032H36.9243V43.9538H36.1257V44.3726H36.8665V44.7233H36.1257V45.1518H36.9435Z" fill="#D32939"/>
<path d="M38.2905 43.6032C38.4807 43.6032 38.6668 43.6603 38.825 43.7673C38.9832 43.8744 39.1065 44.0265 39.1793 44.2045C39.2522 44.3824 39.2712 44.5783 39.2341 44.7672C39.197 44.9561 39.1053 45.1297 38.9708 45.2659C38.8362 45.4021 38.6648 45.4949 38.4782 45.5325C38.2915 45.57 38.0981 45.5507 37.9223 45.477C37.7465 45.4033 37.5962 45.2785 37.4905 45.1183C37.3848 44.9581 37.3284 44.7698 37.3284 44.5772C37.3284 44.3189 37.4297 44.0711 37.6101 43.8885C37.7906 43.7058 38.0353 43.6032 38.2905 43.6032ZM38.2905 43.9636C38.1669 43.9518 38.0427 43.9781 37.9341 44.039C37.8256 44.1 37.7377 44.1927 37.6821 44.3051C37.6266 44.4175 37.6058 44.5442 37.6227 44.6687C37.6395 44.7932 37.6931 44.9097 37.7765 45.0028C37.8598 45.0959 37.969 45.1613 38.0898 45.1905C38.2105 45.2197 38.3372 45.2112 38.4531 45.1663C38.569 45.1213 38.6688 45.0419 38.7393 44.9385C38.8099 44.8351 38.8479 44.7126 38.8485 44.5869C38.8594 44.506 38.8532 44.4236 38.8302 44.3454C38.8073 44.2671 38.7681 44.1946 38.7153 44.1329C38.6625 44.0711 38.5973 44.0215 38.524 43.9872C38.4508 43.953 38.3711 43.935 38.2905 43.9343V43.9636Z" fill="#D32939"/>
<path d="M42.4179 44.1292C42.2796 43.9992 42.0966 43.9293 41.908 43.9343C41.8246 43.9277 41.7408 43.94 41.6628 43.9706C41.5847 44.0011 41.5145 44.049 41.4572 44.1107C41.3999 44.1724 41.3571 44.2464 41.3319 44.3271C41.3067 44.4079 41.2997 44.4933 41.3115 44.5772C41.3061 44.6567 41.3172 44.7364 41.3439 44.8114C41.3706 44.8863 41.4125 44.9549 41.4668 45.0126C41.521 45.0703 41.5866 45.1159 41.6592 45.1466C41.7319 45.1773 41.81 45.1923 41.8887 45.1908C42.0824 45.1913 42.2699 45.1223 42.4179 44.996V45.4148C42.2527 45.5148 42.0617 45.5623 41.8695 45.5512C41.6143 45.5512 41.3696 45.4486 41.1892 45.2659C41.0088 45.0832 40.9074 44.8355 40.9074 44.5772C40.9074 44.3189 41.0088 44.0711 41.1892 43.8885C41.3696 43.7058 41.6143 43.6032 41.8695 43.6032C42.0478 43.5967 42.2243 43.6406 42.3794 43.7298L42.4179 44.1292Z" fill="#D32939"/>
<path d="M43.8515 43.6032C44.0417 43.6032 44.2278 43.6603 44.386 43.7673C44.5442 43.8744 44.6675 44.0265 44.7403 44.2045C44.8131 44.3824 44.8322 44.5783 44.7951 44.7672C44.758 44.9561 44.6663 45.1297 44.5318 45.2659C44.3972 45.4021 44.2258 45.4949 44.0392 45.5325C43.8525 45.57 43.6591 45.5507 43.4833 45.477C43.3075 45.4033 43.1572 45.2785 43.0515 45.1183C42.9458 44.9581 42.8893 44.7698 42.8893 44.5772C42.8893 44.3189 42.9907 44.0711 43.1711 43.8885C43.3516 43.7058 43.5963 43.6032 43.8515 43.6032ZM43.8515 43.9636C43.7026 43.9825 43.5657 44.0558 43.4665 44.1697C43.3673 44.2836 43.3125 44.4302 43.3125 44.5821C43.3125 44.7339 43.3673 44.8805 43.4665 44.9944C43.5657 45.1083 43.7026 45.1816 43.8515 45.2005C44.0003 45.1816 44.1372 45.1083 44.2364 44.9944C44.3356 44.8805 44.3904 44.7339 44.3904 44.5821C44.3904 44.4302 44.3356 44.2836 44.2364 44.1697C44.1372 44.0558 44.0003 43.9825 43.8515 43.9636Z" fill="#D32939"/>
<path d="M46.5742 44.8791V43.6032H46.9591V45.5512H46.5742L45.7083 44.285V45.5512H45.3235V43.6032H45.7276L46.5742 44.8791Z" fill="#D32939"/>
<path d="M47.6037 45.5512V43.6032H48.6909V43.9538H48.0462V44.4311H48.6716V44.7817H48.0462V45.5512H47.6037Z" fill="#D32939"/>
<path d="M49.6145 45.5512H49.2104V43.6032H49.6145V45.5512Z" fill="#D32939"/>
<path d="M50.2495 43.6032C50.4385 43.5915 50.6281 43.5915 50.8171 43.6032C51.5002 43.6032 51.8947 43.9538 51.8947 44.5772C51.8957 44.7155 51.8675 44.8525 51.8121 44.979C51.7567 45.1055 51.6753 45.2186 51.5734 45.3108C51.4714 45.4029 51.3512 45.472 51.2208 45.5135C51.0904 45.5549 50.9528 45.5678 50.8171 45.5512C50.6283 45.5681 50.4383 45.5681 50.2495 45.5512V43.6032ZM50.6536 45.1616H50.8556C50.9414 45.1695 51.0278 45.1579 51.1085 45.1276C51.1893 45.0973 51.2623 45.0491 51.3223 44.9865C51.3822 44.9239 51.4276 44.8486 51.4551 44.766C51.4825 44.6833 51.4914 44.5955 51.481 44.509C51.481 44.1194 51.2308 43.9246 50.846 43.9246H50.6536V45.1616Z" fill="#D32939"/>
<path d="M53.6553 45.1518V45.5512H52.4335V43.6032H53.6361V43.9538H52.8568V44.3726H53.5976V44.7233H52.8568V45.1518H53.6553Z" fill="#D32939"/>
<path d="M55.4834 44.8791V43.6032H55.8778V45.5512H55.493L54.6175 44.285V45.5512H54.2326V43.6032H54.6367L55.4834 44.8791Z" fill="#D32939"/>
<path d="M57.3017 45.5512H56.9073V43.9538H56.33V43.6032H57.879V43.9538H57.3017V45.5512Z" fill="#D32939"/>
<path d="M59.5916 45.1518V45.5512H58.3408V43.6032H59.5338V43.9538H58.7353V44.3726H59.4665V44.7233H58.7353V45.1518H59.5916Z" fill="#D32939"/>
<path d="M60.063 44.996C60.2064 45.1174 60.3861 45.186 60.5729 45.1908C60.7268 45.1908 60.8712 45.1324 60.8712 44.9765C60.8712 44.8207 60.7557 44.7817 60.5633 44.7233C60.1881 44.6161 60.0341 44.4506 60.0341 44.1291C60.0333 44.0492 60.0496 43.97 60.0819 43.897C60.1141 43.824 60.1616 43.759 60.2209 43.7062C60.2803 43.6535 60.3502 43.6144 60.4259 43.5916C60.5016 43.5688 60.5813 43.5627 60.6595 43.574C60.8332 43.5661 61.0048 43.6138 61.1502 43.7103V44.1097C61.0173 43.9897 60.8471 43.9208 60.6691 43.9149C60.5056 43.9149 60.419 43.9928 60.419 44.1097C60.419 44.2265 60.5248 44.3045 60.7461 44.3629C61.1213 44.47 61.2656 44.6454 61.2656 44.9668C61.2656 45.2882 60.9578 45.5317 60.5729 45.5317C60.3937 45.5352 60.2171 45.488 60.063 45.3953V44.996Z" fill="#D32939"/>
<path d="M49.6915 41.2267L49.576 41.1293C49.6337 40.2235 50.1725 39.8241 50.6536 39.8241L50.9326 40.9442C50.4999 40.9047 50.0658 41.0035 49.6915 41.2267Z" fill="#281F6B"/>
<path d="M51.5483 41.0708C51.9758 40.9626 52.419 40.933 52.8568 40.9832C52.7058 40.7667 52.6251 40.508 52.6259 40.2429C52.6165 40.1393 52.6165 40.0349 52.6259 39.9313C52.3587 39.953 52.1049 40.0585 51.8997 40.233C51.6945 40.4076 51.5481 40.6426 51.481 40.9052L51.5483 41.0708Z" fill="#281F6B"/>
<path d="M55.1562 41.2364H54.3866L54.3288 41.139C54.3932 40.9768 54.4996 40.8352 54.6367 40.7289C54.7738 40.6227 54.9367 40.5557 55.1081 40.5351C55.2094 40.6403 55.2707 40.7783 55.2813 40.9247C55.2802 41.0409 55.2355 41.1523 55.1562 41.2364Z" fill="#281F6B"/>
<path d="M69.2992 42.4344L69.1742 42.3273C69.2319 41.4409 69.7226 40.9053 70.3479 40.9053V42.1325C69.9758 42.1196 69.609 42.2252 69.2992 42.4344Z" fill="#281F6B"/>
<path d="M70.3961 42.9798L70.3191 42.824C70.387 42.5546 70.5387 42.3144 70.7518 42.139C70.9649 41.9636 71.2281 41.8623 71.5025 41.85C71.438 41.9769 71.4019 42.1165 71.3967 42.2591C71.4046 42.485 71.4746 42.7042 71.5987 42.8922C71.1961 42.8398 70.7871 42.8696 70.3961 42.9798Z" fill="#281F6B"/>
<path d="M73.8981 43.2233H73.1284V43.1259C73.1865 42.9614 73.2898 42.8172 73.4262 42.7102C73.5625 42.6032 73.7263 42.5379 73.8981 42.5221C74.0032 42.6246 74.0652 42.7641 74.0713 42.9117C74.0646 42.9727 74.0458 43.0318 74.016 43.0853C73.9863 43.1389 73.9462 43.1858 73.8981 43.2233Z" fill="#281F6B"/>
<path d="M45.1599 37.3405V37.2723C45.1956 37.1743 45.2579 37.0885 45.3396 37.0248C45.4213 36.9611 45.5191 36.9219 45.6217 36.9119C45.6872 36.9758 45.7252 37.0633 45.7276 37.1554C45.7235 37.2242 45.6964 37.2895 45.6506 37.3405H45.1599Z" fill="#281F6B"/>
<path d="M43.4859 37.1846C43.7242 37.1386 43.9691 37.1386 44.2074 37.1846C44.1304 37.0692 44.087 36.9342 44.0824 36.795C44.0835 36.7116 44.0998 36.629 44.1305 36.5515C43.9691 36.5676 43.8163 36.6331 43.6926 36.7392C43.5688 36.8454 43.48 36.9871 43.4377 37.1457L43.4859 37.1846Z" fill="#281F6B"/>
<path d="M42.822 36.8632L42.7547 36.7853C42.822 35.9087 43.3319 35.9184 43.5436 35.9574L43.4666 36.6489C43.2362 36.6584 43.013 36.7326 42.822 36.8632Z" fill="#281F6B"/>
<path d="M33.7878 36.0061V35.9379C33.8252 35.8392 33.8892 35.7531 33.9725 35.6894C34.0559 35.6257 34.1552 35.5869 34.2592 35.5775C34.3134 35.6354 34.3435 35.7121 34.3435 35.7918C34.3435 35.8715 34.3134 35.9482 34.2592 36.0061H33.7878Z" fill="#281F6B"/>
<path d="M32.0849 35.899C32.3256 35.8513 32.5713 35.835 32.8161 35.8503C32.7312 35.7632 32.6771 35.6502 32.6621 35.5288C32.6667 35.4134 32.711 35.3032 32.7872 35.2172C32.6161 35.2229 32.4512 35.2836 32.3163 35.3904C32.1814 35.4972 32.0835 35.6446 32.0367 35.8113L32.0849 35.899Z" fill="#281F6B"/>
<path d="M30.9688 35.9963L30.9015 35.9379C30.9688 35.3146 31.2863 35.1587 31.5653 35.1587L31.6904 35.8113C31.4365 35.7935 31.1837 35.8583 30.9688 35.9963Z" fill="#281F6B"/>
<path d="M29.8816 41.2169C29.5142 41.0031 29.0922 40.9048 28.6694 40.9345L28.9195 39.8144C29.391 39.8144 29.9394 40.2137 29.9875 41.1195L29.8816 41.2169Z" fill="#281F6B"/>
<path d="M28.0151 41.0611L28.0921 40.915C28.0224 40.6537 27.8753 40.4202 27.6706 40.2461C27.4659 40.072 27.2135 39.9655 26.9472 39.941C26.9566 40.0479 26.9566 40.1555 26.9472 40.2624C26.9521 40.5251 26.8709 40.7819 26.7163 40.9929C27.1498 40.9375 27.5896 40.9606 28.0151 41.0611Z" fill="#281F6B"/>
<path d="M24.4072 41.2267C24.3312 41.1452 24.2898 41.0368 24.2918 40.9247C24.2954 40.7738 24.3576 40.6303 24.4649 40.5254C24.6347 40.5476 24.7955 40.6153 24.9308 40.7215C25.0661 40.8276 25.171 40.9684 25.2346 41.1293L25.1865 41.2267H24.4072Z" fill="#281F6B"/>
<path d="M10.2642 42.4247C9.94175 42.2118 9.56165 42.1062 9.17703 42.1227V40.9053C9.79278 40.9053 10.2835 41.4312 10.3412 42.3273L10.2642 42.4247Z" fill="#281F6B"/>
<path d="M9.16741 42.9701C8.77554 42.8646 8.36753 42.8348 7.96477 42.8824C8.09559 42.6979 8.16623 42.4765 8.16681 42.2494C8.16155 42.1068 8.12542 41.9671 8.06098 41.8403C8.33492 41.8541 8.59738 41.956 8.81021 42.1311C9.02303 42.3063 9.17512 42.5456 9.24437 42.8143L9.16741 42.9701Z" fill="#281F6B"/>
<path d="M5.71343 43.2136C5.67362 43.1744 5.64203 43.1274 5.62055 43.0755C5.59906 43.0236 5.58811 42.9679 5.58836 42.9117C5.59201 42.7607 5.65422 42.6172 5.76154 42.5123C5.93337 42.5282 6.09714 42.5934 6.23352 42.7004C6.3699 42.8074 6.4732 42.9517 6.53123 43.1162V43.2136H5.71343Z" fill="#281F6B"/>
<path d="M51.8947 29.383C51.653 29.5171 51.447 29.7085 51.2945 29.941C51.142 30.1734 51.0475 30.4398 51.0192 30.7173L51.1923 30.844C51.4979 30.6685 51.8202 30.5249 52.1545 30.4154L51.8658 29.7239C51.865 29.6096 51.8747 29.4955 51.8947 29.383Z" fill="#281F6B"/>
<path d="M55.5892 31.7985C55.6873 31.9682 55.7679 32.1477 55.8297 32.3342L56.0414 32.2855C56.2033 32.0223 56.2899 31.7189 56.2915 31.4089L56.128 31.5647C55.9859 31.7115 55.7922 31.7955 55.5892 31.7985Z" fill="#281F6B"/>
<path d="M52.6644 27.3571C52.372 27.3787 52.091 27.4809 51.8519 27.6526C51.6128 27.8242 51.4246 28.0589 51.3078 28.3311L51.3944 28.4577C51.8017 28.3938 52.2149 28.3775 52.6259 28.409V28.0778C52.5828 27.8378 52.596 27.591 52.6644 27.3571Z" fill="#281F6B"/>
<path d="M53.2513 31.6621C53.0684 31.5199 52.9421 31.316 52.8953 31.0875C52.7486 31.3256 52.6708 31.6006 52.6708 31.8813C52.6708 32.1619 52.7486 32.4369 52.8953 32.6751H53.1069C53.2441 32.3731 53.4258 32.0939 53.6457 31.8472L53.4629 31.7595L53.2513 31.6621Z" fill="#281F6B"/>
<path d="M13.0158 9.25066C13.6533 8.62606 14.4961 8.26186 15.3826 8.22797C17.2491 8.22797 17.8071 8.9682 19.2311 8.9682C20.655 8.9682 21.3092 8.35459 21.3092 7.25398C21.3323 7.06322 21.3135 6.86965 21.2542 6.6871C21.1948 6.50454 21.0963 6.33752 20.9658 6.19795C20.8353 6.05838 20.676 5.94971 20.4992 5.87971C20.3223 5.80971 20.1325 5.7801 19.943 5.793C19.3754 5.793 18.7019 6.04624 18.7019 6.76699C18.6954 6.87909 18.711 6.99138 18.7478 7.09732C18.7845 7.20327 18.8417 7.30076 18.916 7.38414C18.9903 7.46751 19.0803 7.5351 19.1806 7.58299C19.2809 7.63087 19.3897 7.65809 19.5005 7.66306C19.741 7.66306 19.741 7.48774 19.9334 7.48774C19.9608 7.48592 19.9883 7.49038 20.0138 7.5008C20.0393 7.51122 20.0622 7.52733 20.0807 7.54792C20.0991 7.56851 20.1128 7.59306 20.1206 7.61974C20.1285 7.64642 20.1302 7.67455 20.1258 7.70202C20.1258 7.89682 19.8757 8.26693 19.1637 8.26693C18.1246 8.26693 17.0759 7.39034 15.4692 7.39034C14.5834 7.36007 13.7079 7.5901 12.9485 8.05265C12.9485 8.15005 12.9485 8.22797 12.9485 8.33511C12.9424 8.64176 12.965 8.9483 13.0158 9.25066Z" fill="#281F6B"/>
<path d="M26.6586 5.96832C26.4058 5.97191 26.1579 6.03883 25.937 6.16312V6.66959L26.3988 6.88387C26.4248 6.92063 26.4473 6.95976 26.4661 7.00075C26.6617 6.71833 26.9061 6.47413 27.1877 6.28V6.05598C27.0167 6.00002 26.8383 5.97047 26.6586 5.96832Z" fill="#281F6B"/>
<path d="M24.9556 5.04303L25.1577 5.04303C25.2727 5.04075 25.386 5.07112 25.4848 5.13069C25.7061 4.95537 25.9562 4.77032 26.1486 4.63396V4.45864C25.9237 4.3388 25.6714 4.28166 25.4174 4.29306C25.1612 4.29911 24.909 4.35881 24.6766 4.46838C24.777 4.52216 24.8581 4.60669 24.9082 4.7099C24.9583 4.8131 24.9749 4.9297 24.9556 5.04303Z" fill="#281F6B"/>
<path d="M33.0662 15.7959C33.118 15.7739 33.1736 15.7626 33.2298 15.7626C33.2859 15.7626 33.3415 15.7739 33.3933 15.7959C33.3014 15.6419 33.1691 15.5167 33.0112 15.4341C32.8532 15.3516 32.6758 15.315 32.4986 15.3283V15.4063C32.5511 15.4745 32.5993 15.5461 32.6429 15.6205C32.8012 15.6208 32.9531 15.6837 33.0662 15.7959Z" fill="#281F6B"/>
<path d="M31.9309 17.5296L32.0175 17.4127L31.8057 17.0815C31.617 17.1312 31.4507 17.2446 31.3343 17.4029V17.5101C31.5327 17.4812 31.7347 17.4878 31.9309 17.5296Z" fill="#281F6B"/>
<path d="M31.9117 18.3964V18.5133C32.0671 18.5831 32.238 18.6099 32.407 18.5911C32.576 18.5723 32.7371 18.5085 32.8738 18.4061C32.6717 18.3282 32.4024 18.3087 32.1811 18.2308C32.098 18.2965 32.0076 18.3521 31.9117 18.3964Z" fill="#281F6B"/>
<path d="M31.9983 16.2341C31.9744 16.184 31.962 16.1291 31.962 16.0734C31.962 16.0178 31.9744 15.9629 31.9983 15.9127C31.7586 15.8677 31.5111 15.9165 31.3055 16.0491V16.166C31.4701 16.2315 31.628 16.3131 31.777 16.4095V16.3315L31.9983 16.2341Z" fill="#281F6B"/>
<path d="M33.7108 29.3343C33.779 29.4781 33.8214 29.6332 33.8359 29.7921H33.961C34.1247 29.6045 34.2108 29.3604 34.2015 29.1103L33.7493 29.3245L33.7108 29.3343Z" fill="#281F6B"/>
<path d="M32.258 29.6265H32.3639C32.443 29.5166 32.5333 29.4154 32.6333 29.3245L32.2869 28.9934C32.1968 29.1927 32.1864 29.4196 32.258 29.6265Z" fill="#281F6B"/>
<path d="M31.7962 27.7467C31.5992 27.8691 31.4524 28.0593 31.3825 28.2824L31.4595 28.37L31.8443 28.2726L31.7577 27.922C31.7652 27.8625 31.7781 27.8038 31.7962 27.7467Z" fill="#281F6B"/>
<path d="M32.4312 26.6558C32.3007 26.668 32.1748 26.7104 32.063 26.7796C31.9513 26.8488 31.8567 26.9431 31.7866 27.0551V27.1331C31.937 27.1197 32.0884 27.1197 32.2388 27.1331V27.0746C32.2536 26.9168 32.3215 26.769 32.4312 26.6558Z" fill="#281F6B"/>
<path d="M26.9761 28.1168V28.4479C27.387 28.4163 27.8003 28.4326 28.2076 28.4967L28.2941 28.37C28.1773 28.0978 27.9891 27.8632 27.75 27.6915C27.5109 27.5198 27.2299 27.4177 26.9376 27.396C27.0101 27.6292 27.0234 27.8771 26.9761 28.1168Z" fill="#281F6B"/>
<path d="M23.4451 31.555L23.2912 31.3991C23.2852 31.7088 23.3688 32.0135 23.5317 32.2757L23.753 32.3244C23.8059 32.1346 23.887 31.9539 23.9935 31.7887C23.8914 31.7886 23.7903 31.7678 23.6961 31.7277C23.6019 31.6875 23.5166 31.6288 23.4451 31.555Z" fill="#281F6B"/>
<path d="M26.139 31.7985C26.0699 31.8458 25.9956 31.885 25.9177 31.9153C26.1409 32.1596 26.3229 32.4393 26.4565 32.7432H26.6778C26.8224 32.5043 26.8989 32.2296 26.8989 31.9494C26.8989 31.6693 26.8224 31.3945 26.6778 31.1556C26.6335 31.3828 26.5107 31.5865 26.3314 31.7303L26.139 31.7985Z" fill="#281F6B"/>
<path d="M28.5539 30.7173C28.5258 30.441 28.4324 30.1755 28.2817 29.9432C28.131 29.711 27.9274 29.5189 27.688 29.383C27.6982 29.4964 27.6982 29.6105 27.688 29.7239L27.409 30.4154C27.7419 30.5283 28.064 30.6718 28.3711 30.844L28.5539 30.7173Z" fill="#281F6B"/>
<path d="M41.1575 16.1465C40.6989 15.8788 40.1763 15.7441 39.647 15.7569C38.6849 15.7569 38.0403 16.2926 37.4149 16.2926C36.982 16.2926 36.828 16.0686 36.828 15.942C36.8267 15.9258 36.8287 15.9096 36.8339 15.8942C36.8391 15.8789 36.8474 15.8648 36.8583 15.8529C36.8691 15.841 36.8823 15.8315 36.897 15.8251C36.9117 15.8186 36.9275 15.8153 36.9435 15.8153C37.059 15.8153 37.059 15.9225 37.2129 15.9225C37.2786 15.9187 37.343 15.9019 37.4023 15.873C37.4616 15.844 37.5147 15.8035 37.5585 15.7537C37.6023 15.7039 37.6359 15.6459 37.6575 15.5829C37.6791 15.52 37.6882 15.4533 37.6843 15.3868C37.6843 14.929 37.2802 14.7732 36.9435 14.7732C36.8303 14.7686 36.7175 14.7885 36.6125 14.8315C36.5074 14.8744 36.4127 14.9395 36.3344 15.0224C36.2561 15.1053 36.1962 15.2042 36.1586 15.3123C36.1209 15.4205 36.1064 15.5355 36.1161 15.6498C36.1161 16.3413 36.7126 16.6919 37.3572 16.6919C38.4059 16.6919 38.5791 16.2439 39.7048 16.2439C40.2113 16.2566 40.6963 16.4537 41.071 16.7991C41.1285 16.6198 41.1577 16.4324 41.1575 16.2439V16.1465Z" fill="#281F6B"/>
<path d="M66.6053 8.10135C65.8499 7.6367 64.9778 7.40329 64.0942 7.4293C62.4875 7.4293 61.4292 8.31563 60.3901 8.31563C59.6685 8.31563 59.428 7.94552 59.428 7.74098C59.4301 7.69679 59.4477 7.65481 59.4777 7.62265C59.5077 7.59048 59.5481 7.57027 59.5916 7.56566C59.784 7.56566 59.784 7.74098 60.0341 7.74098C60.1445 7.73605 60.2529 7.70879 60.3527 7.66078C60.4525 7.61278 60.5419 7.54502 60.6154 7.46149C60.6889 7.37797 60.7452 7.28038 60.7809 7.17448C60.8165 7.06858 60.8309 6.95652 60.8231 6.84491C60.8231 6.0852 60.1496 5.87092 59.5916 5.87092C59.4023 5.85675 59.2122 5.88506 59.035 5.95384C58.8578 6.02261 58.6977 6.13016 58.5663 6.26879C58.4349 6.40742 58.3353 6.57372 58.2747 6.75581C58.2141 6.93789 58.194 7.13128 58.2157 7.32216C58.2157 8.42277 58.9854 9.04612 60.2939 9.04612C61.6024 9.04612 62.2951 8.30589 64.1423 8.30589C65.022 8.32833 65.8635 8.67461 66.5091 9.27988C66.5581 8.99039 66.5807 8.69696 66.5765 8.40329C66.5922 8.30334 66.6019 8.2025 66.6053 8.10135Z" fill="#281F6B"/>
<path d="M54.5694 5.04303C54.5514 4.93225 54.5676 4.81855 54.6158 4.71745C54.664 4.61635 54.7419 4.53277 54.8387 4.47812C54.6109 4.3643 54.3615 4.3012 54.1075 4.29306C53.8528 4.28511 53.6005 4.3456 53.3763 4.46838V4.6437C53.5784 4.78006 53.8189 4.95538 54.0306 5.13069C54.135 5.07649 54.25 5.04654 54.3673 5.04303H54.5694Z" fill="#281F6B"/>
<path d="M53.665 6.6696V6.16313C53.4378 6.04724 53.1881 5.98402 52.9338 5.97807C52.767 5.98398 52.6018 6.01349 52.4431 6.06573V6.28001C52.7225 6.47681 52.9665 6.72058 53.1647 7.00076C53.1835 6.95977 53.206 6.92064 53.232 6.88388L53.665 6.6696Z" fill="#281F6B"/>
</svg>
