<?xml version="1.0" encoding="UTF-8"?>
<svg id="Livello_2" data-name="Livello 2" xmlns="http://www.w3.org/2000/svg" viewBox="0 0 722.53 186.9">
  <defs>
    <style>
      .cls-1, .cls-2 {
        fill: #009fe3;
      }

      .cls-3 {
        fill: #fff;
      }

      .cls-2 {
        fill-rule: evenodd;
      }
    </style>
  </defs>
  <path class="cls-1" d="M83.41,0C37.61.2.61,36.87,0,82.67c.2,45.99,37.41,83.2,83.41,83.4,46.2.2,84.35-37.2,84.15-83.4C167.35,36.67,129.41-.2,83.41,0ZM91.51,17.3v103.33l-29.16-29.72c5.35,0,8.29-1.26,10.38-3.47,1.98-2.09,2.53-5.15,2.53-7.77V17.3c2.67-.33,5.38-.52,8.14-.52s5.31.18,8.1.52h.01ZM58.09,21.85v52.43H18.28c2.97-24.01,18.9-43.8,39.8-52.43h.01ZM83.41,148.06c-33.08.12-60.99-24.1-65.56-57.15h20.69l45.39,44.35c4.21,3.9,9.14,7.07,15.67,5.23,6.07-1.72,8.99-6.78,8.99-12.45v-55.55h19.74c4.27-.11,7.86-3.27,7.88-8.06.02-5.1-3.24-8.48-7.88-8.59h-19.74V21.81c23.81,9.93,40.57,33.5,40.47,60.86-.14,36.13-29.5,65.25-65.64,65.39h0Z"/>
  <path class="cls-3" d="M213.36,186.46l-7.76-10.91h-.06v10.91h-3.43v-23.53h7.54c5.66,0,8.17,2.99,8.17,7.82,0,4.48-3.43,6.84-6.74,6.93l6.58,8.78h-4.3ZM208.05,175.08c4.01,0,6.33-1.56,6.33-4.61,0-2.7-2.16-4.39-5.21-4.39h-3.62v9h2.51,0Z"/>
  <path class="cls-3" d="M229.68,186.46v-23.53h12.69v3.15h-9.25v6.93h9.25v3.15h-9.25v7.15h9.25v3.15h-12.69Z"/>
  <path class="cls-3" d="M255.34,186.46v-23.53h3.43v20.38h8.17v3.15h-11.61,0Z"/>
  <path class="cls-3" d="M294.13,186.46l-2.61-6.93h-8.46l-2.61,6.93h-3.62l8.94-23.53h3.08l8.94,23.53h-3.66ZM287.36,167.38h-.06l-3.02,9h6.07l-2.99-9h0Z"/>
  <path class="cls-3" d="M312.04,186.46v-8.49l-7.31-15.04h3.85l5.18,11.03,5.15-11.03h3.82l-7.25,15.04v8.49h-3.44Z"/>
  <path class="cls-3" d="M334.23,186.46v-23.53h3.43v23.53h-3.43Z"/>
  <path class="cls-3" d="M366.22,186.46l-11.64-18.19h-.06v18.19h-3.43v-23.53h3.75l11.45,17.9h.06v-17.9h3.43v23.53h-3.56Z"/>
  <path class="cls-3" d="M391.38,177.9v-3.15h14.88c-.22,7.82-6.14,12.15-12.4,12.15s-11.8-5.53-11.8-11.89c0-7.63,5.85-12.53,11.8-12.53,4.52,0,8.4,2.13,10.78,6.36h-4.01c-2-2.29-4.01-3.21-6.61-3.21-4.58,0-8.52,4.32-8.52,8.97,0,4.96,3.91,9.16,8.65,9.16,3.72,0,6.71-2.07,8.2-5.85h-10.97Z"/>
  <path class="cls-3" d="M436.41,186.46v-23.53h3.43v23.53h-3.43Z"/>
  <path class="cls-3" d="M468.4,186.46l-11.64-18.19h-.06v18.19h-3.43v-23.53h3.75l11.45,17.9h.06v-17.9h3.43v23.53h-3.56Z"/>
  <path class="cls-3" d="M500.55,186.46l-11.64-18.19h-.06v18.19h-3.43v-23.53h3.75l11.45,17.9h.06v-17.9h3.43v23.53h-3.56Z"/>
  <path class="cls-3" d="M528.43,186.9c-6.52,0-12.05-5.6-12.05-11.96,0-7.22,5.53-12.46,12.15-12.46,7,0,12.34,5.5,12.34,12.05,0,7.12-5.5,12.37-12.43,12.37h-.01ZM537.43,174.75c0-4.87-3.69-9.13-8.65-9.13-6.36,0-8.97,5.47-8.97,8.97,0,4.74,3.43,9.16,8.81,9.16s8.81-4.71,8.81-9Z"/>
  <path class="cls-3" d="M559.03,186.46l-9.48-23.53h3.69l6.84,17.65,6.84-17.65h3.62l-9.44,23.53h-2.07Z"/>
  <path class="cls-3" d="M594.07,186.46l-2.61-6.93h-8.46l-2.61,6.93h-3.62l8.94-23.53h3.08l8.94,23.53h-3.66ZM587.3,167.38h-.06l-3.02,9h6.07l-2.99-9Z"/>
  <path class="cls-3" d="M610.73,186.46v-20.38h-4.52v-3.15h12.46v3.15h-4.52v20.38h-3.43.01Z"/>
  <path class="cls-3" d="M630,186.46v-23.53h3.43v23.53h-3.43Z"/>
  <path class="cls-3" d="M657.73,186.9c-6.52,0-12.05-5.6-12.05-11.96,0-7.22,5.53-12.46,12.15-12.46,7,0,12.34,5.5,12.34,12.05,0,7.12-5.5,12.37-12.43,12.37h-.01ZM666.73,174.75c0-4.87-3.69-9.13-8.65-9.13-6.36,0-8.97,5.47-8.97,8.97,0,4.74,3.43,9.16,8.81,9.16s8.81-4.71,8.81-9Z"/>
  <path class="cls-3" d="M697.58,186.46l-11.64-18.19h-.06v18.19h-3.43v-23.53h3.75l11.45,17.9h.06v-17.9h3.43v23.53h-3.56Z"/>
  <path class="cls-1" d="M202.15,70.54v-5.46c0-4.16,1.71-7.45,3.58-9.6,3.02-3.49,6.62-4.99,10.31-5.49,2.15-.29,4.65-.35,7.24-.35h20.78v15.45c-5.42.01-5.94.01-7.23.3-1.35.3-2.73,1.08-3.38,2.29-1.14,2.13-.95,5.17-.95,5.17h11.56v19.21h-10.6l.03,48.34h-31.34v-48.34l-9.38-.05v-19.21h9.38"/>
  <path class="cls-1" d="M288.47,72.85v67.56h-31.83v-67.56h31.83ZM288.47,49.63v15.45h-31.83v-15.45s31.83,0,31.83,0Z"/>
  <path class="cls-1" d="M366.67,71.54c30.14,0,31.11,21.38,31.11,24.97v43.88h-31.09v-31.2c0-5.19-1.92-11.42-11.87-12.07-10.56-.69-18.64,3.8-19.8,13.23-.09.71-.16,1.49-.16,2.2v27.84h-31.34v-67.54h31.34v7.64s9.56-8.95,31.81-8.95h0Z"/>
  <path class="cls-1" d="M701.37,106.21h-31.67s.02-2.37,0-3.15c-.22-10.76-10.75-8.66-10.75-8.66-6.87,1.24-6.99,5.68-7,8.4v37.61h-30.1v-67.56h30.1v5.87s9.77-6.74,21.08-7.14,21.61,1.98,26.73,14.97c3.2,8.13,1.62,19.66,1.62,19.66h-.01Z"/>
  <path class="cls-1" d="M613.28,112.15h-67.79M545.49,112.15c1.48,9.56,9.57,12.85,18.11,12.62,7.6-.21,10.75-1.69,15.62-5.63h32.81c-1.45,4.18-3.27,7.16-5.86,10.21s-7.61,6.79-12.17,8.54-8.21,2.67-13.26,3.44c-5.75.88-11.41,1.23-18.63,1.23-5.52,0-13.6-.77-16.35-1.4-8.25-1.63-17.13-5.39-23.26-11.42-1.38-1.51-4.13-4.39-6.38-9.16-1.13-2.38-3.25-7.78-3.25-14.81,0-5.65,1.5-19.82,15.38-28.48,2.63-1.63,5.76-3.82,13.7-5.95,15.75-4.22,40.22-4.5,55.82,5.87,6.33,4.21,10.59,9.4,13.1,16.23,2.26,6.14,2.38,14.45,2.24,18.72M580.05,97.43c-4.36-16.32-30.86-16.33-34.52,0h34.52Z"/>
  <path class="cls-1" d="M472.29,135.87v4.53h31.3V49.64h-31.31v25.97c-7.21-3.57-15.18-5.16-23.36-5.16s-20.32.6-30.2,9.8c-10.63,9.9-11.34,21.2-11.34,25.02s-.28,14.45,8.79,24.74c10.35,11.74,25.18,11.74,30.88,11.75,12.16,0,20.84-3.46,25.23-5.88h.01ZM468.86,114.85c-2.52,2.16-5.26,3.71-11.02,4.51-4.78.67-10.21-.08-14.13-3.16-2.7-2.12-5.06-5.27-5.06-10.73,0-4.83,2.8-8.5,5.55-10.48,4.05-2.91,8.81-3.75,13.69-3.14,5.29.66,8.25,2.14,10.94,4.46,2.85,2.46,4.18,5.4,4.18,9.2,0,4.18-1.93,7.43-4.14,9.33h0Z"/>
  <g>
    <path class="cls-2" d="M712.68,84.04c4.5,0,8.34-3.66,8.34-8.28s-3.84-8.28-8.34-8.28-8.34,3.67-8.34,8.28,3.84,8.28,8.34,8.28h0ZM712.68,85.55c-5.5,0-9.85-4.34-9.85-9.79s4.34-9.78,9.85-9.78,9.84,4.34,9.84,9.78-4.34,9.79-9.84,9.79h0Z"/>
    <path class="cls-2" d="M710.52,74.6h1.81c1.33,0,3.66.25,3.66-1.45,0-1.11-1.46-1.3-2.61-1.3h-2.86v2.76h0ZM714.11,76.11l3.24,4.95h-1.81l-3.21-4.95h-1.81v4.95h-1.51v-10.72h4.67c1.93,0,3.82.53,3.82,2.84,0,2.1-1.48,2.88-3.39,2.93h0Z"/>
  </g>
</svg>