<?xml version="1.0" encoding="UTF-8"?><svg xmlns="http://www.w3.org/2000/svg" viewBox="0 0 1417.32 177.17"><defs><style>.cls-1{fill:#d00;}.cls-1,.cls-2{stroke-width:0px;}.cls-2{fill:#fff;}</style></defs><g id="Rood_vlak"><rect class="cls-1" width="1417.32" height="177.17"/></g><g id="Typo"><path class="cls-2" d="M144.77,98.3v22.1h-17.3V53.7h27.6c5.8,0,11.8,1.1,16.9,6,5.2,5,6.2,10.6,6.2,16.2,0,5.3-.7,11.5-5.9,16.6-5.2,5.1-11.4,5.8-16.6,5.8h-10.9ZM144.77,84.3h5.8c1.8,0,5.2-.2,7.3-2.1,2.1-1.8,2.2-4.5,2.2-6.1,0-1.8-.2-4.2-2-6-2-2.1-5.2-2.4-7.4-2.4h-5.9v16.6Z"/><path class="cls-2" d="M185.87,75.7h16v7.3c1.6-3,3.9-5,6.3-6.2,2.4-1.3,5.3-1.8,8.3-1.8.4,0,1.1.1,3.2.2v15.1c-.8-.4-3-1.6-6.9-1.6-2.1,0-5,.3-7.3,2.4-3.4,3.1-3.6,7.8-3.6,10.2v19.1h-16v-44.7Z"/><path class="cls-2" d="M269.78,114.51c-5.9,5.8-12.8,7.4-20,7.4-6.5,0-13.7-1.3-19.9-7.4-4.9-4.8-6.9-10.5-6.9-16.5,0-8,3.6-13.2,6.9-16.4,3.7-3.6,10.2-7.4,19.9-7.4s16.3,3.9,20,7.4c3.3,3.2,6.9,8.4,6.9,16.4,0,6-2,11.7-6.9,16.5ZM242.67,90.7c-2,1.9-3.1,4.7-3.1,7.3s1.3,5.3,3.1,7.1c1.9,1.9,4.5,3,7.2,3s5.2-1.1,7.1-3c2-1.9,3.1-4.5,3.1-7.1,0-2.4-1.1-5.3-3.1-7.3-1.8-1.7-4.6-2.9-7.1-2.9s-5.4,1.2-7.2,2.9Z"/><path class="cls-2" d="M297.27,75.7l10.7,22.9,10.9-22.9h17.8l-23.3,44.7h-10.9l-23.1-44.7h17.9Z"/><path class="cls-2" d="M350.17,48.1c5,0,9,4,9,9s-4,9-9,9-9-4-9-9,4-9,9-9ZM358.17,75.7v44.7h-16v-44.7h16Z"/><path class="cls-2" d="M369.07,75.7h16v5.6c4.4-5.8,10.3-6.6,14.2-6.6,4.6,0,9.5,1.1,13.2,4.8s4.2,7.6,4.2,12.5v28.4h-16v-22.6c0-2.6.1-6.5-2-8.7-1.5-1.6-3.5-1.9-5.1-1.9-2.5,0-4.6.9-5.9,2.1-1.6,1.5-2.6,4.4-2.6,7.1v24h-16v-44.7Z"/><path class="cls-2" d="M461.37,119.41c-4.3,2.1-7.8,2.5-11.1,2.5-8.7,0-14.4-3.7-17.6-6.8-4.2-4.1-6.9-10.1-6.9-16.7s2.7-12.9,7.2-17.3c4.2-4,10.4-6.8,18-6.8,2.8,0,6.4.5,10.4,2.5v13.4c-2.1-1.5-4.9-2.9-8.3-2.9-3.8,0-6.2,1.5-7.8,3.1-2.2,2.2-3.1,5.1-3.1,7.7s.9,5.4,2.8,7.5c1.5,1.6,4.1,3.4,8.2,3.4,2.3,0,5.3-.5,8.2-3v13.4Z"/><path class="cls-2" d="M478.47,48.1c5,0,9,4,9,9s-4,9-9,9-9-4-9-9,4-9,9-9ZM486.47,75.7v44.7h-16v-44.7h16Z"/><path class="cls-2" d="M544.77,101h-33.3c0,2.4.9,5.6,2.8,7.5,1,1,3,2.2,6.6,2.2.4,0,3.2-.1,5.2-1.2,1-.6,2.1-1.6,2.8-3h15.3c-.7,2.5-2.1,6-5.4,9.2s-8.5,6.2-18.2,6.2c-5.9,0-13-1.3-18.5-6.8-2.9-2.9-6.6-8.4-6.6-16.9,0-7.5,2.8-13.5,6.7-17.3,3.7-3.6,9.5-6.5,18.3-6.5,5.2,0,11.9,1.1,17.2,6.1,6.3,6,7.1,13.8,7.1,18.8v1.7ZM530.07,91.8c-.4-1.7-1.4-3.6-2.6-4.8-2.1-2.1-5-2.4-6.6-2.4-2.7,0-4.8.7-6.5,2.4-1.1,1.2-2.1,2.8-2.4,4.8h18.1Z"/><path class="cls-2" d="M578.77,120.41V53.7h17.3l31.9,40.8v-40.8h17.3v66.7h-17.3l-31.9-40.8v40.8h-17.3Z"/><path class="cls-2" d="M702.77,114.51c-5.9,5.8-12.8,7.4-20,7.4-6.5,0-13.7-1.3-19.9-7.4-4.9-4.8-6.9-10.5-6.9-16.5,0-8,3.6-13.2,6.9-16.4,3.7-3.6,10.2-7.4,19.9-7.4s16.3,3.9,20,7.4c3.3,3.2,6.9,8.4,6.9,16.4,0,6-2,11.7-6.9,16.5ZM675.67,90.7c-2,1.9-3.1,4.7-3.1,7.3s1.3,5.3,3.1,7.1c1.9,1.9,4.5,3,7.2,3s5.2-1.1,7.1-3c2-1.9,3.1-4.5,3.1-7.1,0-2.4-1.1-5.3-3.1-7.3-1.8-1.7-4.6-2.9-7.1-2.9s-5.4,1.2-7.2,2.9Z"/><path class="cls-2" d="M763.87,114.51c-5.9,5.8-12.8,7.4-20,7.4-6.5,0-13.7-1.3-19.9-7.4-4.9-4.8-6.9-10.5-6.9-16.5,0-8,3.6-13.2,6.9-16.4,3.7-3.6,10.2-7.4,19.9-7.4s16.3,3.9,20,7.4c3.3,3.2,6.9,8.4,6.9,16.4,0,6-2,11.7-6.9,16.5ZM736.77,90.7c-2,1.9-3.1,4.7-3.1,7.3s1.3,5.3,3.1,7.1c1.9,1.9,4.5,3,7.2,3s5.2-1.1,7.1-3c2-1.9,3.1-4.5,3.1-7.1,0-2.4-1.1-5.3-3.1-7.3-1.8-1.7-4.6-2.9-7.1-2.9s-5.4,1.2-7.2,2.9Z"/><path class="cls-2" d="M779.97,75.7h16v7.3c1.6-3,3.9-5,6.3-6.2,2.4-1.3,5.3-1.8,8.3-1.8.4,0,1.1.1,3.2.2v15.1c-.8-.4-3-1.6-6.9-1.6-2.1,0-5,.3-7.3,2.4-3.4,3.1-3.6,7.8-3.6,10.2v19.1h-16v-44.7Z"/><path class="cls-2" d="M871.47,120.41h-16v-4.9c-4.5,5.8-10.4,6.4-13.5,6.4-6.4,0-11.5-2.1-15.7-6.2-4.5-4.4-7.2-10.7-7.2-17.8,0-7.6,3.2-13.8,7.3-17.7,4.4-4.2,10.3-6,15.8-6,6.1,0,10.4,2.7,13.3,5.8v-32.5h16v72.9ZM852.57,105.6c2.1-1.9,3.4-4.9,3.4-7.6,0-2.5-1.4-5.5-3-7.2-1.8-1.9-4.3-3-7.3-3-3.4,0-5.7,1.5-7.1,2.9-1.8,1.8-3.1,4.6-3.1,7.6,0,2.3,1,4.9,3.1,7,2.2,2.2,4.8,3,7.1,3,2.6,0,5.2-1.2,6.9-2.7Z"/><path class="cls-2" d="M883.97,86.9h25.3v13.3h-25.3v-13.3Z"/><path class="cls-2" d="M923.27,120.41V53.7h25.8c4.8,0,10.5.7,14.6,5.2,2.3,2.5,4.1,6.6,4.1,12.5,0,2.9-.5,5.4-1.9,8.2-1.4,2.6-2.9,4.1-5.4,5.2,3.5.4,7,2,9.1,4,2.7,2.6,4.5,6.9,4.5,12.2,0,6.3-2.4,10.6-4.9,13.1-3.6,3.7-9.9,6.3-18.1,6.3h-27.8ZM940.57,80h3.2c1.8,0,4.8-.2,6.6-2.1,1.1-1.1,1.6-2.9,1.6-4.4,0-1.7-.6-3.4-1.6-4.5-1.1-1.1-3.2-2-6.6-2h-3.2v13ZM940.57,106.9h3.9c4.8,0,8.8-.5,10.7-2.7.8-.9,1.4-2.4,1.4-4.3,0-2.1-.7-3.8-1.7-4.8-2.1-2.1-6.4-2.2-10.7-2.2h-3.6v14Z"/><path class="cls-2" d="M983.56,75.7h16v7.3c1.6-3,3.9-5,6.3-6.2,2.4-1.3,5.3-1.8,8.3-1.8.4,0,1.1.1,3.2.2v15.1c-.8-.4-3-1.6-6.9-1.6-2.1,0-5,.3-7.3,2.4-3.4,3.1-3.6,7.8-3.6,10.2v19.1h-16v-44.7Z"/><path class="cls-2" d="M1059.07,75.7h16v44.7h-16v-4.9c-3.7,5.1-9.5,6.4-13.9,6.4-4.8,0-10.7-1.4-16.1-7.1-4.3-4.6-6.4-9.7-6.4-16.4,0-8.4,3.3-14.3,6.9-17.9,3.8-3.8,9.7-6.3,16.1-6.3,7.2,0,11.5,3.7,13.4,5.8v-4.3ZM1042.26,90.7c-2.2,2.1-3.2,5-3.2,7.3,0,2.6,1.1,5.4,3.1,7.3,1.7,1.6,4.5,3,7.2,3s5.2-1.1,7.2-3.1c1.4-1.4,3-3.6,3-7.2,0-2.1-.6-4.9-3.1-7.3-1.5-1.4-3.8-2.9-7.2-2.9-2,0-4.7.7-7,2.9Z"/><path class="cls-2" d="M1102.06,47.5v32.5c2.9-3.1,7.2-5.8,13.3-5.8,5.5,0,11.4,1.8,15.8,6,4.1,3.9,7.3,10.1,7.3,17.7,0,7.1-2.7,13.4-7.2,17.8-4.2,4.1-9.3,6.2-15.7,6.2-3.1,0-9-.6-13.5-6.4v4.9h-16V47.5h16ZM1118.97,105.3c2.1-2.1,3.1-4.7,3.1-7,0-3-1.3-5.8-3.1-7.6-1.4-1.4-3.7-2.9-7.1-2.9-3,0-5.5,1.1-7.3,3-1.6,1.7-3,4.7-3,7.2,0,2.7,1.3,5.7,3.4,7.6,1.7,1.5,4.3,2.7,6.9,2.7,2.3,0,4.9-.8,7.1-3Z"/><path class="cls-2" d="M1182.27,75.7h16v44.7h-16v-4.9c-3.7,5.1-9.5,6.4-13.9,6.4-4.8,0-10.7-1.4-16.1-7.1-4.3-4.6-6.4-9.7-6.4-16.4,0-8.4,3.3-14.3,6.9-17.9,3.8-3.8,9.7-6.3,16.1-6.3,7.2,0,11.5,3.7,13.4,5.8v-4.3ZM1165.47,90.7c-2.2,2.1-3.2,5-3.2,7.3,0,2.6,1.1,5.4,3.1,7.3,1.7,1.6,4.5,3,7.2,3s5.2-1.1,7.2-3.1c1.4-1.4,3-3.6,3-7.2,0-2.1-.6-4.9-3.1-7.3-1.5-1.4-3.8-2.9-7.2-2.9-2,0-4.7.7-7,2.9Z"/><path class="cls-2" d="M1209.26,75.7h16v5.6c4.4-5.8,10.3-6.6,14.2-6.6,4.6,0,9.5,1.1,13.2,4.8,3.8,3.8,4.2,7.6,4.2,12.5v28.4h-16v-22.6c0-2.6.1-6.5-2-8.7-1.5-1.6-3.5-1.9-5.1-1.9-2.5,0-4.6.9-5.9,2.1-1.6,1.5-2.6,4.4-2.6,7.1v24h-16v-44.7Z"/><path class="cls-2" d="M1285.46,88.8v31.6h-16v-31.6h-5.1v-13.1h5.1v-14.7h16v14.7h9.1v13.1h-9.1Z"/></g></svg>
