<?xml version="1.0" encoding="UTF-8"?>
<svg width="160px" height="23px" viewBox="0 0 160 23" version="1.1" xmlns="http://www.w3.org/2000/svg" xmlns:xlink="http://www.w3.org/1999/xlink">
    <!-- Generator: Sketch 52.5 (67469) - http://www.bohemiancoding.com/sketch -->
    <title>logo</title>
    <desc>Created with Sketch.</desc>
    <defs>
        <polygon id="path-1" points="0.825178295 17.3643411 15.667969 17.3643411 15.667969 0.905922481 0.825178295 0.905922481"></polygon>
        <polygon id="path-3" points="0.41724031 17.3643411 14.7894574 17.3643411 14.7894574 0.905922481 0.41724031 0.905922481 0.41724031 17.3643411"></polygon>
    </defs>
    <g id="Symbols" stroke="none" stroke-width="1" fill="none" fill-rule="evenodd">
        <g id="Menu-/-Home" transform="translate(-81.000000, -21.000000)">
            <g id="header">
                <g id="logo" transform="translate(81.000000, 20.000000)">
                    <polygon id="Fill-1" fill="#EF3340" points="38.9893953 0.929736434 25.992186 23.2230698 51.9853643 23.2230698"></polygon>
                    <polygon id="Fill-2" fill="#EF3340" points="12.9957209 0.929736434 -0.000248062016 23.2230698 25.9929302 23.2230698"></polygon>
                    <polygon id="Fill-3" fill="#3B3B3B" points="73.4020465 2.11857364 69.3350698 16.9551628 69.2767752 16.9551628 65.1291783 2.11857364 58.6870078 2.11857364 58.6870078 23.2224496 62.8023566 23.2224496 62.8023566 9.18710078 62.8606512 9.18710078 66.9313488 23.2224496 71.5155349 23.2224496 75.4535194 9.18710078 75.5130543 9.18710078 75.5130543 23.2224496 79.6271628 23.2224496 79.6271628 2.11857364"></polygon>
                    <g id="Group-18" transform="translate(80.620155, 2.548465)">
                        <path d="M15.5916899,5.03751938 L19.5309147,5.03751938 L19.5309147,7.74139535 L19.5892093,7.74139535 C20.4413023,6.15379845 21.3826977,4.62573643 23.8806822,4.62573643 C24.1448682,4.62573643 24.4090543,4.65550388 24.6744806,4.68527132 L24.6744806,8.85891473 C24.3209922,8.79937984 23.8806822,8.79937984 23.4986667,8.79937984 C20.2949457,8.79937984 19.7057984,10.7987597 19.7057984,12.5327132 L19.7057984,20.6741085 L15.5916899,20.6741085 L15.5916899,5.03751938 Z" id="Fill-4" fill="#3B3B3B"></path>
                        <path d="M31.6818605,5.03751938 L34.2393798,5.03751938 L34.2393798,7.97705426 L31.6818605,7.97705426 L31.6818605,16.1221705 C31.6818605,17.0325581 31.7116279,17.3848062 33.3872868,17.3848062 C33.6514729,17.3848062 33.9454264,17.3562791 34.2393798,17.3265116 L34.2393798,20.5413953 C33.5931783,20.5699225 32.9469767,20.6009302 32.2995349,20.6009302 L31.7699225,20.6009302 C28.2139535,20.6009302 27.5677519,19.2489922 27.5677519,17.219845 L27.5677519,7.97705426 L25.4517829,7.97705426 L25.4517829,5.03751938 L27.5677519,5.03751938 L27.5677519,0.355348837 L31.6818605,0.355348837 L31.6818605,5.03751938 Z" id="Fill-6" fill="#3B3B3B"></path>
                        <g id="Group-10" transform="translate(33.488372, 3.720930)">
                            <mask id="mask-2" fill="white">
                                <use xlink:href="#path-1"></use>
                            </mask>
                            <g id="Clip-9"></g>
                            <path d="M11.436031,7.57755039 C11.2016124,5.04855814 9.58548837,4.28576744 8.26207752,4.28576744 C6.32223256,4.28576744 5.2940155,5.51987597 5.05711628,7.57755039 L11.436031,7.57755039 Z M15.4930853,12.3676279 C14.4053333,16.1307287 11.2896744,17.3648372 8.61556589,17.3648372 C4.20626357,17.3648372 0.825178295,15.2488682 0.825178295,8.81165891 C0.825178295,6.93010853 1.47262016,0.905922481 8.32037209,0.905922481 C11.4075039,0.905922481 15.667969,2.37444961 15.667969,9.51615504 L15.667969,10.2516589 L4.94052713,10.2516589 C5.05711628,11.4274729 5.2940155,14.071814 8.61556589,14.071814 C9.76037209,14.071814 10.9374264,13.4851473 11.259907,12.3676279 L15.4930853,12.3676279 Z" id="Fill-8" fill="#3B3B3B" mask="url(#mask-2)"></path>
                        </g>
                        <path d="M64.2751008,20.6747287 L60.1609922,20.6747287 L60.1609922,11.1813953 C60.1609922,10.0341085 59.8608372,8.09426357 57.6357209,8.09426357 C55.8137054,8.09426357 54.6527752,9.3296124 54.6527752,11.7085271 L54.6527752,20.6747287 L50.5386667,20.6747287 L50.5386667,5.03813953 L54.4766512,5.03813953 L54.4766512,7.33023256 L54.5349457,7.33023256 C55.0943256,6.39007752 55.8695194,4.62635659 58.8375814,4.62635659 C61.8949457,4.62635659 64.2751008,6.41860465 64.2751008,9.8579845 L64.2751008,20.6747287 Z" id="Fill-11" fill="#3B3B3B"></path>
                        <g id="Group-15" transform="translate(64.496124, 3.720930)">
                            <mask id="mask-4" fill="white">
                                <use xlink:href="#path-3"></use>
                            </mask>
                            <g id="Clip-14"></g>
                            <path d="M10.2938295,6.0780155 C10.1164651,5.07832558 9.76421705,4.02034109 7.5304186,4.02034109 C5.29662016,4.02034109 5.00266667,4.87243411 5.00266667,5.54964341 C5.00266667,8.01786047 14.7899535,6.2256124 14.7899535,11.9868527 C14.7899535,16.5425116 10.3806512,17.3648372 7.94220155,17.3648372 C4.38499225,17.3648372 0.536310078,16.1294884 0.41724031,11.955845 L4.6504186,11.955845 C4.6504186,13.2792558 5.47274419,14.2491783 8.06003101,14.2491783 C10.176,14.2491783 10.675845,13.2209612 10.675845,12.631814 C10.675845,10.0172403 0.975379845,11.9868527 0.975379845,6.13631008 C0.975379845,3.84421705 2.41537984,0.905922481 7.296,0.905922481 C10.352124,0.905922481 13.996155,1.66871318 14.319876,6.0780155 L10.2938295,6.0780155 Z" id="Fill-13" fill="#3B3B3B" mask="url(#mask-4)"></path>
                        </g>
                        <path d="M9.75714729,15.0605891 C9.75714729,16.9706667 7.90660465,18.1464806 6.08334884,18.1464806 C5.28955039,18.1464806 4.17327132,17.7061705 4.17327132,16.2661705 C4.17327132,14.5607442 5.43714729,14.1787287 6.9652093,13.9133023 C8.67063566,13.6491163 9.34660465,13.3836899 9.75714729,13.0624496 L9.75714729,15.0605891 Z M13.7844341,17.6181085 L13.7844341,9.15175194 C13.7844341,5.30182946 9.75714729,4.62586047 7.55311628,4.62586047 C4.34939535,4.62586047 1.02784496,5.30182946 0.557767442,10.0931473 L4.52551938,10.0931473 C4.64334884,9.18151938 4.9955969,7.91764341 7.05327132,7.91764341 C8.11125581,7.91764341 9.75714729,8.00694574 9.75714729,9.73965891 C9.75714729,10.6215194 8.96334884,10.8869457 8.31714729,10.9750078 L4.61482171,11.5331473 C1.99776744,11.9151628 0.0579224806,13.4729922 0.0579224806,16.5303566 C0.0579224806,19.7626047 2.46908527,21.0847752 4.82071318,21.0847752 C7.61265116,21.0847752 8.93482171,19.7911318 9.87497674,18.8224496 C9.96303876,19.7043101 10.0225736,19.939969 10.2569922,20.6742326 L14.6948217,20.6742326 L14.6948217,20.5117519 C14.1949767,20.3343876 13.7844341,19.4698915 13.7844341,17.6181085 Z" id="Fill-16" fill="#3B3B3B"></path>
                    </g>
                </g>
            </g>
        </g>
    </g>
</svg>