<svg xmlns="http://www.w3.org/2000/svg" viewBox="0 0 307.68 159.53">
<path fill="#ef7d00" d="M294.45,38.34c0-1.35-.81-1.92-2.42-1.92h-2.52v6.66h1.09V40.23h1l1.72,2.85h1.23l-1.86-2.93A1.69,1.69,0,0,0,294.45,38.34Zm-3.85,1V37.36h1.32c.66,0,1.44.09,1.44.89,0,1-.72,1-1.54,1Z"/>
<path fill="#ef7d00" d="M291.79,33.63a5.82,5.82,0,0,0-5.91,6,5.9,5.9,0,1,0,11.79,0A5.82,5.82,0,0,0,291.79,33.63Zm0,11c-2.86,0-4.63-2.23-4.63-5a4.62,4.62,0,1,1,9.22,0A4.64,4.64,0,0,1,291.79,44.6Z"/>
<path fill="#ef7d00" d="M284.81,69.14a21.19,21.19,0,0,0-7.56-6.43h0c-8.4-4.42-20.79-5.4-35.28-5.4-10.7,0-14.05-3.86-14.05-10,0-4.1,3.92-13.63,21.82-13.66,14.73,0,22.44,8.13,22.09,12.11h12.71c.5-16.29-20.1-24.82-34.82-24.8-22.09,0-34.49,10.89-34.49,26.66,0,6.16,1.56,11.32,5,15.12h0c2.8,3.09,6.85,5.29,12.33,6.43h-20V62.71h0V21.06H200.33V69.14H137.4c0-.39,0-.78,0-1.18V62.71h0V21.06H123.83l0,41.65h0v6.43H122.1V21.06H109.46V35a43.29,43.29,0,0,0-31.71-14c-23,0-41.83,18.25-44.12,41.65a47.62,47.62,0,0,0-.23,4.8c0,.54,0,1.09,0,1.63H31.66V21.06H19V62.71h0v6.43H0v2.61H19V95h0v19h12.7V95h0V71.75h1.92A47.48,47.48,0,0,0,42,95h0a43.1,43.1,0,0,0,67.48,5v13.7a35.5,35.5,0,0,1-2.92,13.58h0c-5,11.59-16,19.63-28.79,19.63S54,138.85,49,127.26h0A35.5,35.5,0,0,1,46,113.68H33.39a48.56,48.56,0,0,0,2.1,13.58C41.22,146,58,159.53,77.75,159.53S114.28,146,120,127.26h0a48.43,48.43,0,0,0,2.1-13.57V71.75H124A47.48,47.48,0,0,0,132.42,95h0a43.71,43.71,0,0,0,35.77,19,43.23,43.23,0,0,0,31.63-13.89V114h12.72V95h0V71.75h52.61c9.2,2.09,11,6.06,11,11.86A14.3,14.3,0,0,1,271.22,95h0c-4.54,3.94-12,5.84-21.5,5.84-8.37,0-14.41-2.45-18.25-5.85h0c-3.69-3.25-5.36-7.37-5.15-11H213.6a24.61,24.61,0,0,0,2.18,11h0c5.06,11.2,18.35,18.55,33.94,18.55,13.48,0,31.1-4,37-18.55h0a29.5,29.5,0,0,0,2.06-11.41,26.39,26.39,0,0,0-2.46-11.82h21.36V69.14ZM96.9,95h0A30.11,30.11,0,0,1,60,95h0A34.25,34.25,0,0,1,47,71.75h62.93A34.23,34.23,0,0,1,96.9,95Zm13.2-25.84H46.75c0-.55,0-1.1,0-1.66A37.47,37.47,0,0,1,47,62.71h0C49.2,46.28,62.43,33.64,78.43,33.64s29.22,12.64,31.4,29.07a37.47,37.47,0,0,1,.31,4.77C110.14,68,110.13,68.59,110.1,69.14ZM187.35,95a30.1,30.1,0,0,1-37,0h0a34.25,34.25,0,0,1-13-23.23h62.93A34.25,34.25,0,0,1,187.35,95Z"/>
<path fill="#ef7d00" d="M25.31,12.65A6.33,6.33,0,1,0,19,6.33,6.33,6.33,0,0,0,25.31,12.65Z"/>
</svg>