<svg height="60" viewBox="0 0 224 60" width="224" xmlns="http://www.w3.org/2000/svg" xmlns:xlink="http://www.w3.org/1999/xlink"><mask id="a" fill="#fff"><path d="m0 .00440983h23.1800633v24.48032407h-23.1800633z" fill="#fff" fill-rule="evenodd"/></mask><mask id="b" fill="#fff"><path d="m.54691329.46385831h10.56509431v30.96045509h-10.56509431z" fill="#fff" fill-rule="evenodd"/></mask><mask id="c" fill="#fff"><path d="m.25423923.44484565h9.67724402v13.54617845h-9.67724402z" fill="#fff" fill-rule="evenodd"/></mask><g fill="none" fill-rule="evenodd"><path d="m53.3900861 37.562938c-1.1911961.1318289-2.9473684.1785821-4.5588517-.3433681-4.8620095-1.5742814-6.6120574-4.5427294-8.3046889-7.4130721-1.1085168-1.8831595-2.2545455-3.8291676-4.3085168-5.3513307-1.2279426-.9120715-2.5492823-1.2968277-3.9249761-1.1443048-2.5117703.2782201-4.4072727 2.2541196-4.4256459 2.2732808-.0811483.0843091-.1883254.1387268-.3023923.1502235-.0888039.0099638-.17378-.0022993-.2511005-.0375559-.1829665-.0743453-.3031579-.2651905-.2939713-.4705982.0091866-.223036.1423923-2.2142644 1.7155981-3.8973813.9890909-1.0561635 2.5133014-1.767426 4.1844976-1.9529061 2.7644019-.3065787 5.4599043.8093676 7.3952153 3.0596551 1.150622 1.3374494 1.950622 2.8803065 2.7980861 4.5143708 1.2616268 2.4373004 2.5592345 4.9451139 5.1498565 7.012987 3.276555 2.6158825 6.4176076 2.3529913 6.765933 2.3139025.2556938-.027592.5029665.1494571.5488995.3947201.0482297.2567596-.098756.4981903-.3391387.5656376-.00689.0015329-.7364594.2038748-1.8488039.3257398" fill="#cccd00"/><path d="m23.3639043 24.701733c-.068134.006898-.1347368.0015329-.1990431-.0176283-.0857416-.0283585-2.0769378-.6698743-3.3194258-2.6680008-.9355024-1.5068342-1.1513876-3.5954013-.5749282-5.5843304.670622-2.3162019 2.316555-4.2085587 4.6323445-5.3298702 1.5946411-.7710453 3.2956938-1.14660417 5.0939713-1.54362355 2.6625837-.58786459 5.4170335-1.19795614 8.0796172-3.16925697 3.4725359-2.56759634 3.9663158-5.82576112 3.984689-5.96295508.0283253-.22303598.2074641-.39701937.4333014-.42307856.0260287-.00306578.0512919-.00306578.0780861-.00229934.2664115.01839472.4677512.23453268.4662723.49052587.0007134.03219076.0121966 3.58390462-1.6697172 6.18982329-2.7751196 4.29516714-6.0922488 5.22256764-9.2999043 6.11777734-2.1075598.588631-4.2771292 1.1956568-6.2744498 2.7852672-4.1240191 3.2857568-1.1927273 8.1657228-1.0656459 8.3718969.1064115.1724505.0949282.3970194-.030622.5587396-.0803828.1034703-.2021053.1724505-.3345455.187013" fill="#004379"/><path d="m18.1567847 24.4437471c-2.9228708.3249734-6.8233493-1.2615712-8.47693781-5.5092187-.6445933-1.6516925-.88497608-3.376964-1.13990431-5.2034064-.37818181-2.7017245-.76784689-5.4984884-2.52401914-8.31211412-2.29894736-3.68584203-5.59311004-4.43542687-5.6260287-4.44232489-.25263158-.05288482-.42181819-.29431552-.38507177-.54954226.03215311-.22303598.20976076-.39625293.43177033-.42001278.03138756-.00306578.06200957-.00383223.09186603-.00076644.14545455.01073025 3.60421053.29124973 6.03406699 2.14911645 4.06277508 3.1056419 4.72574158 6.4887375 5.36650718 9.75916544.4225837 2.1491164.8581818 4.3633809 2.285933 6.481073 1.6091866 2.3874814 3.8851675 2.6741324 5.5104306 2.4940175 1.5402871-.1709176 2.7276555-.7710454 2.7399043-.7771769.0551197-.0275921.1117704-.0436875.1699522-.051352.1408612-.0153289.2809569.0306579.3858373.1256973.1500479.1394933.1990431.358697.1247847.5472429-.0084211.0153289-.7915789 1.99736-2.9136842 3.1018097-.6177991.3188418-1.3159809.5242495-2.0754067.6077922" fill="#cccd00" mask="url(#a)" transform="translate(0 8.096129)"/><g fill="#004379"><path d="m1.72210526 50.2145199c-.07196172.0076645-.14315789.0007665-.21282296-.0222269-.24880383-.087375-.38354067-.3487333-.31311005-.5985949.09875598-.3533319 1.03885167-3.5195231 3.28956938-5.5015542 2.19406698-1.9306791 4.39808612-2.9278263 7.14870817-3.232872 1.1682296-.1295295 2.3272727-.1241644 3.4503349-.1187993 1.1414354.0030658 2.285933.0068981 3.4266029-.1195656 1.2348325-.1364275 2.3410526-.4161806 3.3822009-.8522887 4.8589474-2.0372153 3.3178948-7.7050884 3.3018182-7.7625719-.0558852-.1977432.0168421-.4108154.182201-.531914.0643062-.0482861.1485167-.0812433.2350239-.0904407.1148325-.0130296.2296651.0137961.3238277.0766447.0734929.0482861 1.812823 1.2079199 2.4658374 3.4697041.4922488 1.7045773.1324401 3.7724505-.9622967 5.5283798-1.2754067 2.047179-3.3737799 3.4206514-5.9085167 3.8674899-.2419139.042921-.5037321.078944-.7770335.1103683-1.5027752.1655525-2.9848804.0781775-4.5519618-.015329l-.1622966-.006898c-1.4017225-.0835427-3.1441148-.1862465-4.8979904.0084309-1.26545459.1410262-2.4329187.416947-3.56899526.8469236-4.05129186 1.5298276-5.44076555 4.6201405-5.45301435 4.6515648-.06966507.1617203-.22200957.2751544-.39808613.2935491"/><path d="m8.09324402 31.4218608c-.12784689.013796-.25952153-.0245263-.36057416-.1065361-.11330144-.0881414-2.80038278-2.2518203-3.76727273-5.1850117-1.59923445-4.8615712-.23732057-8.0285289 1.07866029-11.0904833.86354067-2.005791 1.75464114-4.0805621 1.7707177-6.63819461.03444976-5.25935704-5.77990431-6.07715564-5.83808612-6.08558655-.20287082-.02452629-.37052632-.17551629-.41645933-.37479242-.04746412-.19697679.03444976-.40851607.20593301-.52195018.00688995-.00536513 1.09779904-.73808814 2.7062201-.91743666.4861244-.05288482.9722488-.05058548 1.44688995.00689802 1.75923445.21537151 3.5169378 1.3566106 4.70354067 3.05352352 1.3810526 1.97589951 1.821244 4.44615713 1.2378947 6.95780288-.3996172 1.7222056-1.17282293 3.2803917-1.99119614 4.9313178-1.21952153 2.4564616-2.47349282 4.9842027-2.61129186 8.2952523-.18296651 4.361848 2.11062201 6.8198425 2.13435406 6.8436023.17990431.1885459.18296651.4843943.00842106.6737066-.07885168.0866085-.18832536.1433256-.3077512.1578881" mask="url(#b)" transform="translate(26.794258 28.023743)"/><path d="m59.3155981 25.4794465c-.4003828-1.0186077-.8627751-1.6034065-1.972823-1.6034065h-.4310048v-.5250159h6.6572249v.5250159h-.5848804c-.709665 0-1.2026794.2146051-1.2026794.8944433 0 .2774537.0620096.5863317.2158852.9871833l2.774354 7.3433255 2.619713-6.819076c-.7395216-2.2525867-.8635407-2.4058761-2.1580862-2.4058761v-.5250159h6.1029665v.5250159c-1.1100478 0-1.7569378.2146051-1.7569378 1.0170748 0 .2774536.0926316.6484138.2465072 1.1105812l2.6511005 7.0359804 2.034067-5.5858633c.2465072-.6162231.3383732-1.2025549.3383732-1.7268044 0-1.8509687-1.0472727-1.8509687-1.6022967-1.8509687v-.5250159h4.9622967v.5250159h-.3391388c-.8321531 0-1.9728229 1.2945284-2.5577033 2.96155l-3.5758852 9.9040238h-.3697607l-3.6677512-9.7185438-3.6983732 9.7185438h-.4011484z"/><path d="m86.6653397 26.868631c0-2.0678731-.5864115-3.1477964-2.8976076-3.1477964-1.7255503 0-2.6817225.5863317-2.6817225 1.3274856 0 .8323611.9860287.955759.9860287 1.9130509 0 .7718118-.6155024 1.5114328-1.5709091 1.5114328-.8015311 0-1.6643062-.6790717-1.6643062-1.789653 0-1.357377 1.387177-3.4873323 5.547177-3.4873323 1.8801914 0 4.6851675.7104961 4.6851675 4.0115819v6.4488822c0 1.0186077.1240191 1.9758995 1.0480382 1.9758995.4930144 0 1.2325359-.6790717 1.2325359-2.4993825v-.7718118h.5244019v.7718118c0 3.1163721-1.9115789 3.4551415-2.774354 3.4551415-1.2631579 0-2.2805742-.8017032-2.3732058-2.4373004-1.0166507 1.4501171-2.4352153 2.4993826-5.0235406 2.4993826-2.2499522 0-3.6685168-1.4501171-3.6685168-2.9002342 0-.8017032.4631579-1.5742814.9867943-2.098531 1.7875598-1.7582286 4.4072727-1.666255 7.6440191-2.930892zm0 2.4066426c-2.1266986.8637854-3.7910048.8024696-4.9010526 1.9130509-.5236364.4943581-.8321531 1.4501171-.8321531 2.3752182 0 1.2040877.5550239 2.3146689 1.9728229 2.3146689 1.4177991 0 3.7603828-1.3880349 3.7603828-3.5478816z"/><path d="m103.79223 18.258829c0-1.3267191-.863541-2.0671066-2.188708-2.0671066h-.923254v-.525016c1.601531 0 3.789474-.09274 5.515024-.2774537v16.879455c0 3.1163721.648421 3.5785395 1.727081 3.5785395h.7089v.5564403l-4.808421.2460293v-2.7147541c-1.386412 2.1284224-2.774354 2.8381521-4.7165553 2.8381521-3.2359809 0-5.8863158-2.9922078-5.8863158-6.5730467 0-4.1035554 2.8976076-7.0045561 6.195598-7.0045561 2.0026791 0 3.5437321 1.142772 4.3766511 1.9444752zm-7.7052635 11.6017033c0 5.5245475 2.187177 6.3270172 3.5131101 6.3270172.6162674 0 1.5716744-.1241644 2.6197124-1.142772.92402-.9572919 1.541053-2.4993826 1.541053-5.5230147 0-4.5059399-2.249186-5.8318927-4.0987559-5.8318927-2.6204784 0-3.5751196 2.9929743-3.5751196 6.1706622z"/><path d="m120.323368 18.258829c0-1.3267191-.864306-2.0671066-2.188708-2.0671066h-.923253v-.525016c1.601531 0 3.789473-.09274 5.51732-.2774537v16.879455c0 3.1163721.645359 3.5785395 1.725551 3.5785395h.708133v.5564403l-4.807655.2460293v-2.7147541c-1.387943 2.1284224-2.77512 2.8381521-4.716555 2.8381521-3.236746 0-5.887081-2.9922078-5.887081-6.5730467 0-4.1035554 2.897607-7.0045561 6.194832-7.0045561 2.004211 0 3.544498 1.142772 4.377416 1.9444752zm-7.705263 11.6017033c0 5.5245475 2.187177 6.3270172 3.51311 6.3270172.617034 0 1.571675-.1241644 2.618948-1.142772.92555-.9572919 1.542583-2.4993826 1.542583-5.5230147 0-4.5059399-2.250717-5.8318927-4.099521-5.8318927-2.620479 0-3.57512 2.9929743-3.57512 6.1706622z"/><path d="m137.767273 33.6565893c-1.570144 2.1606132-3.329378 3.0857143-5.578565 3.0857143-3.789474 0-6.132823-3.3938258-6.132823-6.6956781 0-3.7034703 2.681723-6.8497339 6.410718-6.8497339 2.804976 0 5.208804 2.3437939 5.394067 5.5245476h-8.969952v1.7260379c0 3.7954439 1.78756 5.5559719 4.069665 5.5559719 1.788325 0 3.236746-.9580583 4.37665-2.6235469zm-2.926699-5.4003832c.306986-.7097296.431005-1.3251863.431005-1.8502023 0-1.8218437-1.479043-2.716287-2.744498-2.716287-1.879425 0-3.542966 1.4194593-3.636363 4.5664893z"/><path d="m143.615081 26.251105c.924019-2.0671067 2.464307-3.1163722 4.22201-3.1163722 3.235215 0 4.654545 2.3759847 4.654545 4.5979136v6.9731318c0 .926634.368996 1.1726634 1.077895 1.1726634h1.109282v.5250159h-6.719234v-.5250159h1.017416c.7089 0 1.078661-.2460294 1.078661-1.1726634v-7.3747499c0-2.8074941-1.4178-3.5800724-2.589857-3.5800724-1.971292 0-3.850718 2.0992975-3.850718 6.1423036v4.8125187c0 .926634.36823 1.1420055 1.07713 1.1420055h1.079425v.525016h-6.750622v-.525016h1.079426c.7089 0 1.077129-.2153715 1.077129-1.1420055v-8.2691931c0-2.5614648-1.200382-2.5614648-2.248421-2.5614648v-.5242495l4.685933-.216138z"/><path d="m161.244402 23.8754269v10.8298914c0 .926634.369761 1.1420055 1.07866 1.1420055h2.034833v.5564403h-7.921149v-.5564403h1.294546c.708899 0 1.077895-.2153715 1.077895-1.1420055v-10.8298914h-2.896077v-.5242496h2.896077v-1.235512c0-3.5172237 1.634449-6.7884181 4.809952-6.7884181 2.249186 0 3.296459 1.7589951 3.296459 2.9929742 0 .833894-.522871 1.6057058-1.417033 1.6057058-.770909 0-1.387177-.617756-1.387177-1.5121993 0-.8653183.678277-1.2960613.678277-1.8517351 0-.4935917-.616268-.7097297-1.295311-.7097297-1.356555 0-2.279809 1.0799234-2.279809 2.7155206v4.7833936h3.57512v.5242496z"/><path d="m179.234067 29.9538088c0 3.334043-2.589091 6.6956781-6.8111 6.6956781-3.761149 0-6.749857-2.9308921-6.749857-6.726336 0-3.9801575 3.206124-6.7569938 6.749857-6.7569938 3.760382 0 6.8111 2.9929743 6.8111 6.7876517m-10.726124-.2460294c0 4.8746008 1.295311 6.4496487 3.915024 6.4496487 3.482488 0 3.975502-3.025165 3.975502-6.3270172 0-5.4923568-2.249952-6.172195-3.94488-6.172195-3.144115 0-3.945646 2.5629976-3.945646 6.0495635"/><path d="m184.643751 26.251105c.924785-2.0671067 2.465838-3.1163722 4.223541-3.1163722 3.23445 0 4.653014 2.3759847 4.653014 4.5979136v6.9731318c0 .926634.368995 1.1726634 1.077895 1.1726634h1.110048v.5250159h-6.718469v-.5250159h1.017416c.7089 0 1.077895-.2460294 1.077895-1.1726634v-7.3747499c0-2.8074941-1.417799-3.5800724-2.588325-3.5800724-1.972823 0-3.853015 2.0992975-3.853015 6.1423036v4.8125187c0 .926634.368995 1.1420055 1.07866 1.1420055h1.079426v.525016h-6.750622v-.525016h1.079426c.7089 0 1.077895-.2153715 1.077895-1.1420055v-8.2691931c0-2.5614648-1.201148-2.5614648-2.248421-2.5614648v-.5242495l4.683636-.216138z"/><path d="m207.246928 18.258829c0-1.3267191-.86354-2.0671066-2.188708-2.0671066h-.924019v-.525016c1.603062 0 3.791005-.09274 5.517321-.2774537v16.879455c0 3.1163721.646889 3.5785395 1.726315 3.5785395h.707369v.5564403l-4.80689.2460293v-2.7147541c-1.387177 2.1284224-2.77512 2.8381521-4.71579 2.8381521-3.235981 0-5.886315-2.9922078-5.886315-6.5730467 0-4.1035554 2.895311-7.0045561 6.194067-7.0045561 2.002679 0 3.543732 1.142772 4.37665 1.9444752zm-7.705263 11.6017033c0 5.5245475 2.187943 6.3270172 3.514641 6.3270172.616268 0 1.570144-.1241644 2.618182-1.142772.92555-.9572919 1.541818-2.4993826 1.541818-5.5230147 0-4.5059399-2.250717-5.8318927-4.099521-5.8318927-2.618948 0-3.57512 2.9929743-3.57512 6.1706622z"/><path d="m.7778756 9.26971258c.70889952 3.08571432 2.65186603 4.22925272 4.5014354 4.22925272 1.9108134 0 2.68095694-1.1741963 2.68095694-2.2548861 0-2.00502448-2.61971292-2.59212263-3.69913875-2.99297424-1.35578948-.49359165-3.94564594-1.51219928-3.94564594-4.10432191 0-1.78888652 1.44918661-3.7019374 4.00765551-3.7019374 1.66354067 0 2.4045933.43227592 3.54373205 1.48077496.34066986-.33800298.58488039-1.04849904.70966508-1.41945923h.36822966l.12555024 4.10432191h-.37052632c-.92555024-2.46872472-2.31119617-3.70270386-4.19215311-3.70270386-1.20114832 0-2.43444976.7718118-2.43444976 2.0364488 0 2.19050458 3.11349283 2.77760273 4.46851675 3.33327656 1.72631579.70896317 3.38985646 1.69767937 3.38985646 4.01158191 0 1.6969129-1.32363637 3.7019374-4.56038278 3.7019374-1.32516746 0-2.71311004-.4315095-3.82162679-1.696913l-.61626794 1.696913h-.43253589l-.24650718-4.72131152z" mask="url(#c)" transform="translate(213.588517 22.658616)"/></g></g></svg>