<svg width="299" height="148" viewBox="0 0 299 148" fill="none" xmlns="http://www.w3.org/2000/svg">
<g clip-path="url(#clip0_0_3)">
<mask id="mask0_0_3" style="mask-type:luminance" maskUnits="userSpaceOnUse" x="0" y="0" width="299" height="148">
<path d="M0 0H299V148H0V0Z" fill="white"/>
</mask>
<g mask="url(#mask0_0_3)">
<path d="M34.0295 117.308C34.0295 116.276 33.2629 115.639 31.5324 115.639H27.6336V119.021H31.642C33.1314 119.021 34.0295 118.494 34.0295 117.352V117.308ZM33.1752 111.16C33.1752 110.149 32.3867 109.579 30.9631 109.579H27.6336V112.828H30.7439C32.2333 112.828 33.1752 112.345 33.1752 111.204V111.16ZM31.642 121.986H24.3478V106.614H31.4668C34.599 106.614 36.5266 108.173 36.5266 110.589V110.633C36.5266 112.367 35.6066 113.333 34.5115 113.948C36.2857 114.629 37.381 115.661 37.381 117.725V117.769C37.381 120.58 35.1028 121.986 31.642 121.986Z" fill="#0071BC"/>
<path d="M41.9152 121.985V106.614H53.4807V109.622H45.2666V112.741H52.4949V115.749H45.2666V118.977H53.5902V121.985H41.9152Z" fill="#0071BC"/>
<path d="M71.6644 122.249C66.8893 122.249 63.6035 118.889 63.6035 114.344V114.3C63.6035 109.93 66.9988 106.351 71.6424 106.351C74.4024 106.351 76.0672 107.097 77.6662 108.459L75.5414 111.028C74.3587 110.04 73.3072 109.469 71.533 109.469C69.0796 109.469 67.1302 111.643 67.1302 114.256V114.3C67.1302 117.111 69.0576 119.175 71.7739 119.175C73.0006 119.175 74.0958 118.867 74.95 118.252V116.057H71.5549V113.136H78.2137V119.811C76.6367 121.151 74.4681 122.249 71.6644 122.249Z" fill="#0071BC"/>
<path d="M92.5834 111.862C92.5834 110.413 91.5758 109.666 89.9329 109.666H86.5816V114.08H89.9987C91.6415 114.08 92.5834 113.202 92.5834 111.906V111.862ZM92.5176 121.985L89.2319 117.067H86.5816V121.985H83.2083V106.614H90.2177C93.832 106.614 96.0005 108.525 96.0005 111.687V111.73C96.0005 114.212 94.6642 115.771 92.7148 116.496L96.4604 121.985H92.5176Z" fill="#0071BC"/>
<path d="M100.798 121.985V106.614H112.363V109.622H104.149V112.741H111.378V115.749H104.149V118.977H112.473V121.985H100.798Z" fill="#0071BC"/>
<path d="M117.226 121.985V106.614H128.792V109.622H120.578V112.741H127.806V115.749H120.578V118.977H128.901V121.985H117.226Z" fill="#0071BC"/>
<path d="M144.41 121.985L136.984 112.214V121.985H133.655V106.614H136.765L143.95 116.079V106.614H147.279V121.985H144.41Z" fill="#0071BC"/>
<path d="M175.212 122.249C170.437 122.249 167.151 118.889 167.151 114.344V114.3C167.151 109.93 170.546 106.351 175.19 106.351C177.95 106.351 179.615 107.097 181.214 108.459L179.089 111.028C177.906 110.04 176.855 109.469 175.081 109.469C172.627 109.469 170.678 111.643 170.678 114.256V114.3C170.678 117.111 172.605 119.175 175.322 119.175C176.548 119.175 177.644 118.867 178.498 118.252V116.057H175.103V113.136H181.762V119.811C180.184 121.151 178.016 122.249 175.212 122.249Z" fill="#0071BC"/>
<path d="M198.847 114.3C198.847 111.665 196.92 109.469 194.203 109.469C191.487 109.469 189.604 111.621 189.604 114.256V114.3C189.604 116.935 191.531 119.131 194.247 119.131C196.963 119.131 198.847 116.979 198.847 114.344V114.3ZM194.203 122.249C189.472 122.249 186.077 118.714 186.077 114.344V114.3C186.077 109.93 189.516 106.351 194.247 106.351C198.979 106.351 202.374 109.886 202.374 114.256V114.3C202.374 118.67 198.935 122.249 194.203 122.249Z" fill="#0071BC"/>
<path d="M222.748 117.308C222.748 116.276 221.981 115.639 220.251 115.639H216.352V119.021H220.36C221.85 119.021 222.748 118.494 222.748 117.352V117.308ZM221.894 111.16C221.894 110.149 221.105 109.579 219.681 109.579H216.352V112.828H219.462C220.952 112.828 221.894 112.345 221.894 111.204V111.16ZM220.36 121.986H213.066V106.614H220.185C223.317 106.614 225.245 108.173 225.245 110.589V110.633C225.245 112.367 224.325 113.333 223.23 113.948C225.004 114.629 226.099 115.661 226.099 117.725V117.769C226.099 120.58 223.821 121.986 220.36 121.986Z" fill="#0071BC"/>
<path d="M230.633 121.985V106.614H234.007V118.911H241.651V121.985H230.633Z" fill="#0071BC"/>
<path d="M251.115 122.227C246.997 122.227 244.478 119.921 244.478 115.398V106.614H247.851V115.31C247.851 117.813 249.1 119.109 251.159 119.109C253.218 119.109 254.466 117.857 254.466 115.42V106.614H257.84V115.288C257.84 119.943 255.233 122.227 251.115 122.227Z" fill="#0071BC"/>
<path d="M263.031 121.985V106.614H274.597V109.622H266.383V112.741H273.611V115.749H266.383V118.977H274.706V121.985H263.031Z" fill="#0071BC"/>
<path d="M17.1302 77.4783L23.5539 69.7869C27.6578 73.0661 32.2369 74.7953 37.0551 74.7953C40.1473 74.7953 41.8131 73.7217 41.8131 71.933V71.8142C41.8131 70.0849 40.4447 69.1301 34.7947 67.8188C25.9328 65.7913 19.0933 63.2877 19.0933 54.7007V54.5819C19.0933 46.8299 25.2185 41.2251 35.2118 41.2251C42.2893 41.2251 47.8208 43.1338 52.3407 46.7704L46.571 54.9394C42.7645 52.2564 38.6012 50.8252 34.9143 50.8252C32.1184 50.8252 30.75 52.0177 30.75 53.5083V53.6282C30.75 55.5356 32.1775 56.3705 37.9473 57.6818C47.5236 59.7697 53.4709 62.8697 53.4709 70.6811V70.7999C53.4709 79.3265 46.7499 84.3944 36.6381 84.3944C29.2632 84.3944 22.2448 82.0701 17.1302 77.4783Z" fill="#0071BC"/>
<path d="M82.0173 62.6915C86.1212 62.6915 88.6186 60.5442 88.6186 57.2648V57.1462C88.6186 53.5676 86.1212 51.6602 81.9569 51.6602H76.545V62.6915H82.0173ZM65.0068 41.9412H82.8501C93.3766 41.9412 100.158 47.3666 100.158 56.6093V56.7281C100.158 66.567 92.6041 71.7537 82.2543 71.7537H76.545V83.6794H65.0068V41.9412Z" fill="#0071BC"/>
<path d="M129.518 62.1268C133.443 62.1268 135.704 60.0679 135.704 57.0263V56.9075C135.704 53.6282 133.325 51.9582 129.459 51.9582H121.905V62.1268H129.518ZM110.367 41.9412H130.054C136.418 41.9412 140.819 43.6099 143.614 46.4724C146.052 48.8572 147.302 52.077 147.302 56.1912V56.3112C147.302 62.6915 143.911 66.9245 138.737 69.1299L148.669 83.6794H135.347L126.96 71.0386H126.842H121.905V83.6794H110.367V41.9412Z" fill="#0071BC"/>
<path d="M160.381 41.9413H171.98V83.6795H160.381V41.9413Z" fill="#0071BC"/>
<path d="M184.766 41.9412H195.53L211.833 62.265V41.9412H223.253V83.6794H213.141L196.185 62.1268V83.6794H184.766V41.9412Z" fill="#0071BC"/>
<path d="M233.497 62.9291V62.8103C233.497 50.6458 243.013 41.1062 255.919 41.1062C263.235 41.1062 268.41 43.3725 272.811 47.1884L266.031 55.3575C263.058 52.8526 260.084 51.4214 255.979 51.4214C249.972 51.4214 245.333 56.4893 245.333 62.8697V62.9896C245.333 69.7263 250.031 74.5566 256.634 74.5566C259.429 74.5566 261.571 73.9604 263.294 72.8273V67.7594H255.087V59.2923H274.239V78.0746C269.838 81.7113 263.711 84.5143 256.157 84.5143C243.192 84.5143 233.497 75.5698 233.497 62.9291Z" fill="#0071BC"/>
<path d="M65.224 20.4515H43.8715V42.3667C47.0601 43.2914 49.8537 44.7694 52.3407 46.7704L46.5711 54.9394C45.687 54.3163 44.7835 53.7606 43.8715 53.2749V59.3003C46.1064 60.083 48.0013 61.0172 49.5021 62.1897H65.0068V52.8496C64.6966 52.8747 64.3717 52.8875 64.0333 52.8875H55.1122V45.1959H63.9148C64.2993 45.1959 64.6632 45.2107 65.0068 45.2395V41.9412H76.3865C75.3445 41.3167 74.1531 40.8012 72.8371 40.3667C76.524 38.7564 79.2596 35.8939 79.2596 31.0647V30.9459C79.2596 28.0837 78.249 25.8769 76.5834 24.2082C74.1451 21.7627 70.457 20.4515 65.224 20.4515ZM55.1122 37.0864V29.7524H62.6068C66.0556 29.7524 67.84 31.0647 67.84 33.3309V33.4497C67.84 35.8939 65.8781 37.0864 62.3689 37.0864H55.1122ZM81.0668 51.6601H76.5449V59.4022C79.2396 57.5909 80.8097 54.9535 81.0668 51.6601Z" fill="#D807A7"/>
<path d="M43.8715 42.3668V53.2748C44.7836 53.7606 45.687 54.3164 46.571 54.9395L52.3406 46.7704C49.8538 44.7695 47.06 43.2913 43.8715 42.3668ZM43.8715 59.3003V62.1896H49.502C48.0014 61.0173 46.1063 60.0831 43.8715 59.3003Z" fill="#00037B"/>
<path d="M76.3865 41.9412H65.0067V45.2395C68.1182 45.5001 69.5649 46.9119 69.5649 48.9526V49.0714C69.5649 51.2811 67.9139 52.6131 65.0067 52.8495V62.1896H65.3425C70.067 62.1896 73.8631 61.2049 76.545 59.4023V51.6602H81.0668C81.0917 51.3402 81.1043 51.0143 81.1043 50.682V50.5621C81.1043 46.3723 79.3474 43.7158 76.3865 41.9412Z" fill="#00037B"/>
<path d="M103.881 20.4515H92.3427V43.8405C97.2715 46.1746 100.158 50.58 100.158 56.6092V56.7281C100.158 58.7459 99.8404 60.5678 99.246 62.1897H110.367V51.8996H103.881V20.4515Z" fill="#D807A7"/>
<path d="M92.3427 43.8406V62.1896H99.246C99.8403 60.5678 100.158 58.7458 100.158 56.7281V56.6093C100.158 50.5799 97.2716 46.1747 92.3427 43.8406Z" fill="#00037B"/>
<path d="M121.904 51.8998H110.367V62.1897H121.904V51.8998Z" fill="#00037B"/>
<path d="M171.98 20.4515H160.263V43.9442C160.263 49.7877 157.23 52.53 152.59 52.53C147.951 52.53 144.918 49.6678 144.918 43.6461V20.4515H133.201V42.0904C137.902 42.5585 141.306 44.1082 143.614 46.4723C146.052 48.8572 147.302 52.0771 147.302 56.1912V56.3112C147.302 58.5667 146.879 60.5536 146.102 62.2777C148.045 62.7386 150.175 62.9651 152.472 62.9651C155.377 62.9651 158.03 62.6098 160.381 61.874V41.9412H171.98V43.5867V20.4515Z" fill="#D807A7"/>
<path d="M133.201 42.0904V43.8847C133.201 54.4088 138.031 60.3633 146.102 62.2778C146.879 60.5536 147.302 58.5667 147.302 56.3112V56.1912C147.302 52.077 146.052 48.8572 143.614 46.4722C141.306 44.1083 137.902 42.5583 133.201 42.0904Z" fill="#00037B"/>
<path d="M171.98 41.9412H160.381V61.8741C167.611 59.6118 171.98 53.755 171.98 43.5867V41.9412Z" fill="#00037B"/>
<path d="M218.251 20.4515H184.766V41.9412H195.53L198.572 45.7328H211.833V41.9412H216.169V36.61H196.185V30.2891H218.251V20.4515ZM211.833 52.3507H203.88L211.773 62.1897H211.833V52.3507ZM196.185 62.1268V62.1897H196.235L196.185 62.1268Z" fill="#D807A7"/>
<path d="M216.17 41.9413H211.833V45.7329H216.17V41.9413ZM195.53 41.9413H184.766V62.1897H196.185V62.1268L196.235 62.1897H211.773L203.88 52.3508H196.185V45.7328H198.572L195.53 41.9413ZM218.548 52.3508H211.833V62.1897H218.548V52.3508Z" fill="#00037B"/>
</g>
</g>
<defs>
<clipPath id="clip0_0_3">
<rect width="299" height="148" fill="white"/>
</clipPath>
</defs>
</svg>
