<?xml version="1.0" encoding="UTF-8" standalone="no"?>
<!-- Created with Inkscape (http://www.inkscape.org/) -->

<svg
   version="1.1"
   id="svg2"
   width="423.48001"
   height="317.13333"
   viewBox="0 0 423.48001 317.13333"
   sodipodi:docname="4. WCM Logo fc.eps"
   xmlns:inkscape="http://www.inkscape.org/namespaces/inkscape"
   xmlns:sodipodi="http://sodipodi.sourceforge.net/DTD/sodipodi-0.dtd"
   xmlns="http://www.w3.org/2000/svg"
   xmlns:svg="http://www.w3.org/2000/svg">
  <defs
     id="defs6" />
  <sodipodi:namedview
     id="namedview4"
     pagecolor="#ffffff"
     bordercolor="#000000"
     borderopacity="0.25"
     inkscape:showpageshadow="2"
     inkscape:pageopacity="0.0"
     inkscape:pagecheckerboard="0"
     inkscape:deskcolor="#d1d1d1" />
  <g
     id="g8"
     inkscape:groupmode="layer"
     inkscape:label="ink_ext_XXXXXX"
     transform="matrix(1.3333333,0,0,-1.3333333,0,317.13333)">
    <g
       id="g10"
       transform="scale(0.1)">
      <path
         d="M 1080.15,56.2695 V 0 H 2112.74 V 56.2695 H 1080.15"
         style="fill:#99d420;fill-opacity:1;fill-rule:nonzero;stroke:none"
         id="path12" />
      <path
         d="m 1573.54,1379.74 c -110.37,0 -199.2,88.97 -199.2,199.11 0,110.33 88.83,199.22 199.2,199.22 217.54,0 259.24,46.27 259.24,211.11 0,83.59 67.36,150.93 151,150.93 83.61,0 150.91,-67.34 150.91,-150.93 0,-83.55 -67.3,-150.91 -150.91,-150.91 -164.91,0 -211.04,-41.86 -211.04,-259.42 0,-110.14 -88.86,-199.11 -199.2,-199.11"
         style="fill:#99d420;fill-opacity:1;fill-rule:nonzero;stroke:none"
         id="path14" />
      <path
         d="m 1192.24,1845.95 c 83.54,0 150.89,67.3 150.89,150.91 0,83.58 -67.35,150.93 -150.89,150.93 -83.57,0 -150.93,-67.35 -150.93,-150.93 0,-83.61 67.36,-150.91 150.93,-150.91"
         style="fill:#99d420;fill-opacity:1;fill-rule:nonzero;stroke:none"
         id="path16" />
      <path
         d="m 1584.14,1845.95 c 83.58,0 150.91,67.3 150.91,150.91 0,83.58 -67.33,150.93 -150.91,150.93 -83.56,0 -150.91,-67.35 -150.91,-150.93 0,-83.61 67.35,-150.91 150.91,-150.91"
         style="fill:#99d420;fill-opacity:1;fill-rule:nonzero;stroke:none"
         id="path18" />
      <path
         d="m 1592.74,2233.13 c 40.21,0 72.7,32.44 72.7,72.68 0,40.25 -32.49,72.67 -72.7,72.67 -40.24,0 -72.68,-32.42 -72.68,-72.67 0,-40.24 32.44,-72.68 72.68,-72.68"
         style="fill:#99d420;fill-opacity:1;fill-rule:nonzero;stroke:none"
         id="path20" />
      <path
         d="m 375.18,676.551 v -453.52 h -67.84 v 354.278 h -1.254 L 235.73,223.031 h -37.687 l -70.352,354.278 h -1.253 V 223.031 H 58.5938 v 453.52 H 160.98 l 55.282,-265.082 h 1.254 l 55.277,265.082 H 375.18"
         style="fill:#9ba1ab;fill-opacity:1;fill-rule:nonzero;stroke:none"
         id="path22" />
      <path
         d="m 517.145,391.371 h 62.812 L 549.18,586.102 h -1.258 z m -25.129,-168.34 h -75.375 l 83.539,453.52 h 96.738 l 83.543,-453.52 h -75.379 l -13.816,100.508 h -85.43 l -13.82,-100.508"
         style="fill:#9ba1ab;fill-opacity:1;fill-rule:nonzero;stroke:none"
         id="path24" />
      <path
         d="m 736.363,223.031 v 453.52 h 77.891 v -453.52 h -77.891"
         style="fill:#9ba1ab;fill-opacity:1;fill-rule:nonzero;stroke:none"
         id="path26" />
      <path
         d="m 900.309,223.031 v 453.52 h 72.234 l 94.847,-259.422 h 1.26 V 676.551 H 1139 v -453.52 h -67.84 L 971.914,506.332 H 970.66 V 223.031 h -70.351"
         style="fill:#9ba1ab;fill-opacity:1;fill-rule:nonzero;stroke:none"
         id="path28" />
      <path
         d="m 1259.61,608.711 h -75.37 v 67.84 h 228.64 v -67.84 h -75.38 v -385.68 h -77.89 v 385.68"
         style="fill:#9ba1ab;fill-opacity:1;fill-rule:nonzero;stroke:none"
         id="path30" />
      <path
         d="m 1458.73,223.031 v 453.52 h 208.55 v -67.84 H 1536.62 V 491.879 h 100.51 v -67.84 H 1536.62 V 290.871 h 139.45 v -67.84 h -217.34"
         style="fill:#9ba1ab;fill-opacity:1;fill-rule:nonzero;stroke:none"
         id="path32" />
      <path
         d="m 1737.63,223.031 v 453.52 h 72.23 l 94.86,-259.422 h 1.25 v 259.422 h 70.35 v -453.52 h -67.83 l -99.26,283.301 h -1.25 V 223.031 h -70.35"
         style="fill:#9ba1ab;fill-opacity:1;fill-rule:nonzero;stroke:none"
         id="path34" />
      <path
         d="m 2122.06,391.371 h 62.81 l -30.78,194.731 h -1.26 z m -25.14,-168.34 h -75.37 l 83.54,453.52 h 96.74 l 83.54,-453.52 h -75.38 l -13.81,100.508 h -85.43 l -13.83,-100.508"
         style="fill:#9ba1ab;fill-opacity:1;fill-rule:nonzero;stroke:none"
         id="path36" />
      <path
         d="m 2330.6,223.031 v 453.52 h 72.23 l 94.86,-259.422 h 1.25 v 259.422 h 70.35 v -453.52 h -67.83 l -99.26,283.301 h -1.25 V 223.031 h -70.35"
         style="fill:#9ba1ab;fill-opacity:1;fill-rule:nonzero;stroke:none"
         id="path38" />
      <path
         d="m 2801.71,525.172 v 35.18 c 0,38.308 -17.59,54.636 -37.7,54.636 -31.4,0 -41.44,-16.328 -41.44,-50.238 V 334.852 c 0,-33.93 10.04,-50.262 41.44,-50.262 28.28,0 37.7,16.332 37.7,45.851 v 54.649 h 77.89 v -52.141 c 0,-64.058 -37.7,-116.199 -115.59,-116.199 -81.66,0 -119.33,52.141 -119.33,116.199 v 233.672 c 0,64.078 37.67,116.219 119.33,116.219 77.89,0 115.59,-56.539 115.59,-124.379 v -33.289 h -77.89"
         style="fill:#9ba1ab;fill-opacity:1;fill-rule:nonzero;stroke:none"
         id="path40" />
      <path
         d="m 2958.75,223.031 v 453.52 h 208.54 v -67.84 H 3036.64 V 491.879 h 100.5 v -67.84 h -100.5 V 290.871 h 139.44 v -67.84 h -217.33"
         style="fill:#9ba1ab;fill-opacity:1;fill-rule:nonzero;stroke:none"
         id="path42" />
      <path
         d="m 175.098,1223.32 h 64.941 l 53.484,-292.89 h 1.274 l 43.933,292.89 h 73.86 L 331.73,763.621 H 265.508 L 208.203,1067.33 H 206.93 L 153.445,763.621 H 87.2305 L 0,1223.32 H 73.8555 L 122.246,930.43 h 1.274 l 51.578,292.89"
         style="fill:#586676;fill-opacity:1;fill-rule:nonzero;stroke:none"
         id="path44" />
      <path
         d="m 541.832,876.961 c 0,-34.402 10.188,-50.941 42.023,-50.941 31.836,0 42.024,16.539 42.024,50.941 v 233.019 c 0,34.39 -10.188,50.94 -42.024,50.94 -31.835,0 -42.023,-16.55 -42.023,-50.94 z M 462.883,1111.9 c 0,64.94 38.203,117.79 120.972,117.79 82.77,0 120.973,-52.85 120.973,-117.79 V 875.039 c 0,-64.937 -38.203,-117.789 -120.973,-117.789 -82.769,0 -120.972,52.852 -120.972,117.789 V 1111.9"
         style="fill:#586676;fill-opacity:1;fill-rule:nonzero;stroke:none"
         id="path46" />
      <path
         d="m 860.188,1017.03 h 28.015 c 42.66,0 58.574,15.92 58.574,70.67 0,54.76 -15.914,70.68 -58.574,70.68 h -28.015 z m 0,-253.409 H 781.234 V 1223.32 H 892.02 c 88.507,0 133.71,-37.56 133.71,-135.62 0,-73.85 -28.652,-103.778 -55.394,-115.88 l 66.854,-208.199 h -80.221 l -56.031,190.367 c -10.192,-1.269 -26.743,-1.91 -40.75,-1.91 V 763.621"
         style="fill:#586676;fill-opacity:1;fill-rule:nonzero;stroke:none"
         id="path48" />
      <path
         d="m 1095.77,763.621 v 459.699 h 78.95 V 832.391 h 124.16 v -68.77 h -203.11"
         style="fill:#586676;fill-opacity:1;fill-rule:nonzero;stroke:none"
         id="path50" />
      <path
         d="m 1426.21,828.559 h 27.38 c 42.03,0 56.66,15.921 56.66,64.312 v 201.199 c 0,48.39 -14.63,64.31 -56.66,64.31 h -27.38 z m -78.94,394.761 h 117.14 c 81.51,0 124.8,-44.57 124.8,-138.8 V 902.43 c 0,-94.239 -43.29,-138.809 -124.8,-138.809 h -117.14 v 459.699"
         style="fill:#586676;fill-opacity:1;fill-rule:nonzero;stroke:none"
         id="path52" />
      <path
         d="m 1966.13,1069.88 v 35.65 c 0,38.84 -17.82,55.39 -38.19,55.39 -31.84,0 -42.03,-16.55 -42.03,-50.94 V 876.961 c 0,-34.402 10.19,-50.941 42.03,-50.941 28.65,0 38.19,16.539 38.19,46.468 v 55.403 h 78.96 v -52.852 c 0,-64.937 -38.21,-117.789 -117.15,-117.789 -82.77,0 -120.98,52.852 -120.98,117.789 V 1111.9 c 0,64.94 38.21,117.79 120.98,117.79 78.94,0 117.15,-57.3 117.15,-126.07 v -33.74 h -78.96"
         style="fill:#586676;fill-opacity:1;fill-rule:nonzero;stroke:none"
         id="path54" />
      <path
         d="m 2121.48,763.621 v 459.699 h 78.96 V 832.391 h 124.16 v -68.77 h -203.12"
         style="fill:#586676;fill-opacity:1;fill-rule:nonzero;stroke:none"
         id="path56" />
      <path
         d="m 2444.3,934.262 h 63.66 l -31.19,197.368 h -1.27 z m -25.47,-170.641 h -76.41 l 84.68,459.699 h 98.06 l 84.67,-459.699 h -76.4 l -14.01,101.867 h -86.59 l -14,-101.867"
         style="fill:#586676;fill-opacity:1;fill-rule:nonzero;stroke:none"
         id="path58" />
      <path
         d="m 2799.57,1109.98 c -3.18,39.48 -24.19,50.94 -42.02,50.94 -25.47,0 -39.47,-16.55 -39.47,-45.2 0,-78.31 160.45,-115.88 160.45,-240.681 0,-75.769 -50.94,-117.789 -124.81,-117.789 -73.22,0 -115.23,58.57 -118.42,127.34 l 75.13,10.82 c 3.18,-46.48 21.65,-69.39 47.12,-69.39 27.38,0 45.84,14.64 45.84,42.011 0,91.059 -160.45,115.25 -160.45,247.049 0,73.22 44.57,114.61 122.25,114.61 64.31,0 102.52,-46.48 109.51,-111.42 l -75.13,-8.29"
         style="fill:#586676;fill-opacity:1;fill-rule:nonzero;stroke:none"
         id="path60" />
      <path
         d="m 3082.26,1109.98 c -3.19,39.48 -24.2,50.94 -42.03,50.94 -25.46,0 -39.48,-16.55 -39.48,-45.2 0,-78.31 160.46,-115.88 160.46,-240.681 0,-75.769 -50.94,-117.789 -124.79,-117.789 -73.23,0 -115.26,58.57 -118.44,127.34 l 75.14,10.82 c 3.18,-46.48 21.65,-69.39 47.11,-69.39 27.38,0 45.84,14.64 45.84,42.011 0,91.059 -160.44,115.25 -160.44,247.049 0,73.22 44.57,114.61 122.24,114.61 64.31,0 102.51,-46.48 109.51,-111.42 l -75.12,-8.29"
         style="fill:#586676;fill-opacity:1;fill-rule:nonzero;stroke:none"
         id="path62" />
    </g>
  </g>
</svg>
