<svg id="Layer_1" data-name="Layer 1" xmlns="http://www.w3.org/2000/svg" viewBox="0 0 223.73 66.89"><defs><style>.cls-1{fill:#1f9a2e;}.cls-2{fill:#9cbc00;}.cls-3{fill:#00592f;}.cls-4{fill:#9c1d23;}.cls-5{fill:#da002b;}</style></defs><path d="M75.63.67H84l4.86,11.12h.06L90.63.67h6.8L94.38,19.92H86L81.22,8.77h-.08L79.38,19.92h-6.8Z"/><path d="M102.65,19.55a8.29,8.29,0,0,1-3.75-3,8,8,0,0,1-1.28-4.49,11.33,11.33,0,0,1,1.77-6.26,11.88,11.88,0,0,1,4.82-4.29A14.73,14.73,0,0,1,110.94,0a14.45,14.45,0,0,1,5.67,1,8.21,8.21,0,0,1,3.71,3,7.83,7.83,0,0,1,1.29,4.5,11.33,11.33,0,0,1-1.77,6.26A11.91,11.91,0,0,1,115,19.05a14.62,14.62,0,0,1-6.71,1.54A14.52,14.52,0,0,1,102.65,19.55ZM111.78,14a4.78,4.78,0,0,0,1.75-1.9,5.7,5.7,0,0,0,.62-2.66,3.84,3.84,0,0,0-.46-1.9,3,3,0,0,0-1.38-1.23,5.26,5.26,0,0,0-2.2-.43,4.86,4.86,0,0,0-2.61.71,5,5,0,0,0-1.78,1.91,5.67,5.67,0,0,0-.64,2.65,3.59,3.59,0,0,0,.48,1.89A3.34,3.34,0,0,0,107,14.27a4.92,4.92,0,0,0,2.14.44A5,5,0,0,0,111.78,14Z"/><path d="M136,19.89a4.36,4.36,0,0,1-1.51-1.28,5,5,0,0,1-.83-1.87l-.4-1.47a2.72,2.72,0,0,0-.63-1.21,1.54,1.54,0,0,0-1.16-.42h-1.34l-1,6.28H121.8l3-19.25h11.69a11.35,11.35,0,0,1,4.09.65,5.59,5.59,0,0,1,2.54,1.89,5,5,0,0,1,.88,3,6.08,6.08,0,0,1-.58,2.65A5.93,5.93,0,0,1,141.79,11a8.81,8.81,0,0,1-2.71,1.43v0a1.62,1.62,0,0,1,.73.62,3.08,3.08,0,0,1,.42,1.15l.37,1.18A1.79,1.79,0,0,0,141,16a.92.92,0,0,0,.7.25,1.49,1.49,0,0,0,.56-.12l.56-.22.43,3.1a9.13,9.13,0,0,1-2.33,1,10.17,10.17,0,0,1-2.7.38A4.7,4.7,0,0,1,136,19.89ZM133.94,9.31A3.78,3.78,0,0,0,135.43,9a2,2,0,0,0,.92-.76,2.42,2.42,0,0,0,.29-1.22,1.49,1.49,0,0,0-.22-.83,1.62,1.62,0,0,0-.71-.55,3.16,3.16,0,0,0-1.18-.2h-3.1l-.59,3.83Z"/><path d="M150.58,6.55h-5.53L146,.67h18.45l-.94,5.88h-5.56l-2.11,13.37h-7.36Z"/><path d="M166.08.67h7.36l-1.05,6.6h6l1-6.6h7.36l-3.05,19.25H176.4l1.15-7.22h-6l-1.15,7.22H163Z"/><path d="M77.84,43.1a9.08,9.08,0,0,1-3.41-1.84,6.14,6.14,0,0,1-1.85-2.85L78.2,36.3a4,4,0,0,0,1.06,1.35,4.61,4.61,0,0,0,1.68.87,7.87,7.87,0,0,0,2.15.29,6.83,6.83,0,0,0,1.53-.15,2.63,2.63,0,0,0,1-.41.8.8,0,0,0,.38-.67,1,1,0,0,0-.66-.87,5.67,5.67,0,0,0-1.83-.49L81.22,36a11.19,11.19,0,0,1-5.33-1.82,4.36,4.36,0,0,1-1.67-3.66,6.23,6.23,0,0,1,1.27-3.93A7.64,7.64,0,0,1,79,24a14.28,14.28,0,0,1,5.08-.84,15.16,15.16,0,0,1,4.39.58,8.22,8.22,0,0,1,3.13,1.66,5.73,5.73,0,0,1,1.67,2.49l-5.4,2.14A2.72,2.72,0,0,0,87,29a4.23,4.23,0,0,0-1.34-.69A5.5,5.5,0,0,0,84,28a5.24,5.24,0,0,0-1.32.14,2.57,2.57,0,0,0-.91.4.77.77,0,0,0-.33.63c0,.29.23.52.64.71a7.51,7.51,0,0,0,1.9.47l2.14.37a10.71,10.71,0,0,1,5.38,1.89,4.79,4.79,0,0,1,1.73,3.94,5.69,5.69,0,0,1-1.41,3.83A8.68,8.68,0,0,1,88,42.89a16.83,16.83,0,0,1-5.49.84A15.73,15.73,0,0,1,77.84,43.1Z"/><path d="M96.63,23.84h15.65l-.83,5.26h-8.56l-.32,2h7.49l-.72,4.5h-7.49l-.35,2.24h8.83l-.83,5.27H93.59Z"/><path d="M120.61,23.84h8.88l4.06,19.25H125.9l-.4-2.91h-6.28l-1.42,2.91h-7.43Zm4.54,11.76-.9-6.71h-.06L121,35.6Z"/><path d="M75.63,47H91.54l-.93,5.88H82.05l-.37,2.43h6.95l-.78,5h-7l-.93,5.94H72.58Z"/><path d="M96.7,47h8.88l4.07,19.25H102l-.4-2.92H95.31L93.9,66.25H86.46Zm4.55,11.76-.91-6.71h0L97.1,58.76Z"/><path d="M125.06,66.22a4.37,4.37,0,0,1-1.51-1.28,5,5,0,0,1-.83-1.87l-.4-1.47a2.72,2.72,0,0,0-.63-1.21,1.55,1.55,0,0,0-1.16-.43h-1.34l-1,6.29h-7.35L113.9,47h11.68a11.16,11.16,0,0,1,4.1.65,5.59,5.59,0,0,1,2.54,1.89,5,5,0,0,1,.88,3,6.08,6.08,0,0,1-.58,2.65,5.82,5.82,0,0,1-1.68,2.12,8.5,8.5,0,0,1-2.71,1.43v0a1.62,1.62,0,0,1,.73.62,2.86,2.86,0,0,1,.41,1.15l.38,1.17a1.75,1.75,0,0,0,.37.66.92.92,0,0,0,.7.25,1.49,1.49,0,0,0,.56-.12l.56-.23.43,3.11a9.13,9.13,0,0,1-2.33,1,10.15,10.15,0,0,1-2.7.37A4.67,4.67,0,0,1,125.06,66.22ZM123,55.63a4,4,0,0,0,1.49-.26,2,2,0,0,0,.92-.77,2.38,2.38,0,0,0,.29-1.21,1.42,1.42,0,0,0-.23-.83,1.47,1.47,0,0,0-.7-.55,3.2,3.2,0,0,0-1.18-.2h-3.1l-.59,3.82Z"/><path d="M136.32,47h9.25l2.83,11.49h0L154.9,47h9.23l-3,19.25h-6.61l1.77-10.91-.06,0L150,66.25h-5.59l-2.81-10.94h-.05l-1.69,10.94h-6.6Z"/><path d="M166.47,47h15.64l-.83,5.26h-8.56l-.32,2h7.49l-.72,4.49h-7.49L171.33,61h8.83l-.83,5.27H163.42Z"/><path d="M195.18,66.22a4.37,4.37,0,0,1-1.51-1.28,5,5,0,0,1-.83-1.87l-.4-1.47a2.72,2.72,0,0,0-.63-1.21,1.55,1.55,0,0,0-1.16-.43h-1.34l-1,6.29H181L184,47H195.7a11.16,11.16,0,0,1,4.1.65,5.59,5.59,0,0,1,2.54,1.89,5,5,0,0,1,.88,3,6.08,6.08,0,0,1-.58,2.65A5.82,5.82,0,0,1,201,57.3a8.5,8.5,0,0,1-2.71,1.43v0a1.62,1.62,0,0,1,.73.62,2.86,2.86,0,0,1,.41,1.15l.38,1.17a1.75,1.75,0,0,0,.37.66.92.92,0,0,0,.7.25,1.49,1.49,0,0,0,.56-.12l.56-.23.43,3.11a9.13,9.13,0,0,1-2.33,1,10.15,10.15,0,0,1-2.7.37A4.67,4.67,0,0,1,195.18,66.22Zm-2.07-10.59a4,4,0,0,0,1.49-.26,2,2,0,0,0,.92-.77,2.38,2.38,0,0,0,.29-1.21,1.42,1.42,0,0,0-.23-.83,1.47,1.47,0,0,0-.7-.55,3.2,3.2,0,0,0-1.18-.2h-3.1L190,55.63Z"/><path d="M208.31,66.26a9.08,9.08,0,0,1-3.41-1.84,6,6,0,0,1-1.84-2.85l5.61-2.11a4.29,4.29,0,0,0,1.06,1.35,4.69,4.69,0,0,0,1.68.87,7.89,7.89,0,0,0,2.16.29,6.73,6.73,0,0,0,1.52-.15,2.68,2.68,0,0,0,1-.41.79.79,0,0,0,.37-.67,1,1,0,0,0-.65-.87,5.82,5.82,0,0,0-1.84-.49l-2.3-.27a11.3,11.3,0,0,1-5.33-1.82,4.39,4.39,0,0,1-1.67-3.66A6.23,6.23,0,0,1,206,49.7a7.69,7.69,0,0,1,3.49-2.5,14.05,14.05,0,0,1,5.08-.85,15.21,15.21,0,0,1,4.4.59,8.24,8.24,0,0,1,3.13,1.66,5.81,5.81,0,0,1,1.67,2.49l-5.4,2.14a2.74,2.74,0,0,0-.82-1.09,4.13,4.13,0,0,0-1.34-.69,5.44,5.44,0,0,0-1.69-.26,5.35,5.35,0,0,0-1.33.15,2.65,2.65,0,0,0-.91.4.77.77,0,0,0-.33.63c0,.29.23.52.64.71a7.51,7.51,0,0,0,1.9.47l2.14.37A10.75,10.75,0,0,1,222,55.81a4.78,4.78,0,0,1,1.72,3.94,5.68,5.68,0,0,1-1.4,3.82,8.67,8.67,0,0,1-3.85,2.48,16.89,16.89,0,0,1-5.5.84A15.78,15.78,0,0,1,208.31,66.26Z"/><rect class="cls-1" x="31.43" y="29.37" width="2.73" height="65.59" transform="translate(94.95 29.37) rotate(90)"/><rect class="cls-2" x="31.43" y="32.09" width="2.73" height="65.59" transform="translate(97.68 32.09) rotate(90)"/><rect class="cls-3" x="30.06" y="25.27" width="5.47" height="65.59" transform="translate(90.86 25.27) rotate(90)"/><rect class="cls-4" x="24.6" y="14.34" width="16.4" height="65.59" transform="translate(79.93 14.34) rotate(90)"/><rect class="cls-5" x="13.66" y="-12.99" width="38.26" height="65.59" transform="translate(52.6 -12.99) rotate(90)"/></svg>