<svg width="125" height="77" viewBox="0 0 125 77" fill="none" xmlns="http://www.w3.org/2000/svg">
<path d="M38.55 44.69C41.04 44.69 42.4 43.03 42.4 40.71V28.87H47.7V40.98C47.65 46.31 43.38 48.4 38.55 48.4C33.72 48.4 29.46 46.31 29.4 40.98V28.87H34.7V40.71C34.71 43.03 36.06 44.69 38.55 44.69Z" fill="#00A6D6"/>
<path d="M15.67 48H20.97V32.58H26.91V28.87H9.72999V32.58H15.67V48Z" fill="black"/>
<path d="M28.41 19.55C27.12 19.96 25.78 19.63 25.79 17.9C25.79 15.26 31.98 13.05 32.84 10.75C33.05 10.18 33.07 9.69998 32.79 9.71998C32.59 9.72998 32.75 10.02 32.31 10.45C29.75 13.02 25.45 13.01 22.15 14.49C19.99 15.46 13.65 18.44 15.11 25.09C15.18 25.41 15.37 26.46 15.56 26.46C15.78 26.46 15.78 25.83 15.78 25.07C15.73 21.11 20.42 20.01 21.95 17.42C22.13 17.11 22.45 16.68 22.52 16.88C22.56 16.98 22.53 17.12 22.47 17.4C21.99 19.53 19.77 20.89 20.4 22.41C21.22 24.38 23.57 22.91 24.3 21.64C24.49 21.29 24.6 21.07 24.73 21.11C24.83 21.14 24.82 21.54 24.76 21.9C24.37 24.19 23.85 25.47 22.17 26.78C21.63 27.2 20.79 27.28 20.9 27.6C20.93 27.68 21.29 27.67 21.58 27.64C26.04 27.35 29.77 22.1 30.76 18.66C30.86 18.42 30.89 18.19 30.79 18.11C30.66 18.01 30.46 18.24 30.26 18.42C29.75 18.88 29.05 19.35 28.41 19.55Z" fill="black"/>
<path d="M73.67 40.08C73.69 38 74.94 36.13 77.04 36.13C79.48 36.13 80.43 37.8 80.43 40.08H73.67ZM83.09 41.83V40.58C83.09 36.9 81 34.3 77.23 34.3C73.02 34.3 71.05 37.56 71.05 41.46C71.05 45.38 72.75 48.41 77.02 48.41C80.2 48.41 82.53 46.9 82.93 43.88H80.28C79.99 45.81 79.01 46.58 77.05 46.58C74.48 46.58 73.62 44.29 73.62 41.84H83.09V41.83Z" fill="black"/>
<path d="M88.66 28.87H86.14V48H88.66V28.87Z" fill="black"/>
<path d="M96.56 48V36.45H99.63V34.7H96.56V32.55C96.56 31.01 97.3 30.75 98.73 30.75C99.15 30.75 99.58 30.8 100 30.83V28.74C99.41 28.61 98.81 28.47 98.2 28.47C95.82 28.47 94.04 29.67 94.04 32.21V34.7H91.44V36.45H94.04V48H96.56Z" fill="black"/>
<path d="M101.07 34.7V36.45H103.35V44.93C103.35 46.7 103.38 48.4 107.12 48.4C107.7 48.4 108.25 48.35 108.84 48.24V46.31C108.43 46.41 107.91 46.47 107.51 46.47C106.61 46.47 105.87 46.02 105.87 45.07V36.46H108.94V34.71H105.87V31.08L103.35 31.87V34.71L101.07 34.7Z" fill="black"/>
<path d="M53 48H59.57C67.75 48 68.61 41.07 68.61 38.43C68.61 35.79 67.75 28.86 59.57 28.86H53V48ZM55.65 31.15H59.57C63.99 31.15 65.83 34.49 65.83 38.44C65.83 42.39 63.99 45.73 59.57 45.73H55.65V31.15Z" fill="black"/>
</svg>
