<?xml version="1.0" encoding="utf-8"?>
<!-- Generator: Adobe Illustrator 28.0.0, SVG Export Plug-In . SVG Version: 6.00 Build 0)  -->
<svg version="1.1" xmlns="http://www.w3.org/2000/svg" xmlns:xlink="http://www.w3.org/1999/xlink" x="0px" y="0px"
	 viewBox="0 0 362.44 102" style="enable-background:new 0 0 362.44 102;" xml:space="preserve">
<style type="text/css">
	.st0{fill:#FF8000;}
	.st1{fill:#2490EB;}
</style>
<g id="Layer_7">
	<g>
		<g>
			<path class="st0" d="M126.34,17.76c2.21,1.17,3.93,2.82,5.14,4.94c1.21,2.12,1.82,4.57,1.82,7.34c0,2.75-0.61,5.19-1.82,7.32
				c-1.21,2.13-2.93,3.79-5.16,4.96c-2.23,1.17-4.81,1.76-7.74,1.76h-10.52V16h10.52C121.54,16,124.13,16.59,126.34,17.76z
				 M124.18,36.04c1.44-1.41,2.16-3.41,2.16-6c0-2.59-0.72-4.6-2.16-6.04s-3.45-2.16-6.04-2.16h-3.24v16.32h3.24
				C120.73,38.16,122.74,37.46,124.18,36.04z"/>
			<path class="st0" d="M159.18,21.76v22.32h-6.84v-3.04c-0.69,0.99-1.63,1.78-2.82,2.38c-1.19,0.6-2.5,0.9-3.94,0.9
				c-1.71,0-3.21-0.38-4.52-1.14c-1.31-0.76-2.32-1.86-3.04-3.3c-0.72-1.44-1.08-3.13-1.08-5.08V21.76h6.8v12.12
				c0,1.49,0.39,2.65,1.16,3.48c0.77,0.83,1.81,1.24,3.12,1.24c1.33,0,2.39-0.41,3.16-1.24c0.77-0.83,1.16-1.99,1.16-3.48V21.76
				H159.18z"/>
			<path class="st0" d="M176.54,38.28v5.8h-3.48c-2.48,0-4.41-0.61-5.8-1.82c-1.39-1.21-2.08-3.19-2.08-5.94v-8.88h-2.72v-5.68h2.72
				v-5.44h6.84v5.44h4.48v5.68h-4.48v8.96c0,0.67,0.16,1.15,0.48,1.44c0.32,0.29,0.85,0.44,1.6,0.44H176.54z"/>
			<path class="st0" d="M180.4,26.84c0.95-1.73,2.27-3.07,3.96-4c1.69-0.93,3.63-1.4,5.82-1.4c2.8,0,5.14,0.73,7.02,2.2
				c1.88,1.47,3.11,3.53,3.7,6.2h-7.28c-0.61-1.71-1.8-2.56-3.56-2.56c-1.25,0-2.25,0.49-3,1.46c-0.75,0.97-1.12,2.37-1.12,4.18
				c0,1.81,0.37,3.21,1.12,4.18c0.75,0.97,1.75,1.46,3,1.46c1.76,0,2.95-0.85,3.56-2.56h7.28c-0.59,2.61-1.83,4.67-3.72,6.16
				c-1.89,1.49-4.23,2.24-7,2.24c-2.19,0-4.13-0.47-5.82-1.4c-1.69-0.93-3.01-2.27-3.96-4c-0.95-1.73-1.42-3.76-1.42-6.08
				C178.98,30.6,179.46,28.58,180.4,26.84z"/>
			<path class="st0" d="M224.42,24.06c1.55,1.69,2.32,4.02,2.32,6.98v13.04h-6.8V31.96c0-1.49-0.39-2.65-1.16-3.48
				c-0.77-0.83-1.81-1.24-3.12-1.24c-1.31,0-2.35,0.41-3.12,1.24c-0.77,0.83-1.16,1.99-1.16,3.48v12.12h-6.84v-29.6h6.84v10.28
				c0.69-0.99,1.64-1.77,2.84-2.36c1.2-0.59,2.55-0.88,4.04-0.88C220.82,21.52,222.88,22.37,224.42,24.06z"/>
		</g>
	</g>
</g>
<g id="Layer_8">
	<g>
		<g>
			<path class="st1" d="M148.32,57.68L141,85.76h-8.28l-4.48-18.48l-4.64,18.48h-8.28l-7.12-28.08h7.32l4.04,20.44l5-20.44h7.52
				l4.8,20.44l4.08-20.44H148.32z"/>
			<path class="st1" d="M151.7,68.52c0.87-1.73,2.05-3.07,3.54-4c1.49-0.93,3.16-1.4,5-1.4c1.57,0,2.95,0.32,4.14,0.96
				c1.19,0.64,2.1,1.48,2.74,2.52v-3.16h6.84v22.32h-6.84V82.6c-0.67,1.04-1.59,1.88-2.78,2.52c-1.19,0.64-2.57,0.96-4.14,0.96
				c-1.81,0-3.47-0.47-4.96-1.42c-1.49-0.95-2.67-2.29-3.54-4.04c-0.87-1.75-1.3-3.77-1.3-6.06
				C150.4,72.27,150.84,70.25,151.7,68.52z M165.7,70.56c-0.95-0.99-2.1-1.48-3.46-1.48s-2.51,0.49-3.46,1.46
				c-0.95,0.97-1.42,2.31-1.42,4.02c0,1.71,0.47,3.06,1.42,4.06c0.95,1,2.1,1.5,3.46,1.5s2.51-0.49,3.46-1.48
				c0.95-0.99,1.42-2.33,1.42-4.04C167.12,72.89,166.65,71.55,165.7,70.56z"/>
			<path class="st1" d="M188.96,79.36l4.84-15.92h7.28l-7.92,22.32h-8.44l-7.92-22.32h7.32L188.96,79.36z"/>
			<path class="st1" d="M224.88,76.24H209.4c0.11,1.39,0.55,2.45,1.34,3.18s1.75,1.1,2.9,1.1c1.71,0,2.89-0.72,3.56-2.16h7.28
				c-0.37,1.47-1.05,2.79-2.02,3.96c-0.97,1.17-2.19,2.09-3.66,2.76c-1.47,0.67-3.11,1-4.92,1c-2.19,0-4.13-0.47-5.84-1.4
				c-1.71-0.93-3.04-2.27-4-4c-0.96-1.73-1.44-3.76-1.44-6.08c0-2.32,0.47-4.35,1.42-6.08c0.95-1.73,2.27-3.07,3.98-4
				c1.71-0.93,3.67-1.4,5.88-1.4c2.16,0,4.08,0.45,5.76,1.36c1.68,0.91,2.99,2.2,3.94,3.88c0.95,1.68,1.42,3.64,1.42,5.88
				C225,74.88,224.96,75.55,224.88,76.24z M218,72.44c0-1.17-0.4-2.11-1.2-2.8c-0.8-0.69-1.8-1.04-3-1.04c-1.15,0-2.11,0.33-2.9,1
				c-0.79,0.67-1.27,1.61-1.46,2.84H218z"/>
			<path class="st1" d="M257.36,71.18c-0.75,1.35-1.89,2.43-3.44,3.26c-1.55,0.83-3.47,1.24-5.76,1.24h-4.24v10.08h-6.84V57.68
				h11.08c2.24,0,4.13,0.39,5.68,1.16c1.55,0.77,2.71,1.84,3.48,3.2s1.16,2.92,1.16,4.68C258.48,68.35,258.11,69.83,257.36,71.18z
				 M250.56,69.32c0.64-0.61,0.96-1.48,0.96-2.6s-0.32-1.99-0.96-2.6s-1.61-0.92-2.92-0.92h-3.72v7.04h3.72
				C248.95,70.24,249.92,69.93,250.56,69.32z"/>
			<path class="st1" d="M266.3,84.68c-1.75-0.93-3.12-2.27-4.12-4c-1-1.73-1.5-3.76-1.5-6.08c0-2.29,0.51-4.31,1.52-6.06
				c1.01-1.75,2.4-3.09,4.16-4.02c1.76-0.93,3.73-1.4,5.92-1.4s4.16,0.47,5.92,1.4c1.76,0.93,3.15,2.27,4.16,4.02
				c1.01,1.75,1.52,3.77,1.52,6.06c0,2.29-0.51,4.31-1.54,6.06c-1.03,1.75-2.43,3.09-4.2,4.02c-1.77,0.93-3.75,1.4-5.94,1.4
				S268.05,85.61,266.3,84.68z M275.54,78.72c0.92-0.96,1.38-2.33,1.38-4.12c0-1.79-0.45-3.16-1.34-4.12
				c-0.89-0.96-1.99-1.44-3.3-1.44c-1.33,0-2.44,0.47-3.32,1.42c-0.88,0.95-1.32,2.33-1.32,4.14c0,1.79,0.43,3.16,1.3,4.12
				c0.87,0.96,1.95,1.44,3.26,1.44S274.62,79.68,275.54,78.72z"/>
			<path class="st1" d="M319.56,63.44l-6.04,22.32h-7.56l-3.52-14.48l-3.64,14.48h-7.52l-6.08-22.32h6.84l3.16,15.96l3.76-15.96
				h7.24l3.8,15.88l3.12-15.88H319.56z"/>
			<path class="st1" d="M343.08,76.24H327.6c0.11,1.39,0.55,2.45,1.34,3.18c0.79,0.73,1.75,1.1,2.9,1.1c1.71,0,2.89-0.72,3.56-2.16
				h7.28c-0.37,1.47-1.05,2.79-2.02,3.96c-0.97,1.17-2.19,2.09-3.66,2.76c-1.47,0.67-3.11,1-4.92,1c-2.19,0-4.13-0.47-5.84-1.4
				c-1.71-0.93-3.04-2.27-4-4c-0.96-1.73-1.44-3.76-1.44-6.08c0-2.32,0.47-4.35,1.42-6.08c0.95-1.73,2.27-3.07,3.98-4
				c1.71-0.93,3.67-1.4,5.88-1.4c2.16,0,4.08,0.45,5.76,1.36s2.99,2.2,3.94,3.88c0.95,1.68,1.42,3.64,1.42,5.88
				C343.2,74.88,343.16,75.55,343.08,76.24z M336.2,72.44c0-1.17-0.4-2.11-1.2-2.8c-0.8-0.69-1.8-1.04-3-1.04
				c-1.15,0-2.11,0.33-2.9,1c-0.79,0.67-1.27,1.61-1.46,2.84H336.2z"/>
			<path class="st1" d="M356.64,64.26c1.2-0.71,2.53-1.06,4-1.06v7.24h-1.88c-1.71,0-2.99,0.37-3.84,1.1s-1.28,2.02-1.28,3.86v10.36
				h-6.84V63.44h6.84v3.72C354.44,65.93,355.44,64.97,356.64,64.26z"/>
		</g>
	</g>
</g>
<g id="Layer_5">
</g>
<g id="Layer_10">
	<g>
		<path class="st0" d="M4.09,62.35c0.99,0.2,2.09,0.23,3.38,0.11C6.52,58.8,6,54.96,6,51C6,26.15,26.15,6,51,6
			c24.85,0,45,20.15,45,45c0,3.96-0.52,7.8-1.48,11.45c1.36,0.12,2.41,0.09,3.38-0.11l1.88-0.38C100.57,58.43,101,54.77,101,51
			c0-27.61-22.39-50-50-50C23.39,1,1,23.39,1,51c0,3.77,0.43,7.44,1.22,10.97L4.09,62.35z"/>
		<path class="st0" d="M79.49,91.12c-1.45-0.99-2.6-1.77-4.15-2.28C68.32,93.36,59.97,96,51,96c-8.99,0-17.36-2.65-24.39-7.19
			c-1.51,0.52-2.68,1.31-4.14,2.3c-0.22,0.15-0.45,0.3-0.68,0.46C30.01,97.5,40.09,101,51,101c10.9,0,20.97-3.5,29.19-9.41
			C79.95,91.43,79.72,91.28,79.49,91.12z"/>
	</g>
</g>
<g id="Layer_15">
	<path class="st1" d="M8.8,70.63c5.8-0.61,8.86-2.69,11.55-4.52c2.58-1.75,4.8-3.27,9.5-3.58c4.7-0.22,6.9,1.02,9.45,2.46
		c2.69,1.53,5.74,3.25,11.42,3.25c0.08,0,0.16,0,0.25,0c5.91,0.05,8.97-1.7,11.7-3.25c2.55-1.44,4.74-2.7,9.41-2.47
		c4.74,0.31,6.96,1.82,9.54,3.58c2.69,1.83,5.75,3.92,11.51,4.52c1.37,0.17,2.59,0.22,3.69,0.18c0.76-1.64,1.43-3.33,2.01-5.07
		c-1.37,0.28-2.99,0.36-5.16,0.1c-4.6-0.48-6.8-1.98-9.34-3.71c-2.76-1.88-5.89-4.01-11.98-4.4c-6.09-0.29-9.26,1.5-12.05,3.08
		c-2.53,1.43-4.67,2.67-9.33,2.63c-4.56,0.05-6.76-1.19-9.29-2.63c-2.79-1.58-5.96-3.37-12.09-3.08c-6.05,0.39-9.18,2.52-11.94,4.41
		c-2.55,1.73-4.75,3.23-9.38,3.72c-2.13,0.26-3.73,0.18-5.09-0.1c0.58,1.73,1.25,3.42,2.01,5.06C6.26,70.84,7.46,70.79,8.8,70.63z"
		/>
</g>
<g id="Layer_3">
	<polygon class="st0" points="66,8 33,55 50,55 	"/>
	<polygon class="st0" points="35.64,94 68.64,47 51.64,47 	"/>
</g>
<g id="Layer_14">
	<path class="st1" d="M72.35,79.9c-6.09-0.29-9.26,1.5-12.05,3.08c-2.53,1.43-4.67,2.67-9.33,2.63c-4.56,0.05-6.76-1.2-9.29-2.62
		c-2.79-1.58-5.96-3.37-12.09-3.08c-6.05,0.39-9.18,2.52-11.94,4.4c-0.77,0.52-1.5,1.02-2.28,1.48c1.18,1.18,2.43,2.3,3.72,3.36
		c0.44-0.29,0.86-0.57,1.27-0.85c2.58-1.75,4.8-3.27,9.5-3.58c4.7-0.22,6.9,1.02,9.45,2.46c2.69,1.53,5.74,3.25,11.41,3.25
		c0.08,0,0.16,0,0.25,0c5.91,0.04,8.97-1.7,11.7-3.25c2.55-1.44,4.74-2.69,9.41-2.47c4.74,0.31,6.96,1.82,9.54,3.58
		c0.41,0.28,0.84,0.57,1.28,0.86c1.29-1.06,2.54-2.18,3.72-3.36c-0.78-0.46-1.52-0.96-2.29-1.48C81.57,82.43,78.44,80.29,72.35,79.9
		z"/>
	<path class="st1" d="M72.35,69c-6.07-0.29-9.26,1.5-12.05,3.08c-2.49,1.41-4.64,2.63-9.12,2.63c-0.14,0-0.28,0-0.43,0
		c-4.44,0-6.59-1.22-9.08-2.62c-2.79-1.58-5.97-3.37-12.09-3.08c-6.05,0.39-9.18,2.52-11.94,4.4c-2.52,1.71-4.7,3.2-9.24,3.7
		c0.96,1.51,2.01,2.97,3.12,4.37c4.1-0.88,6.59-2.57,8.82-4.09c2.58-1.75,4.8-3.27,9.5-3.58c4.7-0.22,6.9,1.02,9.45,2.46
		c2.73,1.55,5.81,3.31,11.66,3.25c5.86,0.06,8.97-1.7,11.7-3.25c2.55-1.44,4.75-2.7,9.41-2.47c4.74,0.31,6.96,1.82,9.54,3.58
		c2.24,1.53,4.74,3.22,8.84,4.09c1.12-1.4,2.16-2.86,3.12-4.38c-4.53-0.49-6.72-1.98-9.25-3.7C81.57,71.52,78.44,69.39,72.35,69z"/>
</g>
</svg>
